<svg width="683" height="341" viewBox="0 0 683 341" fill="none" xmlns="http://www.w3.org/2000/svg">
<rect x="0.349609" y="170.413" width="241" height="241" transform="rotate(-45 0.349609 170.413)" fill="#C29351"/>
<path d="M108.882 170.88C109.922 170.88 110.835 170.746 111.622 170.48C112.422 170.213 113.082 169.84 113.602 169.36C114.135 168.866 114.535 168.273 114.802 167.58C115.069 166.886 115.202 166.113 115.202 165.26C115.202 164.42 115.069 163.666 114.802 163C114.549 162.333 114.162 161.766 113.642 161.3C113.122 160.833 112.462 160.48 111.662 160.24C110.875 159.986 109.949 159.86 108.882 159.86H104.602V170.88H108.882ZM108.882 156.2C110.762 156.2 112.389 156.42 113.762 156.86C115.149 157.3 116.289 157.92 117.182 158.72C118.089 159.506 118.762 160.46 119.202 161.58C119.642 162.686 119.862 163.913 119.862 165.26C119.862 166.633 119.629 167.893 119.162 169.04C118.695 170.173 118.002 171.153 117.082 171.98C116.162 172.793 115.015 173.433 113.642 173.9C112.282 174.353 110.695 174.58 108.882 174.58H104.602V185H99.922V156.2H108.882ZM127.244 168.38C127.884 167.086 128.658 166.073 129.564 165.34C130.471 164.593 131.558 164.22 132.824 164.22C133.264 164.22 133.678 164.273 134.064 164.38C134.451 164.473 134.798 164.62 135.104 164.82L134.804 168.06C134.751 168.286 134.664 168.446 134.544 168.54C134.438 168.62 134.291 168.66 134.104 168.66C133.904 168.66 133.618 168.626 133.244 168.56C132.871 168.48 132.478 168.44 132.064 168.44C131.464 168.44 130.931 168.526 130.464 168.7C130.011 168.873 129.598 169.126 129.224 169.46C128.864 169.793 128.544 170.2 128.264 170.68C127.984 171.16 127.724 171.706 127.484 172.32V185H123.184V164.6H125.684C126.138 164.6 126.451 164.686 126.624 164.86C126.798 165.02 126.918 165.306 126.984 165.72L127.244 168.38ZM146.067 164.28C147.574 164.28 148.934 164.526 150.147 165.02C151.374 165.513 152.414 166.213 153.267 167.12C154.134 168.026 154.8 169.126 155.267 170.42C155.734 171.713 155.967 173.166 155.967 174.78C155.967 176.393 155.734 177.846 155.267 179.14C154.8 180.433 154.134 181.54 153.267 182.46C152.414 183.366 151.374 184.066 150.147 184.56C148.934 185.053 147.574 185.3 146.067 185.3C144.547 185.3 143.174 185.053 141.947 184.56C140.734 184.066 139.694 183.366 138.827 182.46C137.96 181.54 137.294 180.433 136.827 179.14C136.36 177.846 136.127 176.393 136.127 174.78C136.127 173.166 136.36 171.713 136.827 170.42C137.294 169.126 137.96 168.026 138.827 167.12C139.694 166.213 140.734 165.513 141.947 165.02C143.174 164.526 144.547 164.28 146.067 164.28ZM146.067 181.94C147.907 181.94 149.274 181.326 150.167 180.1C151.074 178.86 151.527 177.093 151.527 174.8C151.527 172.506 151.074 170.74 150.167 169.5C149.274 168.246 147.907 167.62 146.067 167.62C144.2 167.62 142.814 168.246 141.907 169.5C141 170.74 140.547 172.506 140.547 174.8C140.547 177.093 141 178.86 141.907 180.1C142.814 181.326 144.2 181.94 146.067 181.94ZM164.399 179.88C164.999 180.653 165.652 181.2 166.359 181.52C167.079 181.826 167.859 181.98 168.699 181.98C170.392 181.98 171.712 181.366 172.659 180.14C173.605 178.913 174.079 177.013 174.079 174.44C174.079 172.093 173.665 170.38 172.839 169.3C172.025 168.22 170.859 167.68 169.339 167.68C168.285 167.68 167.365 167.92 166.579 168.4C165.805 168.866 165.079 169.54 164.399 170.42V179.88ZM164.399 167.3C165.239 166.38 166.179 165.646 167.219 165.1C168.259 164.553 169.445 164.28 170.779 164.28C171.965 164.28 173.032 164.513 173.979 164.98C174.939 165.433 175.752 166.093 176.419 166.96C177.085 167.826 177.599 168.88 177.959 170.12C178.319 171.346 178.499 172.733 178.499 174.28C178.499 175.933 178.292 177.44 177.879 178.8C177.479 180.146 176.899 181.306 176.139 182.28C175.379 183.24 174.459 183.986 173.379 184.52C172.299 185.04 171.092 185.3 169.759 185.3C169.105 185.3 168.512 185.233 167.979 185.1C167.445 184.98 166.952 184.8 166.499 184.56C166.045 184.32 165.625 184.033 165.239 183.7C164.865 183.366 164.505 182.986 164.159 182.56L163.979 184.14C163.912 184.446 163.792 184.666 163.619 184.8C163.445 184.933 163.205 185 162.899 185H160.099V155.4H164.399V167.3ZM187.057 155.4V185H182.757V155.4H187.057ZM205.744 172.5C205.744 171.78 205.637 171.113 205.424 170.5C205.224 169.873 204.924 169.333 204.524 168.88C204.124 168.413 203.624 168.053 203.024 167.8C202.437 167.533 201.757 167.4 200.984 167.4C199.424 167.4 198.197 167.846 197.304 168.74C196.411 169.633 195.844 170.886 195.604 172.5H205.744ZM195.484 175.14C195.537 176.3 195.717 177.306 196.024 178.16C196.331 179 196.737 179.7 197.244 180.26C197.764 180.82 198.377 181.24 199.084 181.52C199.804 181.786 200.604 181.92 201.484 181.92C202.324 181.92 203.051 181.826 203.664 181.64C204.277 181.44 204.811 181.226 205.264 181C205.717 180.76 206.104 180.546 206.424 180.36C206.744 180.16 207.037 180.06 207.304 180.06C207.651 180.06 207.917 180.193 208.104 180.46L209.324 182.04C208.817 182.64 208.244 183.146 207.604 183.56C206.964 183.973 206.284 184.313 205.564 184.58C204.844 184.833 204.104 185.013 203.344 185.12C202.584 185.24 201.844 185.3 201.124 185.3C199.711 185.3 198.397 185.066 197.184 184.6C195.984 184.12 194.937 183.42 194.044 182.5C193.164 181.58 192.471 180.44 191.964 179.08C191.471 177.72 191.224 176.153 191.224 174.38C191.224 172.966 191.444 171.646 191.884 170.42C192.337 169.193 192.977 168.126 193.804 167.22C194.644 166.313 195.657 165.6 196.844 165.08C198.044 164.546 199.397 164.28 200.904 164.28C202.157 164.28 203.317 164.486 204.384 164.9C205.451 165.3 206.371 165.893 207.144 166.68C207.917 167.466 208.517 168.433 208.944 169.58C209.384 170.713 209.604 172.006 209.604 173.46C209.604 174.126 209.531 174.573 209.384 174.8C209.237 175.026 208.971 175.14 208.584 175.14H195.484ZM213.614 185V164.6H216.214C216.801 164.6 217.174 164.873 217.334 165.42L217.614 167.2C217.987 166.773 218.374 166.386 218.774 166.04C219.174 165.68 219.601 165.373 220.054 165.12C220.521 164.853 221.014 164.646 221.534 164.5C222.067 164.353 222.641 164.28 223.254 164.28C223.907 164.28 224.507 164.373 225.054 164.56C225.601 164.746 226.081 165.013 226.494 165.36C226.921 165.706 227.287 166.126 227.594 166.62C227.901 167.113 228.154 167.666 228.354 168.28C228.661 167.573 229.047 166.966 229.514 166.46C229.981 165.953 230.501 165.54 231.074 165.22C231.647 164.9 232.254 164.666 232.894 164.52C233.547 164.36 234.207 164.28 234.874 164.28C235.967 164.28 236.941 164.453 237.794 164.8C238.661 165.146 239.387 165.653 239.974 166.32C240.574 166.973 241.027 167.78 241.334 168.74C241.641 169.7 241.794 170.793 241.794 172.02V185H237.494V172.02C237.494 170.58 237.181 169.5 236.554 168.78C235.941 168.046 235.027 167.68 233.814 167.68C233.267 167.68 232.754 167.773 232.274 167.96C231.794 168.146 231.374 168.42 231.014 168.78C230.654 169.14 230.367 169.593 230.154 170.14C229.954 170.673 229.854 171.3 229.854 172.02V185H225.554V172.02C225.554 170.526 225.254 169.433 224.654 168.74C224.054 168.033 223.174 167.68 222.014 167.68C221.214 167.68 220.474 167.886 219.794 168.3C219.114 168.7 218.487 169.253 217.914 169.96V185H213.614Z" fill="black"/>
<rect x="341.176" y="170.413" width="241" height="241" transform="rotate(-45 341.176 170.413)" fill="#C29351"/>
<path d="M457.043 161.12C456.896 161.36 456.743 161.54 456.583 161.66C456.423 161.767 456.223 161.82 455.983 161.82C455.729 161.82 455.443 161.713 455.123 161.5C454.816 161.287 454.429 161.053 453.963 160.8C453.509 160.533 452.969 160.293 452.343 160.08C451.716 159.853 450.969 159.74 450.103 159.74C449.303 159.74 448.596 159.84 447.983 160.04C447.383 160.24 446.876 160.52 446.463 160.88C446.049 161.24 445.736 161.667 445.523 162.16C445.323 162.64 445.223 163.167 445.223 163.74C445.223 164.473 445.416 165.087 445.803 165.58C446.189 166.06 446.696 166.473 447.323 166.82C447.963 167.167 448.689 167.473 449.503 167.74C450.316 167.993 451.143 168.267 451.983 168.56C452.836 168.853 453.669 169.187 454.483 169.56C455.296 169.933 456.016 170.407 456.643 170.98C457.283 171.553 457.796 172.253 458.183 173.08C458.569 173.907 458.762 174.913 458.762 176.1C458.762 177.38 458.543 178.58 458.103 179.7C457.663 180.82 457.023 181.8 456.183 182.64C455.356 183.467 454.329 184.12 453.103 184.6C451.889 185.08 450.503 185.32 448.943 185.32C448.023 185.32 447.123 185.227 446.243 185.04C445.376 184.867 444.543 184.62 443.743 184.3C442.956 183.967 442.216 183.567 441.523 183.1C440.829 182.633 440.209 182.113 439.663 181.54L441.023 179.3C441.143 179.113 441.296 178.967 441.483 178.86C441.669 178.753 441.876 178.7 442.103 178.7C442.409 178.7 442.749 178.847 443.123 179.14C443.496 179.42 443.943 179.733 444.463 180.08C444.996 180.413 445.636 180.727 446.383 181.02C447.129 181.3 448.023 181.44 449.063 181.44C450.756 181.44 452.063 181.027 452.983 180.2C453.916 179.373 454.383 178.233 454.383 176.78C454.383 175.967 454.189 175.307 453.803 174.8C453.416 174.28 452.903 173.847 452.263 173.5C451.636 173.153 450.916 172.86 450.103 172.62C449.289 172.38 448.463 172.127 447.623 171.86C446.783 171.58 445.956 171.26 445.143 170.9C444.329 170.527 443.603 170.047 442.963 169.46C442.336 168.86 441.829 168.127 441.443 167.26C441.056 166.38 440.863 165.287 440.863 163.98C440.863 162.94 441.063 161.933 441.463 160.96C441.876 159.987 442.469 159.127 443.243 158.38C444.029 157.62 444.996 157.013 446.143 156.56C447.289 156.107 448.596 155.88 450.063 155.88C451.716 155.88 453.229 156.14 454.603 156.66C455.989 157.18 457.183 157.92 458.183 158.88L457.043 161.12ZM471.76 164.28C473.267 164.28 474.627 164.527 475.84 165.02C477.067 165.513 478.107 166.213 478.96 167.12C479.827 168.027 480.494 169.127 480.96 170.42C481.427 171.713 481.66 173.167 481.66 174.78C481.66 176.393 481.427 177.847 480.96 179.14C480.494 180.433 479.827 181.54 478.96 182.46C478.107 183.367 477.067 184.067 475.84 184.56C474.627 185.053 473.267 185.3 471.76 185.3C470.24 185.3 468.867 185.053 467.64 184.56C466.427 184.067 465.387 183.367 464.52 182.46C463.654 181.54 462.987 180.433 462.52 179.14C462.054 177.847 461.82 176.393 461.82 174.78C461.82 173.167 462.054 171.713 462.52 170.42C462.987 169.127 463.654 168.027 464.52 167.12C465.387 166.213 466.427 165.513 467.64 165.02C468.867 164.527 470.24 164.28 471.76 164.28ZM471.76 181.94C473.6 181.94 474.967 181.327 475.86 180.1C476.767 178.86 477.22 177.093 477.22 174.8C477.22 172.507 476.767 170.74 475.86 169.5C474.967 168.247 473.6 167.62 471.76 167.62C469.894 167.62 468.507 168.247 467.6 169.5C466.694 170.74 466.24 172.507 466.24 174.8C466.24 177.093 466.694 178.86 467.6 180.1C468.507 181.327 469.894 181.94 471.76 181.94ZM490.172 155.4V185H485.872V155.4H490.172ZM512.679 164.6V185H510.079C509.506 185 509.139 184.727 508.979 184.18L508.659 182.28C508.233 182.733 507.779 183.147 507.299 183.52C506.833 183.893 506.333 184.213 505.799 184.48C505.266 184.747 504.693 184.953 504.079 185.1C503.479 185.247 502.833 185.32 502.139 185.32C501.019 185.32 500.033 185.133 499.179 184.76C498.326 184.387 497.606 183.86 497.019 183.18C496.446 182.5 496.013 181.687 495.719 180.74C495.426 179.78 495.279 178.727 495.279 177.58V164.6H499.579V177.58C499.579 178.953 499.893 180.02 500.519 180.78C501.159 181.54 502.126 181.92 503.419 181.92C504.366 181.92 505.246 181.707 506.059 181.28C506.886 180.84 507.659 180.24 508.379 179.48V164.6H512.679ZM537.701 185H533.401V167.98H523.461V179.56C523.461 180.293 523.641 180.853 524.001 181.24C524.361 181.627 524.841 181.82 525.441 181.82C525.775 181.82 526.061 181.78 526.301 181.7C526.541 181.607 526.748 181.513 526.921 181.42C527.095 181.313 527.241 181.22 527.361 181.14C527.495 181.047 527.621 181 527.741 181C527.981 181 528.175 181.133 528.321 181.4L529.601 183.5C528.935 184.087 528.148 184.54 527.241 184.86C526.335 185.167 525.401 185.32 524.441 185.32C522.748 185.32 521.441 184.847 520.521 183.9C519.615 182.94 519.161 181.593 519.161 179.86V167.98H516.921C516.681 167.98 516.475 167.907 516.301 167.76C516.128 167.6 516.041 167.367 516.041 167.06V165.32L519.341 164.84L520.281 158.94C520.348 158.713 520.461 158.533 520.621 158.4C520.781 158.253 520.995 158.18 521.261 158.18H523.461V164.88H537.701V185ZM538.581 158.34C538.581 158.727 538.501 159.093 538.341 159.44C538.195 159.773 537.988 160.073 537.721 160.34C537.455 160.593 537.141 160.8 536.781 160.96C536.435 161.107 536.068 161.18 535.681 161.18C535.295 161.18 534.928 161.107 534.581 160.96C534.248 160.8 533.948 160.593 533.681 160.34C533.428 160.073 533.221 159.773 533.061 159.44C532.915 159.093 532.841 158.727 532.841 158.34C532.841 157.94 532.915 157.567 533.061 157.22C533.221 156.86 533.428 156.553 533.681 156.3C533.948 156.033 534.248 155.827 534.581 155.68C534.928 155.52 535.295 155.44 535.681 155.44C536.068 155.44 536.435 155.52 536.781 155.68C537.141 155.827 537.455 156.033 537.721 156.3C537.988 156.553 538.195 156.86 538.341 157.22C538.501 157.567 538.581 157.94 538.581 158.34ZM551.956 164.28C553.462 164.28 554.822 164.527 556.036 165.02C557.262 165.513 558.302 166.213 559.156 167.12C560.022 168.027 560.689 169.127 561.156 170.42C561.622 171.713 561.856 173.167 561.856 174.78C561.856 176.393 561.622 177.847 561.156 179.14C560.689 180.433 560.022 181.54 559.156 182.46C558.302 183.367 557.262 184.067 556.036 184.56C554.822 185.053 553.462 185.3 551.956 185.3C550.436 185.3 549.062 185.053 547.836 184.56C546.622 184.067 545.582 183.367 544.716 182.46C543.849 181.54 543.182 180.433 542.716 179.14C542.249 177.847 542.016 176.393 542.016 174.78C542.016 173.167 542.249 171.713 542.716 170.42C543.182 169.127 543.849 168.027 544.716 167.12C545.582 166.213 546.622 165.513 547.836 165.02C549.062 164.527 550.436 164.28 551.956 164.28ZM551.956 181.94C553.796 181.94 555.162 181.327 556.056 180.1C556.962 178.86 557.416 177.093 557.416 174.8C557.416 172.507 556.962 170.74 556.056 169.5C555.162 168.247 553.796 167.62 551.956 167.62C550.089 167.62 548.702 168.247 547.796 169.5C546.889 170.74 546.436 172.507 546.436 174.8C546.436 177.093 546.889 178.86 547.796 180.1C548.702 181.327 550.089 181.94 551.956 181.94ZM570.007 167.3C570.447 166.847 570.901 166.44 571.367 166.08C571.847 165.707 572.354 165.387 572.887 165.12C573.421 164.853 573.987 164.647 574.587 164.5C575.187 164.353 575.841 164.28 576.547 164.28C577.667 164.28 578.647 164.467 579.487 164.84C580.341 165.213 581.054 165.74 581.627 166.42C582.214 167.1 582.654 167.92 582.947 168.88C583.241 169.827 583.387 170.873 583.387 172.02V185H579.107V172.02C579.107 170.647 578.787 169.58 578.147 168.82C577.521 168.06 576.561 167.68 575.267 167.68C574.307 167.68 573.414 167.9 572.587 168.34C571.774 168.78 571.007 169.38 570.287 170.14V185H565.987V164.6H568.587C569.174 164.6 569.547 164.873 569.707 165.42L570.007 167.3Z" fill="black"/>
</svg>
