<svg width="1295" height="139" viewBox="0 0 1295 139" fill="none" xmlns="http://www.w3.org/2000/svg">
<path d="M485.502 127.224V129H478.726V117.432H480.878V127.224H485.502ZM491.592 123.952C491.592 123.696 491.555 123.456 491.48 123.232C491.411 123.003 491.304 122.803 491.16 122.632C491.016 122.461 490.832 122.328 490.608 122.232C490.389 122.131 490.133 122.08 489.84 122.08C489.269 122.08 488.819 122.243 488.488 122.568C488.163 122.893 487.955 123.355 487.864 123.952H491.592ZM487.824 125.144C487.856 125.565 487.931 125.931 488.048 126.24C488.165 126.544 488.32 126.797 488.512 127C488.704 127.197 488.931 127.347 489.192 127.448C489.459 127.544 489.752 127.592 490.072 127.592C490.392 127.592 490.667 127.555 490.896 127.48C491.131 127.405 491.333 127.323 491.504 127.232C491.68 127.141 491.832 127.059 491.96 126.984C492.093 126.909 492.221 126.872 492.344 126.872C492.509 126.872 492.632 126.933 492.712 127.056L493.28 127.776C493.061 128.032 492.816 128.248 492.544 128.424C492.272 128.595 491.987 128.733 491.688 128.84C491.395 128.941 491.093 129.013 490.784 129.056C490.48 129.099 490.184 129.12 489.896 129.12C489.325 129.12 488.795 129.027 488.304 128.84C487.813 128.648 487.387 128.368 487.024 128C486.661 127.627 486.376 127.168 486.168 126.624C485.96 126.075 485.856 125.44 485.856 124.72C485.856 124.16 485.947 123.635 486.128 123.144C486.309 122.648 486.568 122.219 486.904 121.856C487.245 121.488 487.659 121.197 488.144 120.984C488.635 120.771 489.187 120.664 489.8 120.664C490.317 120.664 490.795 120.747 491.232 120.912C491.669 121.077 492.045 121.32 492.36 121.64C492.675 121.955 492.92 122.344 493.096 122.808C493.277 123.267 493.368 123.792 493.368 124.384C493.368 124.683 493.336 124.885 493.272 124.992C493.208 125.093 493.085 125.144 492.904 125.144H487.824ZM514.336 117.432L510.744 129H508.8L506.272 121.096C506.203 120.904 506.139 120.669 506.08 120.392C506.048 120.525 506.016 120.651 505.984 120.768C505.952 120.885 505.918 120.995 505.88 121.096L503.328 129H501.376L497.792 117.432H499.592C499.779 117.432 499.934 117.477 500.056 117.568C500.184 117.653 500.27 117.771 500.312 117.92L502.28 124.84C502.323 125.011 502.363 125.197 502.4 125.4C502.443 125.597 502.486 125.805 502.528 126.024C502.571 125.8 502.616 125.589 502.664 125.392C502.718 125.195 502.774 125.011 502.832 124.84L505.104 117.92C505.147 117.797 505.23 117.685 505.352 117.584C505.48 117.483 505.635 117.432 505.816 117.432H506.448C506.635 117.432 506.787 117.477 506.904 117.568C507.022 117.659 507.11 117.776 507.168 117.92L509.432 124.84C509.544 125.171 509.646 125.552 509.736 125.984C509.806 125.563 509.883 125.181 509.968 124.84L511.936 117.92C511.968 117.787 512.048 117.672 512.176 117.576C512.31 117.48 512.467 117.432 512.648 117.432H514.336ZM518.796 125.496C518.226 125.523 517.746 125.573 517.356 125.648C516.967 125.717 516.655 125.808 516.42 125.92C516.186 126.032 516.018 126.163 515.916 126.312C515.815 126.461 515.764 126.624 515.764 126.8C515.764 127.147 515.866 127.395 516.068 127.544C516.276 127.693 516.546 127.768 516.876 127.768C517.282 127.768 517.631 127.696 517.924 127.552C518.223 127.403 518.514 127.179 518.796 126.88V125.496ZM514.268 121.936C515.212 121.072 516.348 120.64 517.676 120.64C518.156 120.64 518.586 120.72 518.964 120.88C519.343 121.035 519.663 121.253 519.924 121.536C520.186 121.813 520.383 122.147 520.516 122.536C520.655 122.925 520.724 123.352 520.724 123.816V129H519.828C519.642 129 519.498 128.973 519.396 128.92C519.295 128.861 519.215 128.747 519.156 128.576L518.98 127.984C518.772 128.171 518.57 128.336 518.372 128.48C518.175 128.619 517.97 128.736 517.756 128.832C517.543 128.928 517.314 129 517.068 129.048C516.828 129.101 516.562 129.128 516.268 129.128C515.922 129.128 515.602 129.083 515.308 128.992C515.015 128.896 514.762 128.755 514.548 128.568C514.335 128.381 514.17 128.149 514.052 127.872C513.935 127.595 513.876 127.272 513.876 126.904C513.876 126.696 513.911 126.491 513.98 126.288C514.05 126.08 514.162 125.883 514.316 125.696C514.476 125.509 514.682 125.333 514.932 125.168C515.183 125.003 515.49 124.859 515.852 124.736C516.22 124.613 516.647 124.515 517.132 124.44C517.618 124.36 518.172 124.312 518.796 124.296V123.816C518.796 123.267 518.679 122.861 518.444 122.6C518.21 122.333 517.871 122.2 517.428 122.2C517.108 122.2 516.842 122.237 516.628 122.312C516.42 122.387 516.236 122.472 516.076 122.568C515.916 122.659 515.77 122.741 515.636 122.816C515.508 122.891 515.364 122.928 515.204 122.928C515.066 122.928 514.948 122.893 514.852 122.824C514.756 122.749 514.679 122.664 514.62 122.568L514.268 121.936ZM525.585 124.696C525.831 124.696 526.044 124.664 526.225 124.6C526.407 124.531 526.556 124.437 526.673 124.32C526.796 124.203 526.887 124.061 526.945 123.896C527.009 123.731 527.041 123.549 527.041 123.352C527.041 122.947 526.919 122.627 526.673 122.392C526.433 122.152 526.071 122.032 525.585 122.032C525.1 122.032 524.735 122.152 524.489 122.392C524.249 122.627 524.129 122.947 524.129 123.352C524.129 123.544 524.159 123.723 524.217 123.888C524.281 124.053 524.372 124.197 524.489 124.32C524.612 124.437 524.764 124.531 524.945 124.6C525.132 124.664 525.345 124.696 525.585 124.696ZM527.817 129.368C527.817 129.208 527.769 129.077 527.673 128.976C527.577 128.875 527.447 128.797 527.281 128.744C527.116 128.685 526.921 128.643 526.697 128.616C526.479 128.589 526.244 128.571 525.993 128.56C525.748 128.544 525.492 128.531 525.225 128.52C524.964 128.509 524.708 128.488 524.457 128.456C524.239 128.579 524.06 128.723 523.921 128.888C523.788 129.053 523.721 129.245 523.721 129.464C523.721 129.608 523.756 129.741 523.825 129.864C523.9 129.992 524.015 130.101 524.169 130.192C524.329 130.283 524.535 130.352 524.785 130.4C525.036 130.453 525.343 130.48 525.705 130.48C526.073 130.48 526.391 130.451 526.657 130.392C526.924 130.339 527.143 130.261 527.313 130.16C527.489 130.064 527.617 129.947 527.697 129.808C527.777 129.675 527.817 129.528 527.817 129.368ZM529.785 121.072V121.808C529.785 122.043 529.644 122.187 529.361 122.24L528.625 122.376C528.737 122.659 528.793 122.968 528.793 123.304C528.793 123.709 528.711 124.077 528.545 124.408C528.385 124.733 528.161 125.011 527.873 125.24C527.585 125.469 527.244 125.648 526.849 125.776C526.46 125.899 526.039 125.96 525.585 125.96C525.425 125.96 525.271 125.952 525.121 125.936C524.972 125.92 524.825 125.899 524.681 125.872C524.425 126.027 524.297 126.2 524.297 126.392C524.297 126.557 524.372 126.68 524.521 126.76C524.676 126.835 524.879 126.888 525.129 126.92C525.38 126.952 525.665 126.973 525.985 126.984C526.305 126.989 526.633 127.005 526.969 127.032C527.305 127.059 527.633 127.107 527.953 127.176C528.273 127.24 528.559 127.344 528.809 127.488C529.06 127.632 529.26 127.829 529.409 128.08C529.564 128.325 529.641 128.643 529.641 129.032C529.641 129.395 529.551 129.747 529.369 130.088C529.193 130.429 528.935 130.733 528.593 131C528.257 131.267 527.841 131.48 527.345 131.64C526.855 131.805 526.295 131.888 525.665 131.888C525.047 131.888 524.508 131.827 524.049 131.704C523.591 131.587 523.209 131.427 522.905 131.224C522.601 131.027 522.375 130.797 522.225 130.536C522.076 130.275 522.001 130.003 522.001 129.72C522.001 129.336 522.116 129.016 522.345 128.76C522.58 128.499 522.9 128.291 523.305 128.136C523.087 128.024 522.913 127.875 522.785 127.688C522.657 127.501 522.593 127.256 522.593 126.952C522.593 126.829 522.615 126.704 522.657 126.576C522.705 126.443 522.772 126.312 522.857 126.184C522.948 126.056 523.06 125.936 523.193 125.824C523.327 125.707 523.484 125.603 523.665 125.512C523.249 125.288 522.921 124.989 522.681 124.616C522.447 124.243 522.329 123.805 522.329 123.304C522.329 122.899 522.409 122.533 522.569 122.208C522.735 121.877 522.961 121.597 523.249 121.368C523.543 121.133 523.887 120.955 524.281 120.832C524.681 120.709 525.116 120.648 525.585 120.648C525.937 120.648 526.268 120.685 526.577 120.76C526.887 120.829 527.169 120.933 527.425 121.072H529.785ZM534.53 120.664C535.138 120.664 535.69 120.763 536.186 120.96C536.687 121.157 537.114 121.437 537.466 121.8C537.823 122.163 538.098 122.605 538.29 123.128C538.482 123.651 538.578 124.235 538.578 124.88C538.578 125.531 538.482 126.117 538.29 126.64C538.098 127.163 537.823 127.608 537.466 127.976C537.114 128.344 536.687 128.627 536.186 128.824C535.69 129.021 535.138 129.12 534.53 129.12C533.917 129.12 533.359 129.021 532.858 128.824C532.357 128.627 531.927 128.344 531.57 127.976C531.218 127.608 530.943 127.163 530.746 126.64C530.554 126.117 530.458 125.531 530.458 124.88C530.458 124.235 530.554 123.651 530.746 123.128C530.943 122.605 531.218 122.163 531.57 121.8C531.927 121.437 532.357 121.157 532.858 120.96C533.359 120.763 533.917 120.664 534.53 120.664ZM534.53 127.6C535.213 127.6 535.717 127.371 536.042 126.912C536.373 126.453 536.538 125.781 536.538 124.896C536.538 124.011 536.373 123.336 536.042 122.872C535.717 122.408 535.213 122.176 534.53 122.176C533.837 122.176 533.322 122.411 532.986 122.88C532.655 123.344 532.49 124.016 532.49 124.896C532.49 125.776 532.655 126.448 532.986 126.912C533.322 127.371 533.837 127.6 534.53 127.6ZM541.933 121.8C542.099 121.635 542.272 121.483 542.453 121.344C542.64 121.2 542.835 121.08 543.037 120.984C543.245 120.883 543.467 120.805 543.701 120.752C543.936 120.693 544.192 120.664 544.469 120.664C544.917 120.664 545.315 120.741 545.661 120.896C546.008 121.045 546.296 121.259 546.525 121.536C546.76 121.808 546.936 122.136 547.053 122.52C547.176 122.899 547.237 123.317 547.237 123.776V129H545.261V123.776C545.261 123.275 545.147 122.888 544.917 122.616C544.688 122.339 544.339 122.2 543.869 122.2C543.528 122.2 543.208 122.277 542.909 122.432C542.611 122.587 542.328 122.797 542.061 123.064V129H540.085V120.792H541.293C541.549 120.792 541.717 120.912 541.797 121.152L541.933 121.8ZM554.983 126.872C555.207 127.144 555.45 127.336 555.711 127.448C555.978 127.56 556.258 127.616 556.551 127.616C556.855 127.616 557.127 127.563 557.367 127.456C557.613 127.344 557.821 127.173 557.991 126.944C558.162 126.709 558.293 126.413 558.383 126.056C558.474 125.693 558.519 125.261 558.519 124.76C558.519 123.859 558.37 123.208 558.071 122.808C557.773 122.403 557.343 122.2 556.783 122.2C556.405 122.2 556.074 122.288 555.791 122.464C555.509 122.635 555.239 122.877 554.983 123.192V126.872ZM554.983 121.8C555.314 121.453 555.679 121.179 556.079 120.976C556.485 120.768 556.946 120.664 557.463 120.664C557.938 120.664 558.365 120.757 558.743 120.944C559.127 121.131 559.453 121.4 559.719 121.752C559.991 122.099 560.199 122.52 560.343 123.016C560.487 123.512 560.559 124.069 560.559 124.688C560.559 125.355 560.477 125.96 560.311 126.504C560.146 127.048 559.909 127.515 559.599 127.904C559.295 128.288 558.927 128.587 558.495 128.8C558.063 129.013 557.583 129.12 557.055 129.12C556.799 129.12 556.567 129.093 556.359 129.04C556.151 128.992 555.959 128.923 555.783 128.832C555.607 128.741 555.445 128.632 555.295 128.504C555.151 128.371 555.013 128.224 554.879 128.064L554.791 128.616C554.759 128.755 554.703 128.853 554.623 128.912C554.549 128.971 554.445 129 554.311 129H553.007V117.112H554.983V121.8ZM565.717 120.664C566.325 120.664 566.877 120.763 567.373 120.96C567.875 121.157 568.301 121.437 568.653 121.8C569.011 122.163 569.285 122.605 569.477 123.128C569.669 123.651 569.765 124.235 569.765 124.88C569.765 125.531 569.669 126.117 569.477 126.64C569.285 127.163 569.011 127.608 568.653 127.976C568.301 128.344 567.875 128.627 567.373 128.824C566.877 129.021 566.325 129.12 565.717 129.12C565.104 129.12 564.547 129.021 564.045 128.824C563.544 128.627 563.115 128.344 562.757 127.976C562.405 127.608 562.131 127.163 561.933 126.64C561.741 126.117 561.645 125.531 561.645 124.88C561.645 124.235 561.741 123.651 561.933 123.128C562.131 122.605 562.405 122.163 562.757 121.8C563.115 121.437 563.544 121.157 564.045 120.96C564.547 120.763 565.104 120.664 565.717 120.664ZM565.717 127.6C566.4 127.6 566.904 127.371 567.229 126.912C567.56 126.453 567.725 125.781 567.725 124.896C567.725 124.011 567.56 123.336 567.229 122.872C566.904 122.408 566.4 122.176 565.717 122.176C565.024 122.176 564.509 122.411 564.173 122.88C563.843 123.344 563.677 124.016 563.677 124.896C563.677 125.776 563.843 126.448 564.173 126.912C564.509 127.371 565.024 127.6 565.717 127.6ZM574.905 120.664C575.513 120.664 576.065 120.763 576.561 120.96C577.062 121.157 577.489 121.437 577.841 121.8C578.198 122.163 578.473 122.605 578.665 123.128C578.857 123.651 578.953 124.235 578.953 124.88C578.953 125.531 578.857 126.117 578.665 126.64C578.473 127.163 578.198 127.608 577.841 127.976C577.489 128.344 577.062 128.627 576.561 128.824C576.065 129.021 575.513 129.12 574.905 129.12C574.292 129.12 573.734 129.021 573.233 128.824C572.732 128.627 572.302 128.344 571.945 127.976C571.593 127.608 571.318 127.163 571.121 126.64C570.929 126.117 570.833 125.531 570.833 124.88C570.833 124.235 570.929 123.651 571.121 123.128C571.318 122.605 571.593 122.163 571.945 121.8C572.302 121.437 572.732 121.157 573.233 120.96C573.734 120.763 574.292 120.664 574.905 120.664ZM574.905 127.6C575.588 127.6 576.092 127.371 576.417 126.912C576.748 126.453 576.913 125.781 576.913 124.896C576.913 124.011 576.748 123.336 576.417 122.872C576.092 122.408 575.588 122.176 574.905 122.176C574.212 122.176 573.697 122.411 573.361 122.88C573.03 123.344 572.865 124.016 572.865 124.896C572.865 125.776 573.03 126.448 573.361 126.912C573.697 127.371 574.212 127.6 574.905 127.6ZM583.04 129.128C582.325 129.128 581.776 128.928 581.392 128.528C581.013 128.123 580.824 127.565 580.824 126.856V122.272H579.984C579.877 122.272 579.787 122.237 579.712 122.168C579.637 122.099 579.6 121.995 579.6 121.856V121.072L580.92 120.856L581.336 118.616C581.363 118.509 581.413 118.427 581.488 118.368C581.563 118.309 581.659 118.28 581.776 118.28H582.8V120.864H584.992V122.272H582.8V126.72C582.8 126.976 582.861 127.176 582.984 127.32C583.112 127.464 583.285 127.536 583.504 127.536C583.627 127.536 583.728 127.523 583.808 127.496C583.893 127.464 583.965 127.432 584.024 127.4C584.088 127.368 584.144 127.339 584.192 127.312C584.24 127.28 584.288 127.264 584.336 127.264C584.395 127.264 584.443 127.28 584.48 127.312C584.517 127.339 584.557 127.381 584.6 127.44L585.192 128.4C584.904 128.64 584.573 128.821 584.2 128.944C583.827 129.067 583.44 129.128 583.04 129.128ZM592.075 122.528C592.016 122.603 591.957 122.661 591.899 122.704C591.845 122.747 591.765 122.768 591.659 122.768C591.557 122.768 591.459 122.739 591.363 122.68C591.267 122.616 591.152 122.547 591.019 122.472C590.885 122.392 590.725 122.323 590.539 122.264C590.357 122.2 590.131 122.168 589.859 122.168C589.512 122.168 589.208 122.232 588.947 122.36C588.685 122.483 588.467 122.661 588.291 122.896C588.12 123.131 587.992 123.416 587.907 123.752C587.821 124.083 587.779 124.459 587.779 124.88C587.779 125.317 587.824 125.707 587.915 126.048C588.011 126.389 588.147 126.677 588.323 126.912C588.499 127.141 588.712 127.317 588.963 127.44C589.213 127.557 589.496 127.616 589.811 127.616C590.125 127.616 590.379 127.579 590.571 127.504C590.768 127.424 590.933 127.339 591.067 127.248C591.2 127.152 591.315 127.067 591.411 126.992C591.512 126.912 591.624 126.872 591.747 126.872C591.907 126.872 592.027 126.933 592.107 127.056L592.675 127.776C592.456 128.032 592.219 128.248 591.963 128.424C591.707 128.595 591.44 128.733 591.163 128.84C590.891 128.941 590.608 129.013 590.315 129.056C590.027 129.099 589.739 129.12 589.451 129.12C588.944 129.12 588.467 129.027 588.019 128.84C587.571 128.648 587.179 128.371 586.843 128.008C586.507 127.645 586.24 127.203 586.043 126.68C585.851 126.152 585.755 125.552 585.755 124.88C585.755 124.277 585.84 123.72 586.011 123.208C586.187 122.691 586.443 122.245 586.779 121.872C587.115 121.493 587.531 121.197 588.027 120.984C588.523 120.771 589.093 120.664 589.739 120.664C590.352 120.664 590.888 120.763 591.347 120.96C591.811 121.157 592.227 121.44 592.595 121.808L592.075 122.528ZM598.25 125.496C597.679 125.523 597.199 125.573 596.81 125.648C596.42 125.717 596.108 125.808 595.874 125.92C595.639 126.032 595.471 126.163 595.37 126.312C595.268 126.461 595.218 126.624 595.218 126.8C595.218 127.147 595.319 127.395 595.522 127.544C595.73 127.693 595.999 127.768 596.33 127.768C596.735 127.768 597.084 127.696 597.378 127.552C597.676 127.403 597.967 127.179 598.25 126.88V125.496ZM593.722 121.936C594.666 121.072 595.802 120.64 597.13 120.64C597.61 120.64 598.039 120.72 598.418 120.88C598.796 121.035 599.116 121.253 599.378 121.536C599.639 121.813 599.836 122.147 599.97 122.536C600.108 122.925 600.178 123.352 600.178 123.816V129H599.282C599.095 129 598.951 128.973 598.85 128.92C598.748 128.861 598.668 128.747 598.61 128.576L598.434 127.984C598.226 128.171 598.023 128.336 597.826 128.48C597.628 128.619 597.423 128.736 597.21 128.832C596.996 128.928 596.767 129 596.522 129.048C596.282 129.101 596.015 129.128 595.722 129.128C595.375 129.128 595.055 129.083 594.762 128.992C594.468 128.896 594.215 128.755 594.002 128.568C593.788 128.381 593.623 128.149 593.506 127.872C593.388 127.595 593.33 127.272 593.33 126.904C593.33 126.696 593.364 126.491 593.434 126.288C593.503 126.08 593.615 125.883 593.77 125.696C593.93 125.509 594.135 125.333 594.386 125.168C594.636 125.003 594.943 124.859 595.306 124.736C595.674 124.613 596.1 124.515 596.586 124.44C597.071 124.36 597.626 124.312 598.25 124.296V123.816C598.25 123.267 598.132 122.861 597.898 122.6C597.663 122.333 597.324 122.2 596.882 122.2C596.562 122.2 596.295 122.237 596.082 122.312C595.874 122.387 595.69 122.472 595.53 122.568C595.37 122.659 595.223 122.741 595.09 122.816C594.962 122.891 594.818 122.928 594.658 122.928C594.519 122.928 594.402 122.893 594.306 122.824C594.21 122.749 594.132 122.664 594.074 122.568L593.722 121.936ZM602.039 129V120.792H603.247C603.503 120.792 603.671 120.912 603.751 121.152L603.879 121.76C604.023 121.6 604.172 121.453 604.327 121.32C604.487 121.187 604.655 121.072 604.831 120.976C605.012 120.88 605.204 120.805 605.407 120.752C605.615 120.693 605.841 120.664 606.087 120.664C606.604 120.664 607.028 120.805 607.359 121.088C607.695 121.365 607.945 121.736 608.111 122.2C608.239 121.928 608.399 121.696 608.591 121.504C608.783 121.307 608.993 121.147 609.223 121.024C609.452 120.901 609.695 120.811 609.951 120.752C610.212 120.693 610.473 120.664 610.735 120.664C611.188 120.664 611.591 120.733 611.943 120.872C612.295 121.011 612.591 121.213 612.831 121.48C613.071 121.747 613.252 122.072 613.375 122.456C613.503 122.84 613.567 123.28 613.567 123.776V129H611.591V123.776C611.591 123.253 611.476 122.861 611.247 122.6C611.017 122.333 610.681 122.2 610.239 122.2C610.036 122.2 609.847 122.235 609.671 122.304C609.5 122.373 609.348 122.475 609.215 122.608C609.087 122.736 608.985 122.899 608.911 123.096C608.836 123.293 608.799 123.52 608.799 123.776V129H606.815V123.776C606.815 123.227 606.703 122.827 606.479 122.576C606.26 122.325 605.937 122.2 605.511 122.2C605.223 122.2 604.953 122.272 604.703 122.416C604.457 122.555 604.228 122.747 604.015 122.992V129H602.039ZM617.421 126.872C617.645 127.144 617.887 127.336 618.149 127.448C618.415 127.56 618.703 127.616 619.013 127.616C619.311 127.616 619.581 127.56 619.821 127.448C620.061 127.336 620.263 127.165 620.429 126.936C620.599 126.707 620.73 126.419 620.821 126.072C620.911 125.72 620.957 125.307 620.957 124.832C620.957 124.352 620.917 123.947 620.837 123.616C620.762 123.28 620.653 123.008 620.509 122.8C620.365 122.592 620.189 122.44 619.981 122.344C619.778 122.248 619.546 122.2 619.285 122.2C618.874 122.2 618.525 122.288 618.237 122.464C617.949 122.635 617.677 122.877 617.421 123.192V126.872ZM617.317 121.912C617.653 121.533 618.034 121.227 618.461 120.992C618.887 120.757 619.389 120.64 619.965 120.64C620.413 120.64 620.821 120.733 621.189 120.92C621.562 121.107 621.882 121.379 622.149 121.736C622.421 122.088 622.629 122.525 622.773 123.048C622.922 123.565 622.997 124.16 622.997 124.832C622.997 125.445 622.914 126.013 622.749 126.536C622.583 127.059 622.346 127.512 622.037 127.896C621.733 128.28 621.362 128.581 620.925 128.8C620.493 129.013 620.007 129.12 619.469 129.12C619.01 129.12 618.618 129.051 618.293 128.912C617.967 128.768 617.677 128.571 617.421 128.32V131.68H615.445V120.792H616.653C616.909 120.792 617.077 120.912 617.157 121.152L617.317 121.912Z" fill="black"/>
<path d="M1126.71 11.248C1127.11 11.248 1127.45 11.2 1127.75 11.104C1128.04 11.0027 1128.28 10.8613 1128.47 10.68C1128.67 10.4933 1128.82 10.2693 1128.91 10.008C1129.01 9.74133 1129.06 9.44533 1129.06 9.12C1129.06 8.81067 1129.01 8.53067 1128.91 8.28C1128.82 8.02933 1128.67 7.816 1128.48 7.64C1128.29 7.464 1128.05 7.33067 1127.75 7.24C1127.46 7.144 1127.11 7.096 1126.71 7.096H1125.11V11.248H1126.71ZM1126.71 5.432C1127.49 5.432 1128.16 5.52267 1128.72 5.704C1129.29 5.88533 1129.75 6.13867 1130.12 6.464C1130.49 6.78933 1130.76 7.17867 1130.94 7.632C1131.12 8.08533 1131.21 8.58133 1131.21 9.12C1131.21 9.68 1131.12 10.1947 1130.93 10.664C1130.74 11.128 1130.46 11.528 1130.09 11.864C1129.72 12.2 1129.25 12.4613 1128.68 12.648C1128.12 12.8347 1127.47 12.928 1126.71 12.928H1125.11V17H1122.95V5.432H1126.71ZM1134.29 10.216C1134.54 9.72533 1134.85 9.34133 1135.2 9.064C1135.55 8.78133 1135.97 8.64 1136.45 8.64C1136.83 8.64 1137.13 8.72267 1137.36 8.888L1137.23 10.368C1137.2 10.464 1137.16 10.5333 1137.11 10.576C1137.06 10.6133 1137 10.632 1136.91 10.632C1136.83 10.632 1136.71 10.6187 1136.55 10.592C1136.4 10.5653 1136.24 10.552 1136.09 10.552C1135.88 10.552 1135.68 10.584 1135.51 10.648C1135.34 10.712 1135.19 10.8053 1135.05 10.928C1134.91 11.0453 1134.79 11.1893 1134.69 11.36C1134.59 11.5307 1134.49 11.7253 1134.4 11.944V17H1132.42V8.792H1133.58C1133.79 8.792 1133.93 8.82933 1134.01 8.904C1134.09 8.97333 1134.14 9.10133 1134.17 9.288L1134.29 10.216ZM1141.79 8.664C1142.4 8.664 1142.95 8.76267 1143.45 8.96C1143.95 9.15733 1144.37 9.43733 1144.73 9.8C1145.08 10.1627 1145.36 10.6053 1145.55 11.128C1145.74 11.6507 1145.84 12.2347 1145.84 12.88C1145.84 13.5307 1145.74 14.1173 1145.55 14.64C1145.36 15.1627 1145.08 15.608 1144.73 15.976C1144.37 16.344 1143.95 16.6267 1143.45 16.824C1142.95 17.0213 1142.4 17.12 1141.79 17.12C1141.18 17.12 1140.62 17.0213 1140.12 16.824C1139.62 16.6267 1139.19 16.344 1138.83 15.976C1138.48 15.608 1138.2 15.1627 1138.01 14.64C1137.81 14.1173 1137.72 13.5307 1137.72 12.88C1137.72 12.2347 1137.81 11.6507 1138.01 11.128C1138.2 10.6053 1138.48 10.1627 1138.83 9.8C1139.19 9.43733 1139.62 9.15733 1140.12 8.96C1140.62 8.76267 1141.18 8.664 1141.79 8.664ZM1141.79 15.6C1142.47 15.6 1142.98 15.3707 1143.3 14.912C1143.63 14.4533 1143.8 13.7813 1143.8 12.896C1143.8 12.0107 1143.63 11.336 1143.3 10.872C1142.98 10.408 1142.47 10.176 1141.79 10.176C1141.1 10.176 1140.58 10.4107 1140.25 10.88C1139.91 11.344 1139.75 12.016 1139.75 12.896C1139.75 13.776 1139.91 14.448 1140.25 14.912C1140.58 15.3707 1141.1 15.6 1141.79 15.6ZM1152.5 10.888C1152.27 10.616 1152.03 10.424 1151.76 10.312C1151.5 10.2 1151.22 10.144 1150.91 10.144C1150.61 10.144 1150.34 10.2 1150.1 10.312C1149.86 10.424 1149.66 10.5947 1149.49 10.824C1149.32 11.048 1149.19 11.336 1149.1 11.688C1149.01 12.0347 1148.96 12.4453 1148.96 12.92C1148.96 13.4 1149 13.808 1149.07 14.144C1149.15 14.4747 1149.26 14.7467 1149.41 14.96C1149.55 15.168 1149.73 15.32 1149.94 15.416C1150.14 15.5067 1150.38 15.552 1150.63 15.552C1151.04 15.552 1151.39 15.4667 1151.68 15.296C1151.97 15.1253 1152.24 14.8827 1152.5 14.568V10.888ZM1154.47 5.112V17H1153.26C1153 17 1152.84 16.88 1152.77 16.64L1152.6 15.848C1152.27 16.2267 1151.89 16.5333 1151.46 16.768C1151.03 17.0027 1150.53 17.12 1149.96 17.12C1149.51 17.12 1149.1 17.0267 1148.73 16.84C1148.36 16.6533 1148.03 16.384 1147.76 16.032C1147.49 15.6747 1147.29 15.2347 1147.14 14.712C1146.99 14.1893 1146.92 13.592 1146.92 12.92C1146.92 12.312 1147 11.7467 1147.17 11.224C1147.33 10.7013 1147.57 10.248 1147.88 9.864C1148.19 9.48 1148.56 9.18133 1148.99 8.968C1149.42 8.74933 1149.91 8.64 1150.45 8.64C1150.91 8.64 1151.3 8.712 1151.62 8.856C1151.95 9 1152.24 9.19467 1152.5 9.44V5.112H1154.47ZM1163.49 8.792V17H1162.29C1162.03 17 1161.86 16.88 1161.79 16.64L1161.65 15.984C1161.32 16.3253 1160.95 16.6027 1160.54 16.816C1160.14 17.024 1159.66 17.128 1159.11 17.128C1158.66 17.128 1158.27 17.0533 1157.92 16.904C1157.58 16.7493 1157.29 16.5333 1157.05 16.256C1156.82 15.9787 1156.64 15.6507 1156.52 15.272C1156.4 14.888 1156.34 14.4667 1156.34 14.008V8.792H1158.32V14.008C1158.32 14.5093 1158.43 14.8987 1158.66 15.176C1158.9 15.448 1159.25 15.584 1159.71 15.584C1160.05 15.584 1160.37 15.5093 1160.67 15.36C1160.97 15.2053 1161.25 14.9947 1161.52 14.728V8.792H1163.49ZM1171.33 10.528C1171.28 10.6027 1171.22 10.6613 1171.16 10.704C1171.1 10.7467 1171.02 10.768 1170.92 10.768C1170.82 10.768 1170.72 10.7387 1170.62 10.68C1170.53 10.616 1170.41 10.5467 1170.28 10.472C1170.14 10.392 1169.98 10.3227 1169.8 10.264C1169.62 10.2 1169.39 10.168 1169.12 10.168C1168.77 10.168 1168.47 10.232 1168.21 10.36C1167.94 10.4827 1167.73 10.6613 1167.55 10.896C1167.38 11.1307 1167.25 11.416 1167.17 11.752C1167.08 12.0827 1167.04 12.4587 1167.04 12.88C1167.04 13.3173 1167.08 13.7067 1167.17 14.048C1167.27 14.3893 1167.41 14.6773 1167.58 14.912C1167.76 15.1413 1167.97 15.3173 1168.22 15.44C1168.47 15.5573 1168.76 15.616 1169.07 15.616C1169.38 15.616 1169.64 15.5787 1169.83 15.504C1170.03 15.424 1170.19 15.3387 1170.33 15.248C1170.46 15.152 1170.57 15.0667 1170.67 14.992C1170.77 14.912 1170.88 14.872 1171.01 14.872C1171.17 14.872 1171.29 14.9333 1171.37 15.056L1171.93 15.776C1171.72 16.032 1171.48 16.248 1171.22 16.424C1170.97 16.5947 1170.7 16.7333 1170.42 16.84C1170.15 16.9413 1169.87 17.0133 1169.57 17.056C1169.29 17.0987 1169 17.12 1168.71 17.12C1168.2 17.12 1167.73 17.0267 1167.28 16.84C1166.83 16.648 1166.44 16.3707 1166.1 16.008C1165.77 15.6453 1165.5 15.2027 1165.3 14.68C1165.11 14.152 1165.01 13.552 1165.01 12.88C1165.01 12.2773 1165.1 11.72 1165.27 11.208C1165.45 10.6907 1165.7 10.2453 1166.04 9.872C1166.37 9.49333 1166.79 9.19733 1167.29 8.984C1167.78 8.77067 1168.35 8.664 1169 8.664C1169.61 8.664 1170.15 8.76267 1170.61 8.96C1171.07 9.15733 1171.49 9.44 1171.85 9.808L1171.33 10.528ZM1175.91 17.128C1175.19 17.128 1174.64 16.928 1174.26 16.528C1173.88 16.1227 1173.69 15.5653 1173.69 14.856V10.272H1172.85C1172.75 10.272 1172.66 10.2373 1172.58 10.168C1172.51 10.0987 1172.47 9.99467 1172.47 9.856V9.072L1173.79 8.856L1174.2 6.616C1174.23 6.50933 1174.28 6.42667 1174.36 6.368C1174.43 6.30933 1174.53 6.28 1174.64 6.28H1175.67V8.864H1177.86V10.272H1175.67V14.72C1175.67 14.976 1175.73 15.176 1175.85 15.32C1175.98 15.464 1176.15 15.536 1176.37 15.536C1176.5 15.536 1176.6 15.5227 1176.68 15.496C1176.76 15.464 1176.83 15.432 1176.89 15.4C1176.96 15.368 1177.01 15.3387 1177.06 15.312C1177.11 15.28 1177.16 15.264 1177.2 15.264C1177.26 15.264 1177.31 15.28 1177.35 15.312C1177.39 15.3387 1177.43 15.3813 1177.47 15.44L1178.06 16.4C1177.77 16.64 1177.44 16.8213 1177.07 16.944C1176.7 17.0667 1176.31 17.128 1175.91 17.128ZM1193.6 11.216C1193.6 12.064 1193.46 12.8427 1193.18 13.552C1192.89 14.2613 1192.5 14.872 1191.98 15.384C1191.47 15.896 1190.86 16.2933 1190.14 16.576C1189.42 16.8587 1188.62 17 1187.74 17H1183.33V5.432H1187.74C1188.62 5.432 1189.42 5.576 1190.14 5.864C1190.86 6.14667 1191.47 6.544 1191.98 7.056C1192.5 7.56267 1192.89 8.17067 1193.18 8.88C1193.46 9.58933 1193.6 10.368 1193.6 11.216ZM1191.39 11.216C1191.39 10.5813 1191.31 10.0133 1191.14 9.512C1190.97 9.00533 1190.73 8.57867 1190.41 8.232C1190.09 7.88 1189.71 7.61067 1189.26 7.424C1188.81 7.23733 1188.3 7.144 1187.74 7.144H1185.49V15.288H1187.74C1188.3 15.288 1188.81 15.1947 1189.26 15.008C1189.71 14.8213 1190.09 14.5547 1190.41 14.208C1190.73 13.856 1190.97 13.4293 1191.14 12.928C1191.31 12.4213 1191.39 11.8507 1191.39 11.216ZM1200.37 11.952C1200.37 11.696 1200.33 11.456 1200.26 11.232C1200.19 11.0027 1200.08 10.8027 1199.94 10.632C1199.79 10.4613 1199.61 10.328 1199.38 10.232C1199.16 10.1307 1198.91 10.08 1198.62 10.08C1198.04 10.08 1197.59 10.2427 1197.26 10.568C1196.94 10.8933 1196.73 11.3547 1196.64 11.952H1200.37ZM1196.6 13.144C1196.63 13.5653 1196.71 13.9307 1196.82 14.24C1196.94 14.544 1197.1 14.7973 1197.29 15C1197.48 15.1973 1197.71 15.3467 1197.97 15.448C1198.23 15.544 1198.53 15.592 1198.85 15.592C1199.17 15.592 1199.44 15.5547 1199.67 15.48C1199.91 15.4053 1200.11 15.3227 1200.28 15.232C1200.46 15.1413 1200.61 15.0587 1200.74 14.984C1200.87 14.9093 1201 14.872 1201.12 14.872C1201.28 14.872 1201.41 14.9333 1201.49 15.056L1202.06 15.776C1201.84 16.032 1201.59 16.248 1201.32 16.424C1201.05 16.5947 1200.76 16.7333 1200.46 16.84C1200.17 16.9413 1199.87 17.0133 1199.56 17.056C1199.26 17.0987 1198.96 17.12 1198.67 17.12C1198.1 17.12 1197.57 17.0267 1197.08 16.84C1196.59 16.648 1196.16 16.368 1195.8 16C1195.44 15.6267 1195.15 15.168 1194.94 14.624C1194.74 14.0747 1194.63 13.44 1194.63 12.72C1194.63 12.16 1194.72 11.6347 1194.9 11.144C1195.08 10.648 1195.34 10.2187 1195.68 9.856C1196.02 9.488 1196.43 9.19733 1196.92 8.984C1197.41 8.77067 1197.96 8.664 1198.58 8.664C1199.09 8.664 1199.57 8.74667 1200.01 8.912C1200.44 9.07733 1200.82 9.32 1201.14 9.64C1201.45 9.95467 1201.7 10.344 1201.87 10.808C1202.05 11.2667 1202.14 11.792 1202.14 12.384C1202.14 12.6827 1202.11 12.8853 1202.05 12.992C1201.98 13.0933 1201.86 13.144 1201.68 13.144H1196.6ZM1208.63 10.392C1208.58 10.4773 1208.52 10.5387 1208.47 10.576C1208.41 10.608 1208.33 10.624 1208.24 10.624C1208.15 10.624 1208.04 10.5973 1207.93 10.544C1207.82 10.4907 1207.7 10.432 1207.55 10.368C1207.41 10.2987 1207.24 10.2373 1207.06 10.184C1206.88 10.1307 1206.66 10.104 1206.41 10.104C1206.02 10.104 1205.71 10.1867 1205.49 10.352C1205.27 10.5173 1205.16 10.7333 1205.16 11C1205.16 11.176 1205.22 11.3253 1205.33 11.448C1205.45 11.5653 1205.6 11.6693 1205.79 11.76C1205.98 11.8507 1206.19 11.9333 1206.43 12.008C1206.67 12.0773 1206.92 12.1547 1207.16 12.24C1207.41 12.3253 1207.66 12.424 1207.9 12.536C1208.14 12.6427 1208.35 12.7813 1208.54 12.952C1208.73 13.1173 1208.88 13.3173 1208.99 13.552C1209.11 13.7867 1209.17 14.0693 1209.17 14.4C1209.17 14.7947 1209.1 15.16 1208.95 15.496C1208.82 15.8267 1208.61 16.1147 1208.33 16.36C1208.05 16.6 1207.71 16.7893 1207.3 16.928C1206.89 17.0613 1206.42 17.128 1205.89 17.128C1205.61 17.128 1205.33 17.1013 1205.06 17.048C1204.79 17 1204.53 16.9307 1204.28 16.84C1204.04 16.7493 1203.81 16.6427 1203.59 16.52C1203.39 16.3973 1203.2 16.264 1203.04 16.12L1203.5 15.368C1203.56 15.2773 1203.63 15.208 1203.71 15.16C1203.79 15.112 1203.89 15.088 1204.01 15.088C1204.13 15.088 1204.25 15.1227 1204.35 15.192C1204.47 15.2613 1204.59 15.336 1204.74 15.416C1204.88 15.496 1205.05 15.5707 1205.24 15.64C1205.44 15.7093 1205.69 15.744 1205.99 15.744C1206.22 15.744 1206.42 15.7173 1206.59 15.664C1206.76 15.6053 1206.9 15.5307 1207 15.44C1207.11 15.3493 1207.19 15.2453 1207.24 15.128C1207.3 15.0053 1207.32 14.88 1207.32 14.752C1207.32 14.56 1207.26 14.4027 1207.15 14.28C1207.03 14.1573 1206.88 14.0507 1206.69 13.96C1206.5 13.8693 1206.29 13.7893 1206.04 13.72C1205.8 13.6453 1205.55 13.5653 1205.3 13.48C1205.05 13.3947 1204.8 13.296 1204.55 13.184C1204.31 13.0667 1204.1 12.92 1203.91 12.744C1203.72 12.568 1203.57 12.352 1203.45 12.096C1203.34 11.84 1203.28 11.5307 1203.28 11.168C1203.28 10.832 1203.35 10.512 1203.48 10.208C1203.62 9.904 1203.81 9.64 1204.07 9.416C1204.33 9.18667 1204.65 9.00533 1205.03 8.872C1205.42 8.73333 1205.87 8.664 1206.38 8.664C1206.94 8.664 1207.46 8.75733 1207.92 8.944C1208.39 9.13067 1208.77 9.376 1209.08 9.68L1208.63 10.392ZM1212.71 8.792V17H1210.72V8.792H1212.71ZM1212.98 6.4C1212.98 6.57067 1212.94 6.73067 1212.87 6.88C1212.8 7.02933 1212.71 7.16 1212.59 7.272C1212.48 7.384 1212.35 7.47467 1212.19 7.544C1212.04 7.608 1211.87 7.64 1211.7 7.64C1211.53 7.64 1211.36 7.608 1211.21 7.544C1211.06 7.47467 1210.93 7.384 1210.82 7.272C1210.71 7.16 1210.61 7.02933 1210.55 6.88C1210.48 6.73067 1210.45 6.57067 1210.45 6.4C1210.45 6.224 1210.48 6.05867 1210.55 5.904C1210.61 5.74933 1210.71 5.616 1210.82 5.504C1210.93 5.392 1211.06 5.304 1211.21 5.24C1211.36 5.17067 1211.53 5.136 1211.7 5.136C1211.87 5.136 1212.04 5.17067 1212.19 5.24C1212.35 5.304 1212.48 5.392 1212.59 5.504C1212.71 5.616 1212.8 5.74933 1212.87 5.904C1212.94 6.05867 1212.98 6.224 1212.98 6.4ZM1217.72 12.696C1217.97 12.696 1218.18 12.664 1218.36 12.6C1218.54 12.5307 1218.69 12.4373 1218.81 12.32C1218.93 12.2027 1219.02 12.0613 1219.08 11.896C1219.14 11.7307 1219.18 11.5493 1219.18 11.352C1219.18 10.9467 1219.05 10.6267 1218.81 10.392C1218.57 10.152 1218.21 10.032 1217.72 10.032C1217.23 10.032 1216.87 10.152 1216.62 10.392C1216.38 10.6267 1216.26 10.9467 1216.26 11.352C1216.26 11.544 1216.29 11.7227 1216.35 11.888C1216.42 12.0533 1216.51 12.1973 1216.62 12.32C1216.75 12.4373 1216.9 12.5307 1217.08 12.6C1217.27 12.664 1217.48 12.696 1217.72 12.696ZM1219.95 17.368C1219.95 17.208 1219.9 17.0773 1219.81 16.976C1219.71 16.8747 1219.58 16.7973 1219.42 16.744C1219.25 16.6853 1219.06 16.6427 1218.83 16.616C1218.61 16.5893 1218.38 16.5707 1218.13 16.56C1217.88 16.544 1217.63 16.5307 1217.36 16.52C1217.1 16.5093 1216.84 16.488 1216.59 16.456C1216.37 16.5787 1216.19 16.7227 1216.06 16.888C1215.92 17.0533 1215.86 17.2453 1215.86 17.464C1215.86 17.608 1215.89 17.7413 1215.96 17.864C1216.03 17.992 1216.15 18.1013 1216.3 18.192C1216.46 18.2827 1216.67 18.352 1216.92 18.4C1217.17 18.4533 1217.48 18.48 1217.84 18.48C1218.21 18.48 1218.53 18.4507 1218.79 18.392C1219.06 18.3387 1219.28 18.2613 1219.45 18.16C1219.62 18.064 1219.75 17.9467 1219.83 17.808C1219.91 17.6747 1219.95 17.528 1219.95 17.368ZM1221.92 9.072V9.808C1221.92 10.0427 1221.78 10.1867 1221.5 10.24L1220.76 10.376C1220.87 10.6587 1220.93 10.968 1220.93 11.304C1220.93 11.7093 1220.85 12.0773 1220.68 12.408C1220.52 12.7333 1220.3 13.0107 1220.01 13.24C1219.72 13.4693 1219.38 13.648 1218.98 13.776C1218.59 13.8987 1218.17 13.96 1217.72 13.96C1217.56 13.96 1217.41 13.952 1217.26 13.936C1217.11 13.92 1216.96 13.8987 1216.82 13.872C1216.56 14.0267 1216.43 14.2 1216.43 14.392C1216.43 14.5573 1216.51 14.68 1216.66 14.76C1216.81 14.8347 1217.01 14.888 1217.26 14.92C1217.51 14.952 1217.8 14.9733 1218.12 14.984C1218.44 14.9893 1218.77 15.0053 1219.1 15.032C1219.44 15.0587 1219.77 15.1067 1220.09 15.176C1220.41 15.24 1220.69 15.344 1220.94 15.488C1221.19 15.632 1221.39 15.8293 1221.54 16.08C1221.7 16.3253 1221.78 16.6427 1221.78 17.032C1221.78 17.3947 1221.69 17.7467 1221.5 18.088C1221.33 18.4293 1221.07 18.7333 1220.73 19C1220.39 19.2667 1219.98 19.48 1219.48 19.64C1218.99 19.8053 1218.43 19.888 1217.8 19.888C1217.18 19.888 1216.64 19.8267 1216.18 19.704C1215.73 19.5867 1215.34 19.4267 1215.04 19.224C1214.74 19.0267 1214.51 18.7973 1214.36 18.536C1214.21 18.2747 1214.14 18.0027 1214.14 17.72C1214.14 17.336 1214.25 17.016 1214.48 16.76C1214.71 16.4987 1215.03 16.2907 1215.44 16.136C1215.22 16.024 1215.05 15.8747 1214.92 15.688C1214.79 15.5013 1214.73 15.256 1214.73 14.952C1214.73 14.8293 1214.75 14.704 1214.79 14.576C1214.84 14.4427 1214.91 14.312 1214.99 14.184C1215.08 14.056 1215.19 13.936 1215.33 13.824C1215.46 13.7067 1215.62 13.6027 1215.8 13.512C1215.38 13.288 1215.06 12.9893 1214.82 12.616C1214.58 12.2427 1214.46 11.8053 1214.46 11.304C1214.46 10.8987 1214.54 10.5333 1214.7 10.208C1214.87 9.87733 1215.1 9.59733 1215.38 9.368C1215.68 9.13333 1216.02 8.95467 1216.42 8.832C1216.82 8.70933 1217.25 8.648 1217.72 8.648C1218.07 8.648 1218.4 8.68533 1218.71 8.76C1219.02 8.82933 1219.3 8.93333 1219.56 9.072H1221.92ZM1225.02 9.8C1225.19 9.63467 1225.36 9.48267 1225.54 9.344C1225.73 9.2 1225.92 9.08 1226.12 8.984C1226.33 8.88267 1226.55 8.80533 1226.79 8.752C1227.02 8.69333 1227.28 8.664 1227.56 8.664C1228 8.664 1228.4 8.74133 1228.75 8.896C1229.1 9.04533 1229.38 9.25867 1229.61 9.536C1229.85 9.808 1230.02 10.136 1230.14 10.52C1230.26 10.8987 1230.32 11.3173 1230.32 11.776V17H1228.35V11.776C1228.35 11.2747 1228.23 10.888 1228 10.616C1227.78 10.3387 1227.43 10.2 1226.96 10.2C1226.62 10.2 1226.3 10.2773 1226 10.432C1225.7 10.5867 1225.42 10.7973 1225.15 11.064V17H1223.17V8.792H1224.38C1224.64 8.792 1224.8 8.912 1224.88 9.152L1225.02 9.8ZM1237.49 11.952C1237.49 11.696 1237.45 11.456 1237.38 11.232C1237.31 11.0027 1237.2 10.8027 1237.06 10.632C1236.92 10.4613 1236.73 10.328 1236.51 10.232C1236.29 10.1307 1236.03 10.08 1235.74 10.08C1235.17 10.08 1234.72 10.2427 1234.39 10.568C1234.06 10.8933 1233.85 11.3547 1233.76 11.952H1237.49ZM1233.72 13.144C1233.76 13.5653 1233.83 13.9307 1233.95 14.24C1234.07 14.544 1234.22 14.7973 1234.41 15C1234.6 15.1973 1234.83 15.3467 1235.09 15.448C1235.36 15.544 1235.65 15.592 1235.97 15.592C1236.29 15.592 1236.57 15.5547 1236.8 15.48C1237.03 15.4053 1237.23 15.3227 1237.4 15.232C1237.58 15.1413 1237.73 15.0587 1237.86 14.984C1237.99 14.9093 1238.12 14.872 1238.24 14.872C1238.41 14.872 1238.53 14.9333 1238.61 15.056L1239.18 15.776C1238.96 16.032 1238.72 16.248 1238.44 16.424C1238.17 16.5947 1237.89 16.7333 1237.59 16.84C1237.29 16.9413 1236.99 17.0133 1236.68 17.056C1236.38 17.0987 1236.08 17.12 1235.8 17.12C1235.23 17.12 1234.69 17.0267 1234.2 16.84C1233.71 16.648 1233.29 16.368 1232.92 16C1232.56 15.6267 1232.28 15.168 1232.07 14.624C1231.86 14.0747 1231.76 13.44 1231.76 12.72C1231.76 12.16 1231.85 11.6347 1232.03 11.144C1232.21 10.648 1232.47 10.2187 1232.8 9.856C1233.15 9.488 1233.56 9.19733 1234.04 8.984C1234.53 8.77067 1235.09 8.664 1235.7 8.664C1236.22 8.664 1236.69 8.74667 1237.13 8.912C1237.57 9.07733 1237.95 9.32 1238.26 9.64C1238.57 9.95467 1238.82 10.344 1239 10.808C1239.18 11.2667 1239.27 11.792 1239.27 12.384C1239.27 12.6827 1239.24 12.8853 1239.17 12.992C1239.11 13.0933 1238.99 13.144 1238.8 13.144H1233.72ZM1242.61 10.216C1242.87 9.72533 1243.17 9.34133 1243.53 9.064C1243.88 8.78133 1244.29 8.64 1244.77 8.64C1245.15 8.64 1245.46 8.72267 1245.69 8.888L1245.56 10.368C1245.53 10.464 1245.49 10.5333 1245.44 10.576C1245.39 10.6133 1245.32 10.632 1245.24 10.632C1245.16 10.632 1245.04 10.6187 1244.88 10.592C1244.72 10.5653 1244.57 10.552 1244.42 10.552C1244.2 10.552 1244.01 10.584 1243.84 10.648C1243.67 10.712 1243.51 10.8053 1243.37 10.928C1243.24 11.0453 1243.12 11.1893 1243.01 11.36C1242.91 11.5307 1242.82 11.7253 1242.73 11.944V17H1240.75V8.792H1241.91C1242.11 8.792 1242.25 8.82933 1242.33 8.904C1242.41 8.97333 1242.47 9.10133 1242.49 9.288L1242.61 10.216Z" fill="black"/>
<path d="M665.537 13.272C665.654 13.272 665.758 13.3173 665.849 13.408L666.697 14.328C666.227 14.9093 665.649 15.3547 664.961 15.664C664.278 15.9733 663.457 16.128 662.497 16.128C661.638 16.128 660.865 15.9813 660.177 15.688C659.494 15.3947 658.91 14.9867 658.425 14.464C657.939 13.9413 657.566 13.3173 657.305 12.592C657.049 11.8667 656.921 11.0747 656.921 10.216C656.921 9.34667 657.059 8.552 657.337 7.832C657.614 7.10667 658.003 6.48267 658.505 5.96C659.011 5.43733 659.614 5.032 660.313 4.744C661.011 4.45067 661.785 4.304 662.633 4.304C663.475 4.304 664.222 4.44267 664.873 4.72C665.529 4.99733 666.086 5.36 666.545 5.808L665.825 6.808C665.782 6.872 665.726 6.928 665.657 6.976C665.593 7.024 665.502 7.048 665.385 7.048C665.305 7.048 665.222 7.02667 665.137 6.984C665.051 6.936 664.958 6.88 664.857 6.816C664.755 6.74667 664.638 6.672 664.505 6.592C664.371 6.512 664.217 6.44 664.041 6.376C663.865 6.30667 663.659 6.25067 663.425 6.208C663.195 6.16 662.929 6.136 662.625 6.136C662.107 6.136 661.633 6.22933 661.201 6.416C660.774 6.59733 660.406 6.864 660.097 7.216C659.787 7.56267 659.547 7.98933 659.377 8.496C659.206 8.99733 659.121 9.57067 659.121 10.216C659.121 10.8667 659.211 11.4453 659.393 11.952C659.579 12.4587 659.83 12.8853 660.145 13.232C660.459 13.5787 660.83 13.8453 661.257 14.032C661.683 14.2133 662.142 14.304 662.633 14.304C662.926 14.304 663.19 14.288 663.425 14.256C663.665 14.224 663.883 14.1733 664.081 14.104C664.283 14.0347 664.473 13.9467 664.649 13.84C664.83 13.728 665.009 13.592 665.185 13.432C665.238 13.384 665.294 13.3467 665.353 13.32C665.411 13.288 665.473 13.272 665.537 13.272ZM671.319 7.664C671.927 7.664 672.479 7.76267 672.975 7.96C673.476 8.15733 673.903 8.43733 674.255 8.8C674.612 9.16267 674.887 9.60533 675.079 10.128C675.271 10.6507 675.367 11.2347 675.367 11.88C675.367 12.5307 675.271 13.1173 675.079 13.64C674.887 14.1627 674.612 14.608 674.255 14.976C673.903 15.344 673.476 15.6267 672.975 15.824C672.479 16.0213 671.927 16.12 671.319 16.12C670.706 16.12 670.148 16.0213 669.647 15.824C669.146 15.6267 668.716 15.344 668.359 14.976C668.007 14.608 667.732 14.1627 667.535 13.64C667.343 13.1173 667.247 12.5307 667.247 11.88C667.247 11.2347 667.343 10.6507 667.535 10.128C667.732 9.60533 668.007 9.16267 668.359 8.8C668.716 8.43733 669.146 8.15733 669.647 7.96C670.148 7.76267 670.706 7.664 671.319 7.664ZM671.319 14.6C672.002 14.6 672.506 14.3707 672.831 13.912C673.162 13.4533 673.327 12.7813 673.327 11.896C673.327 11.0107 673.162 10.336 672.831 9.872C672.506 9.408 672.002 9.176 671.319 9.176C670.626 9.176 670.111 9.41067 669.775 9.88C669.444 10.344 669.279 11.016 669.279 11.896C669.279 12.776 669.444 13.448 669.775 13.912C670.111 14.3707 670.626 14.6 671.319 14.6ZM678.722 8.8C678.888 8.63467 679.061 8.48267 679.242 8.344C679.429 8.2 679.624 8.08 679.826 7.984C680.034 7.88267 680.256 7.80533 680.49 7.752C680.725 7.69333 680.981 7.664 681.258 7.664C681.706 7.664 682.104 7.74133 682.45 7.896C682.797 8.04533 683.085 8.25867 683.314 8.536C683.549 8.808 683.725 9.136 683.842 9.52C683.965 9.89867 684.026 10.3173 684.026 10.776V16H682.05V10.776C682.05 10.2747 681.936 9.888 681.706 9.616C681.477 9.33867 681.128 9.2 680.658 9.2C680.317 9.2 679.997 9.27733 679.698 9.432C679.4 9.58667 679.117 9.79733 678.85 10.064V16H676.874V7.792H678.082C678.338 7.792 678.506 7.912 678.586 8.152L678.722 8.8ZM690.914 9.392C690.86 9.47733 690.804 9.53867 690.746 9.576C690.687 9.608 690.612 9.624 690.522 9.624C690.426 9.624 690.322 9.59733 690.21 9.544C690.103 9.49067 689.978 9.432 689.834 9.368C689.69 9.29867 689.524 9.23733 689.338 9.184C689.156 9.13067 688.94 9.104 688.69 9.104C688.3 9.104 687.994 9.18667 687.77 9.352C687.551 9.51733 687.442 9.73333 687.442 10C687.442 10.176 687.498 10.3253 687.61 10.448C687.727 10.5653 687.879 10.6693 688.066 10.76C688.258 10.8507 688.474 10.9333 688.714 11.008C688.954 11.0773 689.196 11.1547 689.442 11.24C689.692 11.3253 689.938 11.424 690.178 11.536C690.418 11.6427 690.631 11.7813 690.818 11.952C691.01 12.1173 691.162 12.3173 691.274 12.552C691.391 12.7867 691.45 13.0693 691.45 13.4C691.45 13.7947 691.378 14.16 691.234 14.496C691.095 14.8267 690.887 15.1147 690.61 15.36C690.332 15.6 689.988 15.7893 689.578 15.928C689.172 16.0613 688.703 16.128 688.17 16.128C687.887 16.128 687.61 16.1013 687.338 16.048C687.071 16 686.812 15.9307 686.562 15.84C686.316 15.7493 686.087 15.6427 685.874 15.52C685.666 15.3973 685.482 15.264 685.322 15.12L685.778 14.368C685.836 14.2773 685.906 14.208 685.986 14.16C686.066 14.112 686.167 14.088 686.29 14.088C686.412 14.088 686.527 14.1227 686.634 14.192C686.746 14.2613 686.874 14.336 687.018 14.416C687.162 14.496 687.33 14.5707 687.522 14.64C687.719 14.7093 687.967 14.744 688.266 14.744C688.5 14.744 688.7 14.7173 688.866 14.664C689.036 14.6053 689.175 14.5307 689.282 14.44C689.394 14.3493 689.474 14.2453 689.522 14.128C689.575 14.0053 689.602 13.88 689.602 13.752C689.602 13.56 689.543 13.4027 689.426 13.28C689.314 13.1573 689.162 13.0507 688.97 12.96C688.783 12.8693 688.567 12.7893 688.322 12.72C688.082 12.6453 687.834 12.5653 687.578 12.48C687.327 12.3947 687.079 12.296 686.834 12.184C686.594 12.0667 686.378 11.92 686.186 11.744C685.999 11.568 685.847 11.352 685.73 11.096C685.618 10.84 685.562 10.5307 685.562 10.168C685.562 9.832 685.628 9.512 685.762 9.208C685.895 8.904 686.09 8.64 686.346 8.416C686.607 8.18667 686.93 8.00533 687.314 7.872C687.703 7.73333 688.151 7.664 688.658 7.664C689.223 7.664 689.738 7.75733 690.202 7.944C690.666 8.13067 691.052 8.376 691.362 8.68L690.914 9.392ZM700.009 7.792V16H698.801C698.54 16 698.374 15.88 698.305 15.64L698.169 14.984C697.833 15.3253 697.462 15.6027 697.057 15.816C696.652 16.024 696.174 16.128 695.625 16.128C695.177 16.128 694.78 16.0533 694.433 15.904C694.092 15.7493 693.804 15.5333 693.569 15.256C693.334 14.9787 693.156 14.6507 693.033 14.272C692.916 13.888 692.857 13.4667 692.857 13.008V7.792H694.833V13.008C694.833 13.5093 694.948 13.8987 695.177 14.176C695.412 14.448 695.761 14.584 696.225 14.584C696.566 14.584 696.886 14.5093 697.185 14.36C697.484 14.2053 697.766 13.9947 698.033 13.728V7.792H700.009ZM703.968 4.112V16H701.992V4.112H703.968ZM708.673 16.128C707.958 16.128 707.409 15.928 707.025 15.528C706.646 15.1227 706.457 14.5653 706.457 13.856V9.272H705.617C705.51 9.272 705.42 9.23733 705.345 9.168C705.27 9.09867 705.233 8.99467 705.233 8.856V8.072L706.553 7.856L706.969 5.616C706.996 5.50933 707.046 5.42667 707.121 5.368C707.196 5.30933 707.292 5.28 707.409 5.28H708.433V7.864H710.625V9.272H708.433V13.72C708.433 13.976 708.494 14.176 708.617 14.32C708.745 14.464 708.918 14.536 709.137 14.536C709.26 14.536 709.361 14.5227 709.441 14.496C709.526 14.464 709.598 14.432 709.657 14.4C709.721 14.368 709.777 14.3387 709.825 14.312C709.873 14.28 709.921 14.264 709.969 14.264C710.028 14.264 710.076 14.28 710.113 14.312C710.15 14.3387 710.19 14.3813 710.233 14.44L710.825 15.4C710.537 15.64 710.206 15.8213 709.833 15.944C709.46 16.0667 709.073 16.128 708.673 16.128ZM716.226 12.496C715.655 12.5227 715.175 12.5733 714.786 12.648C714.397 12.7173 714.085 12.808 713.85 12.92C713.615 13.032 713.447 13.1627 713.346 13.312C713.245 13.4613 713.194 13.624 713.194 13.8C713.194 14.1467 713.295 14.3947 713.498 14.544C713.706 14.6933 713.975 14.768 714.306 14.768C714.711 14.768 715.061 14.696 715.354 14.552C715.653 14.4027 715.943 14.1787 716.226 13.88V12.496ZM711.698 8.936C712.642 8.072 713.778 7.64 715.106 7.64C715.586 7.64 716.015 7.72 716.394 7.88C716.773 8.03467 717.093 8.25333 717.354 8.536C717.615 8.81333 717.813 9.14667 717.946 9.536C718.085 9.92533 718.154 10.352 718.154 10.816V16H717.258C717.071 16 716.927 15.9733 716.826 15.92C716.725 15.8613 716.645 15.7467 716.586 15.576L716.41 14.984C716.202 15.1707 715.999 15.336 715.802 15.48C715.605 15.6187 715.399 15.736 715.186 15.832C714.973 15.928 714.743 16 714.498 16.048C714.258 16.1013 713.991 16.128 713.698 16.128C713.351 16.128 713.031 16.0827 712.738 15.992C712.445 15.896 712.191 15.7547 711.978 15.568C711.765 15.3813 711.599 15.1493 711.482 14.872C711.365 14.5947 711.306 14.272 711.306 13.904C711.306 13.696 711.341 13.4907 711.41 13.288C711.479 13.08 711.591 12.8827 711.746 12.696C711.906 12.5093 712.111 12.3333 712.362 12.168C712.613 12.0027 712.919 11.8587 713.282 11.736C713.65 11.6133 714.077 11.5147 714.562 11.44C715.047 11.36 715.602 11.312 716.226 11.296V10.816C716.226 10.2667 716.109 9.86133 715.874 9.6C715.639 9.33333 715.301 9.2 714.858 9.2C714.538 9.2 714.271 9.23733 714.058 9.312C713.85 9.38667 713.666 9.472 713.506 9.568C713.346 9.65867 713.199 9.74133 713.066 9.816C712.938 9.89067 712.794 9.928 712.634 9.928C712.495 9.928 712.378 9.89333 712.282 9.824C712.186 9.74933 712.109 9.664 712.05 9.568L711.698 8.936ZM721.863 8.8C722.028 8.63467 722.202 8.48267 722.383 8.344C722.57 8.2 722.764 8.08 722.967 7.984C723.175 7.88267 723.396 7.80533 723.631 7.752C723.866 7.69333 724.122 7.664 724.399 7.664C724.847 7.664 725.244 7.74133 725.591 7.896C725.938 8.04533 726.226 8.25867 726.455 8.536C726.69 8.808 726.866 9.136 726.983 9.52C727.106 9.89867 727.167 10.3173 727.167 10.776V16H725.191V10.776C725.191 10.2747 725.076 9.888 724.847 9.616C724.618 9.33867 724.268 9.2 723.799 9.2C723.458 9.2 723.138 9.27733 722.839 9.432C722.54 9.58667 722.258 9.79733 721.991 10.064V16H720.015V7.792H721.223C721.479 7.792 721.647 7.912 721.727 8.152L721.863 8.8ZM731.673 16.128C730.958 16.128 730.409 15.928 730.025 15.528C729.646 15.1227 729.457 14.5653 729.457 13.856V9.272H728.617C728.51 9.272 728.42 9.23733 728.345 9.168C728.27 9.09867 728.233 8.99467 728.233 8.856V8.072L729.553 7.856L729.969 5.616C729.996 5.50933 730.046 5.42667 730.121 5.368C730.196 5.30933 730.292 5.28 730.409 5.28H731.433V7.864H733.625V9.272H731.433V13.72C731.433 13.976 731.494 14.176 731.617 14.32C731.745 14.464 731.918 14.536 732.137 14.536C732.26 14.536 732.361 14.5227 732.441 14.496C732.526 14.464 732.598 14.432 732.657 14.4C732.721 14.368 732.777 14.3387 732.825 14.312C732.873 14.28 732.921 14.264 732.969 14.264C733.028 14.264 733.076 14.28 733.113 14.312C733.15 14.3387 733.19 14.3813 733.233 14.44L733.825 15.4C733.537 15.64 733.206 15.8213 732.833 15.944C732.46 16.0667 732.073 16.128 731.673 16.128ZM740.757 13.872C740.981 14.144 741.223 14.336 741.485 14.448C741.751 14.56 742.039 14.616 742.349 14.616C742.647 14.616 742.917 14.56 743.157 14.448C743.397 14.336 743.599 14.1653 743.765 13.936C743.935 13.7067 744.066 13.4187 744.157 13.072C744.247 12.72 744.293 12.3067 744.293 11.832C744.293 11.352 744.253 10.9467 744.173 10.616C744.098 10.28 743.989 10.008 743.845 9.8C743.701 9.592 743.525 9.44 743.317 9.344C743.114 9.248 742.882 9.2 742.621 9.2C742.21 9.2 741.861 9.288 741.573 9.464C741.285 9.63467 741.013 9.87733 740.757 10.192V13.872ZM740.653 8.912C740.989 8.53333 741.37 8.22667 741.797 7.992C742.223 7.75733 742.725 7.64 743.301 7.64C743.749 7.64 744.157 7.73333 744.525 7.92C744.898 8.10667 745.218 8.37867 745.485 8.736C745.757 9.088 745.965 9.52533 746.109 10.048C746.258 10.5653 746.333 11.16 746.333 11.832C746.333 12.4453 746.25 13.0133 746.085 13.536C745.919 14.0587 745.682 14.512 745.373 14.896C745.069 15.28 744.698 15.5813 744.261 15.8C743.829 16.0133 743.343 16.12 742.805 16.12C742.346 16.12 741.954 16.0507 741.629 15.912C741.303 15.768 741.013 15.5707 740.757 15.32V18.68H738.781V7.792H739.989C740.245 7.792 740.413 7.912 740.493 8.152L740.653 8.912ZM751.506 7.664C752.114 7.664 752.666 7.76267 753.162 7.96C753.664 8.15733 754.09 8.43733 754.442 8.8C754.8 9.16267 755.074 9.60533 755.266 10.128C755.458 10.6507 755.554 11.2347 755.554 11.88C755.554 12.5307 755.458 13.1173 755.266 13.64C755.074 14.1627 754.8 14.608 754.442 14.976C754.09 15.344 753.664 15.6267 753.162 15.824C752.666 16.0213 752.114 16.12 751.506 16.12C750.893 16.12 750.336 16.0213 749.834 15.824C749.333 15.6267 748.904 15.344 748.546 14.976C748.194 14.608 747.92 14.1627 747.722 13.64C747.53 13.1173 747.434 12.5307 747.434 11.88C747.434 11.2347 747.53 10.6507 747.722 10.128C747.92 9.60533 748.194 9.16267 748.546 8.8C748.904 8.43733 749.333 8.15733 749.834 7.96C750.336 7.76267 750.893 7.664 751.506 7.664ZM751.506 14.6C752.189 14.6 752.693 14.3707 753.018 13.912C753.349 13.4533 753.514 12.7813 753.514 11.896C753.514 11.0107 753.349 10.336 753.018 9.872C752.693 9.408 752.189 9.176 751.506 9.176C750.813 9.176 750.298 9.41067 749.962 9.88C749.632 10.344 749.466 11.016 749.466 11.896C749.466 12.776 749.632 13.448 749.962 13.912C750.298 14.3707 750.813 14.6 751.506 14.6ZM762.07 9.392C762.017 9.47733 761.961 9.53867 761.902 9.576C761.843 9.608 761.769 9.624 761.678 9.624C761.582 9.624 761.478 9.59733 761.366 9.544C761.259 9.49067 761.134 9.432 760.99 9.368C760.846 9.29867 760.681 9.23733 760.494 9.184C760.313 9.13067 760.097 9.104 759.846 9.104C759.457 9.104 759.15 9.18667 758.926 9.352C758.707 9.51733 758.598 9.73333 758.598 10C758.598 10.176 758.654 10.3253 758.766 10.448C758.883 10.5653 759.035 10.6693 759.222 10.76C759.414 10.8507 759.63 10.9333 759.87 11.008C760.11 11.0773 760.353 11.1547 760.598 11.24C760.849 11.3253 761.094 11.424 761.334 11.536C761.574 11.6427 761.787 11.7813 761.974 11.952C762.166 12.1173 762.318 12.3173 762.43 12.552C762.547 12.7867 762.606 13.0693 762.606 13.4C762.606 13.7947 762.534 14.16 762.39 14.496C762.251 14.8267 762.043 15.1147 761.766 15.36C761.489 15.6 761.145 15.7893 760.734 15.928C760.329 16.0613 759.859 16.128 759.326 16.128C759.043 16.128 758.766 16.1013 758.494 16.048C758.227 16 757.969 15.9307 757.718 15.84C757.473 15.7493 757.243 15.6427 757.03 15.52C756.822 15.3973 756.638 15.264 756.478 15.12L756.934 14.368C756.993 14.2773 757.062 14.208 757.142 14.16C757.222 14.112 757.323 14.088 757.446 14.088C757.569 14.088 757.683 14.1227 757.79 14.192C757.902 14.2613 758.03 14.336 758.174 14.416C758.318 14.496 758.486 14.5707 758.678 14.64C758.875 14.7093 759.123 14.744 759.422 14.744C759.657 14.744 759.857 14.7173 760.022 14.664C760.193 14.6053 760.331 14.5307 760.438 14.44C760.55 14.3493 760.63 14.2453 760.678 14.128C760.731 14.0053 760.758 13.88 760.758 13.752C760.758 13.56 760.699 13.4027 760.582 13.28C760.47 13.1573 760.318 13.0507 760.126 12.96C759.939 12.8693 759.723 12.7893 759.478 12.72C759.238 12.6453 758.99 12.5653 758.734 12.48C758.483 12.3947 758.235 12.296 757.99 12.184C757.75 12.0667 757.534 11.92 757.342 11.744C757.155 11.568 757.003 11.352 756.886 11.096C756.774 10.84 756.718 10.5307 756.718 10.168C756.718 9.832 756.785 9.512 756.918 9.208C757.051 8.904 757.246 8.64 757.502 8.416C757.763 8.18667 758.086 8.00533 758.47 7.872C758.859 7.73333 759.307 7.664 759.814 7.664C760.379 7.664 760.894 7.75733 761.358 7.944C761.822 8.13067 762.209 8.376 762.518 8.68L762.07 9.392ZM766.141 7.792V16H764.157V7.792H766.141ZM766.413 5.4C766.413 5.57067 766.379 5.73067 766.309 5.88C766.24 6.02933 766.147 6.16 766.029 6.272C765.917 6.384 765.784 6.47467 765.629 6.544C765.475 6.608 765.309 6.64 765.133 6.64C764.963 6.64 764.8 6.608 764.645 6.544C764.496 6.47467 764.365 6.384 764.253 6.272C764.141 6.16 764.051 6.02933 763.981 5.88C763.917 5.73067 763.885 5.57067 763.885 5.4C763.885 5.224 763.917 5.05867 763.981 4.904C764.051 4.74933 764.141 4.616 764.253 4.504C764.365 4.392 764.496 4.304 764.645 4.24C764.8 4.17067 764.963 4.136 765.133 4.136C765.309 4.136 765.475 4.17067 765.629 4.24C765.784 4.304 765.917 4.392 766.029 4.504C766.147 4.616 766.24 4.74933 766.309 4.904C766.379 5.05867 766.413 5.224 766.413 5.4ZM776.436 16H774.46V9.272H770.652V13.72C770.652 13.976 770.713 14.176 770.836 14.32C770.964 14.464 771.137 14.536 771.356 14.536C771.478 14.536 771.58 14.5227 771.66 14.496C771.745 14.464 771.817 14.432 771.876 14.4C771.94 14.368 771.996 14.3387 772.044 14.312C772.092 14.28 772.14 14.264 772.188 14.264C772.246 14.264 772.294 14.28 772.332 14.312C772.369 14.3387 772.409 14.3813 772.452 14.44L773.044 15.4C772.756 15.64 772.425 15.8213 772.052 15.944C771.678 16.0667 771.292 16.128 770.892 16.128C770.177 16.128 769.628 15.928 769.244 15.528C768.865 15.1227 768.676 14.5653 768.676 13.856V9.272H767.836C767.729 9.272 767.638 9.23733 767.564 9.168C767.489 9.09867 767.452 8.99467 767.452 8.856V8.072L768.772 7.848L769.188 5.616C769.214 5.50933 769.265 5.42667 769.34 5.368C769.414 5.30933 769.51 5.28 769.628 5.28H770.652V7.864H776.436V16ZM776.78 5.368C776.78 5.53867 776.745 5.70133 776.676 5.856C776.606 6.00533 776.513 6.136 776.396 6.248C776.284 6.36 776.148 6.45067 775.988 6.52C775.833 6.584 775.668 6.616 775.492 6.616C775.321 6.616 775.161 6.584 775.012 6.52C774.862 6.45067 774.732 6.36 774.62 6.248C774.508 6.136 774.417 6.00533 774.348 5.856C774.284 5.70133 774.252 5.53867 774.252 5.368C774.252 5.192 774.284 5.02933 774.348 4.88C774.417 4.72533 774.508 4.592 774.62 4.48C774.732 4.36267 774.862 4.272 775.012 4.208C775.161 4.13867 775.321 4.104 775.492 4.104C775.668 4.104 775.833 4.13867 775.988 4.208C776.148 4.272 776.284 4.36267 776.396 4.48C776.513 4.592 776.606 4.72533 776.676 4.88C776.745 5.02933 776.78 5.192 776.78 5.368ZM782.085 7.664C782.693 7.664 783.245 7.76267 783.741 7.96C784.242 8.15733 784.669 8.43733 785.021 8.8C785.378 9.16267 785.653 9.60533 785.845 10.128C786.037 10.6507 786.133 11.2347 786.133 11.88C786.133 12.5307 786.037 13.1173 785.845 13.64C785.653 14.1627 785.378 14.608 785.021 14.976C784.669 15.344 784.242 15.6267 783.741 15.824C783.245 16.0213 782.693 16.12 782.085 16.12C781.471 16.12 780.914 16.0213 780.413 15.824C779.911 15.6267 779.482 15.344 779.125 14.976C778.773 14.608 778.498 14.1627 778.301 13.64C778.109 13.1173 778.013 12.5307 778.013 11.88C778.013 11.2347 778.109 10.6507 778.301 10.128C778.498 9.60533 778.773 9.16267 779.125 8.8C779.482 8.43733 779.911 8.15733 780.413 7.96C780.914 7.76267 781.471 7.664 782.085 7.664ZM782.085 14.6C782.767 14.6 783.271 14.3707 783.597 13.912C783.927 13.4533 784.093 12.7813 784.093 11.896C784.093 11.0107 783.927 10.336 783.597 9.872C783.271 9.408 782.767 9.176 782.085 9.176C781.391 9.176 780.877 9.41067 780.541 9.88C780.21 10.344 780.045 11.016 780.045 11.896C780.045 12.776 780.21 13.448 780.541 13.912C780.877 14.3707 781.391 14.6 782.085 14.6ZM789.488 8.8C789.653 8.63467 789.827 8.48267 790.008 8.344C790.195 8.2 790.389 8.08 790.592 7.984C790.8 7.88267 791.021 7.80533 791.256 7.752C791.491 7.69333 791.747 7.664 792.024 7.664C792.472 7.664 792.869 7.74133 793.216 7.896C793.563 8.04533 793.851 8.25867 794.08 8.536C794.315 8.808 794.491 9.136 794.608 9.52C794.731 9.89867 794.792 10.3173 794.792 10.776V16H792.816V10.776C792.816 10.2747 792.701 9.888 792.472 9.616C792.243 9.33867 791.893 9.2 791.424 9.2C791.083 9.2 790.763 9.27733 790.464 9.432C790.165 9.58667 789.883 9.79733 789.616 10.064V16H787.64V7.792H788.848C789.104 7.792 789.272 7.912 789.352 8.152L789.488 8.8Z" fill="black"/>
<path d="M51.1743 134.32C51.5743 134.32 51.9103 134.272 52.1824 134.176C52.4544 134.08 52.6704 133.952 52.8303 133.792C52.9957 133.632 53.113 133.445 53.1824 133.232C53.257 133.019 53.2944 132.792 53.2944 132.552C53.2944 132.301 53.2544 132.077 53.1743 131.88C53.0943 131.677 52.969 131.507 52.7983 131.368C52.6277 131.224 52.4063 131.115 52.1343 131.04C51.8677 130.965 51.545 130.928 51.1663 130.928H48.9983V134.32H51.1743ZM48.9983 126.096V129.44H50.7104C51.4464 129.44 52.001 129.307 52.3744 129.04C52.753 128.773 52.9423 128.349 52.9423 127.768C52.9423 127.165 52.7717 126.736 52.4303 126.48C52.089 126.224 51.5557 126.096 50.8303 126.096H48.9983ZM50.8303 124.432C51.5877 124.432 52.2357 124.504 52.7744 124.648C53.313 124.792 53.753 124.997 54.0943 125.264C54.441 125.531 54.6944 125.853 54.8544 126.232C55.0143 126.611 55.0943 127.037 55.0943 127.512C55.0943 127.784 55.0543 128.045 54.9743 128.296C54.8944 128.541 54.769 128.773 54.5983 128.992C54.433 129.205 54.2197 129.4 53.9584 129.576C53.7024 129.752 53.3957 129.901 53.0384 130.024C54.6277 130.381 55.4223 131.24 55.4223 132.6C55.4223 133.091 55.329 133.544 55.1424 133.96C54.9557 134.376 54.6837 134.736 54.3264 135.04C53.969 135.339 53.529 135.573 53.0064 135.744C52.4837 135.915 51.8863 136 51.2143 136H46.8463V124.432H50.8303ZM63.997 127.792V136H62.789C62.5276 136 62.3623 135.88 62.293 135.64L62.157 134.984C61.821 135.325 61.4503 135.603 61.045 135.816C60.6396 136.024 60.1623 136.128 59.613 136.128C59.165 136.128 58.7676 136.053 58.421 135.904C58.0796 135.749 57.7916 135.533 57.557 135.256C57.3223 134.979 57.1436 134.651 57.021 134.272C56.9036 133.888 56.845 133.467 56.845 133.008V127.792H58.821V133.008C58.821 133.509 58.9356 133.899 59.165 134.176C59.3996 134.448 59.749 134.584 60.213 134.584C60.5543 134.584 60.8743 134.509 61.173 134.36C61.4716 134.205 61.7543 133.995 62.021 133.728V127.792H63.997ZM70.9642 129.392C70.9109 129.477 70.8549 129.539 70.7962 129.576C70.7376 129.608 70.6629 129.624 70.5722 129.624C70.4762 129.624 70.3722 129.597 70.2602 129.544C70.1536 129.491 70.0282 129.432 69.8842 129.368C69.7402 129.299 69.5749 129.237 69.3882 129.184C69.2069 129.131 68.9909 129.104 68.7402 129.104C68.3509 129.104 68.0442 129.187 67.8202 129.352C67.6016 129.517 67.4922 129.733 67.4922 130C67.4922 130.176 67.5482 130.325 67.6602 130.448C67.7776 130.565 67.9296 130.669 68.1162 130.76C68.3082 130.851 68.5242 130.933 68.7642 131.008C69.0042 131.077 69.2469 131.155 69.4922 131.24C69.7429 131.325 69.9882 131.424 70.2282 131.536C70.4682 131.643 70.6816 131.781 70.8682 131.952C71.0602 132.117 71.2122 132.317 71.3242 132.552C71.4416 132.787 71.5002 133.069 71.5002 133.4C71.5002 133.795 71.4282 134.16 71.2842 134.496C71.1456 134.827 70.9376 135.115 70.6602 135.36C70.3829 135.6 70.0389 135.789 69.6282 135.928C69.2229 136.061 68.7536 136.128 68.2202 136.128C67.9376 136.128 67.6602 136.101 67.3882 136.048C67.1216 136 66.8629 135.931 66.6122 135.84C66.3669 135.749 66.1376 135.643 65.9242 135.52C65.7162 135.397 65.5322 135.264 65.3722 135.12L65.8282 134.368C65.8869 134.277 65.9562 134.208 66.0362 134.16C66.1162 134.112 66.2176 134.088 66.3402 134.088C66.4629 134.088 66.5776 134.123 66.6842 134.192C66.7962 134.261 66.9242 134.336 67.0682 134.416C67.2122 134.496 67.3802 134.571 67.5722 134.64C67.7696 134.709 68.0176 134.744 68.3162 134.744C68.5509 134.744 68.7509 134.717 68.9162 134.664C69.0869 134.605 69.2256 134.531 69.3322 134.44C69.4442 134.349 69.5242 134.245 69.5722 134.128C69.6256 134.005 69.6522 133.88 69.6522 133.752C69.6522 133.56 69.5936 133.403 69.4762 133.28C69.3642 133.157 69.2122 133.051 69.0202 132.96C68.8336 132.869 68.6176 132.789 68.3722 132.72C68.1322 132.645 67.8842 132.565 67.6282 132.48C67.3776 132.395 67.1296 132.296 66.8842 132.184C66.6442 132.067 66.4282 131.92 66.2362 131.744C66.0496 131.568 65.8976 131.352 65.7802 131.096C65.6682 130.84 65.6122 130.531 65.6122 130.168C65.6122 129.832 65.6789 129.512 65.8122 129.208C65.9456 128.904 66.1402 128.64 66.3962 128.416C66.6576 128.187 66.9802 128.005 67.3642 127.872C67.7536 127.733 68.2016 127.664 68.7082 127.664C69.2736 127.664 69.7882 127.757 70.2522 127.944C70.7162 128.131 71.1029 128.376 71.4122 128.68L70.9642 129.392ZM75.0355 127.792V136H73.0515V127.792H75.0355ZM75.3075 125.4C75.3075 125.571 75.2728 125.731 75.2035 125.88C75.1341 126.029 75.0408 126.16 74.9235 126.272C74.8115 126.384 74.6781 126.475 74.5235 126.544C74.3688 126.608 74.2035 126.64 74.0275 126.64C73.8568 126.64 73.6941 126.608 73.5395 126.544C73.3901 126.475 73.2595 126.384 73.1475 126.272C73.0355 126.16 72.9448 126.029 72.8755 125.88C72.8115 125.731 72.7795 125.571 72.7795 125.4C72.7795 125.224 72.8115 125.059 72.8755 124.904C72.9448 124.749 73.0355 124.616 73.1475 124.504C73.2595 124.392 73.3901 124.304 73.5395 124.24C73.6941 124.171 73.8568 124.136 74.0275 124.136C74.2035 124.136 74.3688 124.171 74.5235 124.24C74.6781 124.304 74.8115 124.392 74.9235 124.504C75.0408 124.616 75.1341 124.749 75.2035 124.904C75.2728 125.059 75.3075 125.224 75.3075 125.4ZM78.898 128.8C79.0633 128.635 79.2366 128.483 79.418 128.344C79.6046 128.2 79.7993 128.08 80.002 127.984C80.21 127.883 80.4313 127.805 80.666 127.752C80.9006 127.693 81.1566 127.664 81.434 127.664C81.882 127.664 82.2793 127.741 82.626 127.896C82.9726 128.045 83.2606 128.259 83.49 128.536C83.7246 128.808 83.9006 129.136 84.018 129.52C84.1406 129.899 84.202 130.317 84.202 130.776V136H82.226V130.776C82.226 130.275 82.1113 129.888 81.882 129.616C81.6526 129.339 81.3033 129.2 80.834 129.2C80.4926 129.2 80.1726 129.277 79.874 129.432C79.5753 129.587 79.2926 129.797 79.026 130.064V136H77.05V127.792H78.258C78.514 127.792 78.682 127.912 78.762 128.152L78.898 128.8ZM91.3692 130.952C91.3692 130.696 91.3319 130.456 91.2572 130.232C91.1879 130.003 91.0812 129.803 90.9372 129.632C90.7932 129.461 90.6092 129.328 90.3852 129.232C90.1666 129.131 89.9106 129.08 89.6172 129.08C89.0466 129.08 88.5959 129.243 88.2652 129.568C87.9399 129.893 87.7319 130.355 87.6412 130.952H91.3692ZM87.6012 132.144C87.6332 132.565 87.7079 132.931 87.8252 133.24C87.9426 133.544 88.0972 133.797 88.2892 134C88.4812 134.197 88.7079 134.347 88.9692 134.448C89.2359 134.544 89.5292 134.592 89.8492 134.592C90.1692 134.592 90.4439 134.555 90.6732 134.48C90.9079 134.405 91.1106 134.323 91.2812 134.232C91.4572 134.141 91.6092 134.059 91.7372 133.984C91.8706 133.909 91.9986 133.872 92.1212 133.872C92.2866 133.872 92.4092 133.933 92.4892 134.056L93.0572 134.776C92.8386 135.032 92.5932 135.248 92.3212 135.424C92.0492 135.595 91.7639 135.733 91.4652 135.84C91.1719 135.941 90.8706 136.013 90.5612 136.056C90.2572 136.099 89.9612 136.12 89.6732 136.12C89.1026 136.12 88.5719 136.027 88.0812 135.84C87.5906 135.648 87.1639 135.368 86.8012 135C86.4386 134.627 86.1532 134.168 85.9452 133.624C85.7372 133.075 85.6332 132.44 85.6332 131.72C85.6332 131.16 85.7239 130.635 85.9052 130.144C86.0866 129.648 86.3452 129.219 86.6812 128.856C87.0226 128.488 87.4359 128.197 87.9212 127.984C88.4119 127.771 88.9639 127.664 89.5772 127.664C90.0946 127.664 90.5719 127.747 91.0092 127.912C91.4466 128.077 91.8226 128.32 92.1372 128.64C92.4519 128.955 92.6972 129.344 92.8732 129.808C93.0546 130.267 93.1452 130.792 93.1452 131.384C93.1452 131.683 93.1132 131.885 93.0492 131.992C92.9852 132.093 92.8626 132.144 92.6812 132.144H87.6012ZM99.6361 129.392C99.5828 129.477 99.5268 129.539 99.4681 129.576C99.4094 129.608 99.3348 129.624 99.2441 129.624C99.1481 129.624 99.0441 129.597 98.9321 129.544C98.8254 129.491 98.7001 129.432 98.5561 129.368C98.4121 129.299 98.2468 129.237 98.0601 129.184C97.8788 129.131 97.6628 129.104 97.4121 129.104C97.0228 129.104 96.7161 129.187 96.4921 129.352C96.2734 129.517 96.1641 129.733 96.1641 130C96.1641 130.176 96.2201 130.325 96.3321 130.448C96.4494 130.565 96.6014 130.669 96.7881 130.76C96.9801 130.851 97.1961 130.933 97.4361 131.008C97.6761 131.077 97.9188 131.155 98.1641 131.24C98.4148 131.325 98.6601 131.424 98.9001 131.536C99.1401 131.643 99.3534 131.781 99.5401 131.952C99.7321 132.117 99.8841 132.317 99.9961 132.552C100.113 132.787 100.172 133.069 100.172 133.4C100.172 133.795 100.1 134.16 99.9561 134.496C99.8174 134.827 99.6094 135.115 99.3321 135.36C99.0548 135.6 98.7108 135.789 98.3001 135.928C97.8948 136.061 97.4254 136.128 96.8921 136.128C96.6094 136.128 96.3321 136.101 96.0601 136.048C95.7934 136 95.5348 135.931 95.2841 135.84C95.0388 135.749 94.8094 135.643 94.5961 135.52C94.3881 135.397 94.2041 135.264 94.0441 135.12L94.5001 134.368C94.5588 134.277 94.6281 134.208 94.7081 134.16C94.7881 134.112 94.8894 134.088 95.0121 134.088C95.1348 134.088 95.2494 134.123 95.3561 134.192C95.4681 134.261 95.5961 134.336 95.7401 134.416C95.8841 134.496 96.0521 134.571 96.2441 134.64C96.4414 134.709 96.6894 134.744 96.9881 134.744C97.2228 134.744 97.4228 134.717 97.5881 134.664C97.7588 134.605 97.8974 134.531 98.0041 134.44C98.1161 134.349 98.1961 134.245 98.2441 134.128C98.2974 134.005 98.3241 133.88 98.3241 133.752C98.3241 133.56 98.2654 133.403 98.1481 133.28C98.0361 133.157 97.8841 133.051 97.6921 132.96C97.5054 132.869 97.2894 132.789 97.0441 132.72C96.8041 132.645 96.5561 132.565 96.3001 132.48C96.0494 132.395 95.8014 132.296 95.5561 132.184C95.3161 132.067 95.1001 131.92 94.9081 131.744C94.7214 131.568 94.5694 131.352 94.4521 131.096C94.3401 130.84 94.2841 130.531 94.2841 130.168C94.2841 129.832 94.3508 129.512 94.4841 129.208C94.6174 128.904 94.8121 128.64 95.0681 128.416C95.3294 128.187 95.6521 128.005 96.0361 127.872C96.4254 127.733 96.8734 127.664 97.3801 127.664C97.9454 127.664 98.4601 127.757 98.9241 127.944C99.3881 128.131 99.7748 128.376 100.084 128.68L99.6361 129.392ZM106.667 129.392C106.614 129.477 106.558 129.539 106.499 129.576C106.441 129.608 106.366 129.624 106.275 129.624C106.179 129.624 106.075 129.597 105.963 129.544C105.857 129.491 105.731 129.432 105.587 129.368C105.443 129.299 105.278 129.237 105.091 129.184C104.91 129.131 104.694 129.104 104.443 129.104C104.054 129.104 103.747 129.187 103.523 129.352C103.305 129.517 103.195 129.733 103.195 130C103.195 130.176 103.251 130.325 103.363 130.448C103.481 130.565 103.633 130.669 103.819 130.76C104.011 130.851 104.227 130.933 104.467 131.008C104.707 131.077 104.95 131.155 105.195 131.24C105.446 131.325 105.691 131.424 105.931 131.536C106.171 131.643 106.385 131.781 106.571 131.952C106.763 132.117 106.915 132.317 107.027 132.552C107.145 132.787 107.203 133.069 107.203 133.4C107.203 133.795 107.131 134.16 106.987 134.496C106.849 134.827 106.641 135.115 106.363 135.36C106.086 135.6 105.742 135.789 105.331 135.928C104.926 136.061 104.457 136.128 103.923 136.128C103.641 136.128 103.363 136.101 103.091 136.048C102.825 136 102.566 135.931 102.315 135.84C102.07 135.749 101.841 135.643 101.627 135.52C101.419 135.397 101.235 135.264 101.075 135.12L101.531 134.368C101.59 134.277 101.659 134.208 101.739 134.16C101.819 134.112 101.921 134.088 102.043 134.088C102.166 134.088 102.281 134.123 102.387 134.192C102.499 134.261 102.627 134.336 102.771 134.416C102.915 134.496 103.083 134.571 103.275 134.64C103.473 134.709 103.721 134.744 104.019 134.744C104.254 134.744 104.454 134.717 104.619 134.664C104.79 134.605 104.929 134.531 105.035 134.44C105.147 134.349 105.227 134.245 105.275 134.128C105.329 134.005 105.355 133.88 105.355 133.752C105.355 133.56 105.297 133.403 105.179 133.28C105.067 133.157 104.915 133.051 104.723 132.96C104.537 132.869 104.321 132.789 104.075 132.72C103.835 132.645 103.587 132.565 103.331 132.48C103.081 132.395 102.833 132.296 102.587 132.184C102.347 132.067 102.131 131.92 101.939 131.744C101.753 131.568 101.601 131.352 101.483 131.096C101.371 130.84 101.315 130.531 101.315 130.168C101.315 129.832 101.382 129.512 101.515 129.208C101.649 128.904 101.843 128.64 102.099 128.416C102.361 128.187 102.683 128.005 103.067 127.872C103.457 127.733 103.905 127.664 104.411 127.664C104.977 127.664 105.491 127.757 105.955 127.944C106.419 128.131 106.806 128.376 107.115 128.68L106.667 129.392ZM117.589 129.392C117.536 129.477 117.48 129.539 117.421 129.576C117.363 129.608 117.288 129.624 117.197 129.624C117.101 129.624 116.997 129.597 116.885 129.544C116.779 129.491 116.653 129.432 116.509 129.368C116.365 129.299 116.2 129.237 116.013 129.184C115.832 129.131 115.616 129.104 115.365 129.104C114.976 129.104 114.669 129.187 114.445 129.352C114.227 129.517 114.117 129.733 114.117 130C114.117 130.176 114.173 130.325 114.285 130.448C114.403 130.565 114.555 130.669 114.741 130.76C114.933 130.851 115.149 130.933 115.389 131.008C115.629 131.077 115.872 131.155 116.117 131.24C116.368 131.325 116.613 131.424 116.853 131.536C117.093 131.643 117.307 131.781 117.493 131.952C117.685 132.117 117.837 132.317 117.949 132.552C118.067 132.787 118.125 133.069 118.125 133.4C118.125 133.795 118.053 134.16 117.909 134.496C117.771 134.827 117.563 135.115 117.285 135.36C117.008 135.6 116.664 135.789 116.253 135.928C115.848 136.061 115.379 136.128 114.845 136.128C114.563 136.128 114.285 136.101 114.013 136.048C113.747 136 113.488 135.931 113.237 135.84C112.992 135.749 112.763 135.643 112.549 135.52C112.341 135.397 112.157 135.264 111.997 135.12L112.453 134.368C112.512 134.277 112.581 134.208 112.661 134.16C112.741 134.112 112.843 134.088 112.965 134.088C113.088 134.088 113.203 134.123 113.309 134.192C113.421 134.261 113.549 134.336 113.693 134.416C113.837 134.496 114.005 134.571 114.197 134.64C114.395 134.709 114.643 134.744 114.941 134.744C115.176 134.744 115.376 134.717 115.541 134.664C115.712 134.605 115.851 134.531 115.957 134.44C116.069 134.349 116.149 134.245 116.197 134.128C116.251 134.005 116.277 133.88 116.277 133.752C116.277 133.56 116.219 133.403 116.101 133.28C115.989 133.157 115.837 133.051 115.645 132.96C115.459 132.869 115.243 132.789 114.997 132.72C114.757 132.645 114.509 132.565 114.253 132.48C114.003 132.395 113.755 132.296 113.509 132.184C113.269 132.067 113.053 131.92 112.861 131.744C112.675 131.568 112.523 131.352 112.405 131.096C112.293 130.84 112.237 130.531 112.237 130.168C112.237 129.832 112.304 129.512 112.437 129.208C112.571 128.904 112.765 128.64 113.021 128.416C113.283 128.187 113.605 128.005 113.989 127.872C114.379 127.733 114.827 127.664 115.333 127.664C115.899 127.664 116.413 127.757 116.877 127.944C117.341 128.131 117.728 128.376 118.037 128.68L117.589 129.392ZM125.492 129.528C125.434 129.603 125.375 129.661 125.316 129.704C125.263 129.747 125.183 129.768 125.076 129.768C124.975 129.768 124.876 129.739 124.78 129.68C124.684 129.616 124.57 129.547 124.436 129.472C124.303 129.392 124.143 129.323 123.956 129.264C123.775 129.2 123.548 129.168 123.276 129.168C122.93 129.168 122.626 129.232 122.364 129.36C122.103 129.483 121.884 129.661 121.708 129.896C121.538 130.131 121.41 130.416 121.324 130.752C121.239 131.083 121.196 131.459 121.196 131.88C121.196 132.317 121.242 132.707 121.332 133.048C121.428 133.389 121.564 133.677 121.74 133.912C121.916 134.141 122.13 134.317 122.38 134.44C122.631 134.557 122.914 134.616 123.228 134.616C123.543 134.616 123.796 134.579 123.988 134.504C124.186 134.424 124.351 134.339 124.484 134.248C124.618 134.152 124.732 134.067 124.828 133.992C124.93 133.912 125.042 133.872 125.164 133.872C125.324 133.872 125.444 133.933 125.524 134.056L126.092 134.776C125.874 135.032 125.636 135.248 125.38 135.424C125.124 135.595 124.858 135.733 124.58 135.84C124.308 135.941 124.026 136.013 123.732 136.056C123.444 136.099 123.156 136.12 122.868 136.12C122.362 136.12 121.884 136.027 121.436 135.84C120.988 135.648 120.596 135.371 120.26 135.008C119.924 134.645 119.658 134.203 119.46 133.68C119.268 133.152 119.172 132.552 119.172 131.88C119.172 131.277 119.258 130.72 119.428 130.208C119.604 129.691 119.86 129.245 120.196 128.872C120.532 128.493 120.948 128.197 121.444 127.984C121.94 127.771 122.511 127.664 123.156 127.664C123.77 127.664 124.306 127.763 124.764 127.96C125.228 128.157 125.644 128.44 126.012 128.808L125.492 129.528ZM129.307 128.672C129.627 128.373 129.979 128.131 130.363 127.944C130.747 127.757 131.198 127.664 131.715 127.664C132.163 127.664 132.561 127.741 132.907 127.896C133.254 128.045 133.542 128.259 133.771 128.536C134.006 128.808 134.182 129.136 134.299 129.52C134.422 129.899 134.483 130.317 134.483 130.776V136H132.507V130.776C132.507 130.275 132.393 129.888 132.163 129.616C131.934 129.339 131.585 129.2 131.115 129.2C130.774 129.2 130.454 129.277 130.155 129.432C129.857 129.587 129.574 129.797 129.307 130.064V136H127.331V124.112H129.307V128.672ZM139.994 127.664C140.602 127.664 141.154 127.763 141.65 127.96C142.152 128.157 142.578 128.437 142.93 128.8C143.288 129.163 143.562 129.605 143.754 130.128C143.946 130.651 144.042 131.235 144.042 131.88C144.042 132.531 143.946 133.117 143.754 133.64C143.562 134.163 143.288 134.608 142.93 134.976C142.578 135.344 142.152 135.627 141.65 135.824C141.154 136.021 140.602 136.12 139.994 136.12C139.381 136.12 138.824 136.021 138.322 135.824C137.821 135.627 137.392 135.344 137.034 134.976C136.682 134.608 136.408 134.163 136.21 133.64C136.018 133.117 135.922 132.531 135.922 131.88C135.922 131.235 136.018 130.651 136.21 130.128C136.408 129.605 136.682 129.163 137.034 128.8C137.392 128.437 137.821 128.157 138.322 127.96C138.824 127.763 139.381 127.664 139.994 127.664ZM139.994 134.6C140.677 134.6 141.181 134.371 141.506 133.912C141.837 133.453 142.002 132.781 142.002 131.896C142.002 131.011 141.837 130.336 141.506 129.872C141.181 129.408 140.677 129.176 139.994 129.176C139.301 129.176 138.786 129.411 138.45 129.88C138.12 130.344 137.954 131.016 137.954 131.896C137.954 132.776 138.12 133.448 138.45 133.912C138.786 134.371 139.301 134.6 139.994 134.6ZM149.182 127.664C149.79 127.664 150.342 127.763 150.838 127.96C151.339 128.157 151.766 128.437 152.118 128.8C152.475 129.163 152.75 129.605 152.942 130.128C153.134 130.651 153.23 131.235 153.23 131.88C153.23 132.531 153.134 133.117 152.942 133.64C152.75 134.163 152.475 134.608 152.118 134.976C151.766 135.344 151.339 135.627 150.838 135.824C150.342 136.021 149.79 136.12 149.182 136.12C148.569 136.12 148.011 136.021 147.51 135.824C147.009 135.627 146.579 135.344 146.222 134.976C145.87 134.608 145.595 134.163 145.398 133.64C145.206 133.117 145.11 132.531 145.11 131.88C145.11 131.235 145.206 130.651 145.398 130.128C145.595 129.605 145.87 129.163 146.222 128.8C146.579 128.437 147.009 128.157 147.51 127.96C148.011 127.763 148.569 127.664 149.182 127.664ZM149.182 134.6C149.865 134.6 150.369 134.371 150.694 133.912C151.025 133.453 151.19 132.781 151.19 131.896C151.19 131.011 151.025 130.336 150.694 129.872C150.369 129.408 149.865 129.176 149.182 129.176C148.489 129.176 147.974 129.411 147.638 129.88C147.307 130.344 147.142 131.016 147.142 131.896C147.142 132.776 147.307 133.448 147.638 133.912C147.974 134.371 148.489 134.6 149.182 134.6ZM156.737 124.112V136H154.761V124.112H156.737Z" fill="black"/>
<path d="M264.279 20.216C264.279 21.064 264.137 21.8507 263.855 22.576C263.577 23.296 263.183 23.92 262.671 24.448C262.159 24.976 261.543 25.3893 260.823 25.688C260.103 25.9813 259.303 26.128 258.423 26.128C257.548 26.128 256.751 25.9813 256.031 25.688C255.311 25.3893 254.692 24.976 254.175 24.448C253.663 23.92 253.265 23.296 252.983 22.576C252.7 21.8507 252.559 21.064 252.559 20.216C252.559 19.368 252.7 18.584 252.983 17.864C253.265 17.1387 253.663 16.512 254.175 15.984C254.692 15.456 255.311 15.0453 256.031 14.752C256.751 14.4533 257.548 14.304 258.423 14.304C259.009 14.304 259.561 14.3733 260.079 14.512C260.596 14.6453 261.071 14.8373 261.503 15.088C261.935 15.3333 262.321 15.6347 262.663 15.992C263.009 16.344 263.303 16.7387 263.543 17.176C263.783 17.6133 263.964 18.088 264.087 18.6C264.215 19.112 264.279 19.6507 264.279 20.216ZM262.079 20.216C262.079 19.5813 261.993 19.0133 261.823 18.512C261.652 18.0053 261.409 17.576 261.095 17.224C260.78 16.872 260.396 16.6027 259.943 16.416C259.495 16.2293 258.988 16.136 258.423 16.136C257.857 16.136 257.348 16.2293 256.895 16.416C256.447 16.6027 256.063 16.872 255.743 17.224C255.428 17.576 255.185 18.0053 255.015 18.512C254.844 19.0133 254.759 19.5813 254.759 20.216C254.759 20.8507 254.844 21.4213 255.015 21.928C255.185 22.4293 255.428 22.856 255.743 23.208C256.063 23.5547 256.447 23.8213 256.895 24.008C257.348 24.1947 257.857 24.288 258.423 24.288C258.988 24.288 259.495 24.1947 259.943 24.008C260.396 23.8213 260.78 23.5547 261.095 23.208C261.409 22.856 261.652 22.4293 261.823 21.928C261.993 21.4213 262.079 20.8507 262.079 20.216ZM267.564 18.8C267.729 18.6347 267.902 18.4827 268.084 18.344C268.27 18.2 268.465 18.08 268.668 17.984C268.876 17.8827 269.097 17.8053 269.332 17.752C269.566 17.6933 269.822 17.664 270.1 17.664C270.548 17.664 270.945 17.7413 271.292 17.896C271.638 18.0453 271.926 18.2587 272.156 18.536C272.39 18.808 272.566 19.136 272.684 19.52C272.806 19.8987 272.868 20.3173 272.868 20.776V26H270.892V20.776C270.892 20.2747 270.777 19.888 270.548 19.616C270.318 19.3387 269.969 19.2 269.5 19.2C269.158 19.2 268.838 19.2773 268.54 19.432C268.241 19.5867 267.958 19.7973 267.692 20.064V26H265.716V17.792H266.924C267.18 17.792 267.348 17.912 267.428 18.152L267.564 18.8ZM276.747 14.112V26H274.771V14.112H276.747ZM280.764 17.792V26H278.78V17.792H280.764ZM281.036 15.4C281.036 15.5707 281.001 15.7307 280.932 15.88C280.862 16.0293 280.769 16.16 280.652 16.272C280.54 16.384 280.406 16.4747 280.252 16.544C280.097 16.608 279.932 16.64 279.756 16.64C279.585 16.64 279.422 16.608 279.268 16.544C279.118 16.4747 278.988 16.384 278.876 16.272C278.764 16.16 278.673 16.0293 278.604 15.88C278.54 15.7307 278.508 15.5707 278.508 15.4C278.508 15.224 278.54 15.0587 278.604 14.904C278.673 14.7493 278.764 14.616 278.876 14.504C278.988 14.392 279.118 14.304 279.268 14.24C279.422 14.1707 279.585 14.136 279.756 14.136C279.932 14.136 280.097 14.1707 280.252 14.24C280.406 14.304 280.54 14.392 280.652 14.504C280.769 14.616 280.862 14.7493 280.932 14.904C281.001 15.0587 281.036 15.224 281.036 15.4ZM284.626 18.8C284.792 18.6347 284.965 18.4827 285.146 18.344C285.333 18.2 285.528 18.08 285.73 17.984C285.938 17.8827 286.16 17.8053 286.394 17.752C286.629 17.6933 286.885 17.664 287.162 17.664C287.61 17.664 288.008 17.7413 288.354 17.896C288.701 18.0453 288.989 18.2587 289.218 18.536C289.453 18.808 289.629 19.136 289.746 19.52C289.869 19.8987 289.93 20.3173 289.93 20.776V26H287.954V20.776C287.954 20.2747 287.84 19.888 287.61 19.616C287.381 19.3387 287.032 19.2 286.562 19.2C286.221 19.2 285.901 19.2773 285.602 19.432C285.304 19.5867 285.021 19.7973 284.754 20.064V26H282.778V17.792H283.986C284.242 17.792 284.41 17.912 284.49 18.152L284.626 18.8ZM297.098 20.952C297.098 20.696 297.06 20.456 296.986 20.232C296.916 20.0027 296.81 19.8027 296.666 19.632C296.522 19.4613 296.338 19.328 296.114 19.232C295.895 19.1307 295.639 19.08 295.346 19.08C294.775 19.08 294.324 19.2427 293.994 19.568C293.668 19.8933 293.46 20.3547 293.37 20.952H297.098ZM293.33 22.144C293.362 22.5653 293.436 22.9307 293.554 23.24C293.671 23.544 293.826 23.7973 294.018 24C294.21 24.1973 294.436 24.3467 294.698 24.448C294.964 24.544 295.258 24.592 295.578 24.592C295.898 24.592 296.172 24.5547 296.402 24.48C296.636 24.4053 296.839 24.3227 297.01 24.232C297.186 24.1413 297.338 24.0587 297.466 23.984C297.599 23.9093 297.727 23.872 297.85 23.872C298.015 23.872 298.138 23.9333 298.218 24.056L298.786 24.776C298.567 25.032 298.322 25.248 298.05 25.424C297.778 25.5947 297.492 25.7333 297.194 25.84C296.9 25.9413 296.599 26.0133 296.29 26.056C295.986 26.0987 295.69 26.12 295.402 26.12C294.831 26.12 294.3 26.0267 293.81 25.84C293.319 25.648 292.892 25.368 292.53 25C292.167 24.6267 291.882 24.168 291.674 23.624C291.466 23.0747 291.362 22.44 291.362 21.72C291.362 21.16 291.452 20.6347 291.634 20.144C291.815 19.648 292.074 19.2187 292.41 18.856C292.751 18.488 293.164 18.1973 293.65 17.984C294.14 17.7707 294.692 17.664 295.306 17.664C295.823 17.664 296.3 17.7467 296.738 17.912C297.175 18.0773 297.551 18.32 297.866 18.64C298.18 18.9547 298.426 19.344 298.602 19.808C298.783 20.2667 298.874 20.792 298.874 21.384C298.874 21.6827 298.842 21.8853 298.778 21.992C298.714 22.0933 298.591 22.144 298.41 22.144H293.33ZM310.127 19.528C310.068 19.6027 310.01 19.6613 309.951 19.704C309.898 19.7467 309.818 19.768 309.711 19.768C309.61 19.768 309.511 19.7387 309.415 19.68C309.319 19.616 309.204 19.5467 309.071 19.472C308.938 19.392 308.778 19.3227 308.591 19.264C308.41 19.2 308.183 19.168 307.911 19.168C307.564 19.168 307.26 19.232 306.999 19.36C306.738 19.4827 306.519 19.6613 306.343 19.896C306.172 20.1307 306.044 20.416 305.959 20.752C305.874 21.0827 305.831 21.4587 305.831 21.88C305.831 22.3173 305.876 22.7067 305.967 23.048C306.063 23.3893 306.199 23.6773 306.375 23.912C306.551 24.1413 306.764 24.3173 307.015 24.44C307.266 24.5573 307.548 24.616 307.863 24.616C308.178 24.616 308.431 24.5787 308.623 24.504C308.82 24.424 308.986 24.3387 309.119 24.248C309.252 24.152 309.367 24.0667 309.463 23.992C309.564 23.912 309.676 23.872 309.799 23.872C309.959 23.872 310.079 23.9333 310.159 24.056L310.727 24.776C310.508 25.032 310.271 25.248 310.015 25.424C309.759 25.5947 309.492 25.7333 309.215 25.84C308.943 25.9413 308.66 26.0133 308.367 26.056C308.079 26.0987 307.791 26.12 307.503 26.12C306.996 26.12 306.519 26.0267 306.071 25.84C305.623 25.648 305.231 25.3707 304.895 25.008C304.559 24.6453 304.292 24.2027 304.095 23.68C303.903 23.152 303.807 22.552 303.807 21.88C303.807 21.2773 303.892 20.72 304.063 20.208C304.239 19.6907 304.495 19.2453 304.831 18.872C305.167 18.4933 305.583 18.1973 306.079 17.984C306.575 17.7707 307.146 17.664 307.791 17.664C308.404 17.664 308.94 17.7627 309.399 17.96C309.863 18.1573 310.279 18.44 310.647 18.808L310.127 19.528ZM315.457 17.664C316.065 17.664 316.617 17.7627 317.113 17.96C317.615 18.1573 318.041 18.4373 318.393 18.8C318.751 19.1627 319.025 19.6053 319.217 20.128C319.409 20.6507 319.505 21.2347 319.505 21.88C319.505 22.5307 319.409 23.1173 319.217 23.64C319.025 24.1627 318.751 24.608 318.393 24.976C318.041 25.344 317.615 25.6267 317.113 25.824C316.617 26.0213 316.065 26.12 315.457 26.12C314.844 26.12 314.287 26.0213 313.785 25.824C313.284 25.6267 312.855 25.344 312.497 24.976C312.145 24.608 311.871 24.1627 311.673 23.64C311.481 23.1173 311.385 22.5307 311.385 21.88C311.385 21.2347 311.481 20.6507 311.673 20.128C311.871 19.6053 312.145 19.1627 312.497 18.8C312.855 18.4373 313.284 18.1573 313.785 17.96C314.287 17.7627 314.844 17.664 315.457 17.664ZM315.457 24.6C316.14 24.6 316.644 24.3707 316.969 23.912C317.3 23.4533 317.465 22.7813 317.465 21.896C317.465 21.0107 317.3 20.336 316.969 19.872C316.644 19.408 316.14 19.176 315.457 19.176C314.764 19.176 314.249 19.4107 313.913 19.88C313.583 20.344 313.417 21.016 313.417 21.896C313.417 22.776 313.583 23.448 313.913 23.912C314.249 24.3707 314.764 24.6 315.457 24.6ZM328.085 17.792V26H326.877C326.615 26 326.45 25.88 326.381 25.64L326.245 24.984C325.909 25.3253 325.538 25.6027 325.133 25.816C324.727 26.024 324.25 26.128 323.701 26.128C323.253 26.128 322.855 26.0533 322.509 25.904C322.167 25.7493 321.879 25.5333 321.645 25.256C321.41 24.9787 321.231 24.6507 321.109 24.272C320.991 23.888 320.933 23.4667 320.933 23.008V17.792H322.909V23.008C322.909 23.5093 323.023 23.8987 323.253 24.176C323.487 24.448 323.837 24.584 324.301 24.584C324.642 24.584 324.962 24.5093 325.261 24.36C325.559 24.2053 325.842 23.9947 326.109 23.728V17.792H328.085ZM331.908 19.216C332.164 18.7253 332.468 18.3413 332.82 18.064C333.172 17.7813 333.588 17.64 334.068 17.64C334.447 17.64 334.751 17.7227 334.98 17.888L334.852 19.368C334.825 19.464 334.785 19.5333 334.732 19.576C334.684 19.6133 334.617 19.632 334.532 19.632C334.452 19.632 334.332 19.6187 334.172 19.592C334.017 19.5653 333.865 19.552 333.716 19.552C333.497 19.552 333.303 19.584 333.132 19.648C332.961 19.712 332.807 19.8053 332.668 19.928C332.535 20.0453 332.415 20.1893 332.308 20.36C332.207 20.5307 332.111 20.7253 332.02 20.944V26H330.044V17.792H331.204C331.407 17.792 331.548 17.8293 331.628 17.904C331.708 17.9733 331.761 18.1013 331.788 18.288L331.908 19.216ZM340.989 19.392C340.936 19.4773 340.88 19.5387 340.821 19.576C340.763 19.608 340.688 19.624 340.597 19.624C340.501 19.624 340.397 19.5973 340.285 19.544C340.179 19.4907 340.053 19.432 339.909 19.368C339.765 19.2987 339.6 19.2373 339.413 19.184C339.232 19.1307 339.016 19.104 338.765 19.104C338.376 19.104 338.069 19.1867 337.845 19.352C337.627 19.5173 337.517 19.7333 337.517 20C337.517 20.176 337.573 20.3253 337.685 20.448C337.803 20.5653 337.955 20.6693 338.141 20.76C338.333 20.8507 338.549 20.9333 338.789 21.008C339.029 21.0773 339.272 21.1547 339.517 21.24C339.768 21.3253 340.013 21.424 340.253 21.536C340.493 21.6427 340.707 21.7813 340.893 21.952C341.085 22.1173 341.237 22.3173 341.349 22.552C341.467 22.7867 341.525 23.0693 341.525 23.4C341.525 23.7947 341.453 24.16 341.309 24.496C341.171 24.8267 340.963 25.1147 340.685 25.36C340.408 25.6 340.064 25.7893 339.653 25.928C339.248 26.0613 338.779 26.128 338.245 26.128C337.963 26.128 337.685 26.1013 337.413 26.048C337.147 26 336.888 25.9307 336.637 25.84C336.392 25.7493 336.163 25.6427 335.949 25.52C335.741 25.3973 335.557 25.264 335.397 25.12L335.853 24.368C335.912 24.2773 335.981 24.208 336.061 24.16C336.141 24.112 336.243 24.088 336.365 24.088C336.488 24.088 336.603 24.1227 336.709 24.192C336.821 24.2613 336.949 24.336 337.093 24.416C337.237 24.496 337.405 24.5707 337.597 24.64C337.795 24.7093 338.043 24.744 338.341 24.744C338.576 24.744 338.776 24.7173 338.941 24.664C339.112 24.6053 339.251 24.5307 339.357 24.44C339.469 24.3493 339.549 24.2453 339.597 24.128C339.651 24.0053 339.677 23.88 339.677 23.752C339.677 23.56 339.619 23.4027 339.501 23.28C339.389 23.1573 339.237 23.0507 339.045 22.96C338.859 22.8693 338.643 22.7893 338.397 22.72C338.157 22.6453 337.909 22.5653 337.653 22.48C337.403 22.3947 337.155 22.296 336.909 22.184C336.669 22.0667 336.453 21.92 336.261 21.744C336.075 21.568 335.923 21.352 335.805 21.096C335.693 20.84 335.637 20.5307 335.637 20.168C335.637 19.832 335.704 19.512 335.837 19.208C335.971 18.904 336.165 18.64 336.421 18.416C336.683 18.1867 337.005 18.0053 337.389 17.872C337.779 17.7333 338.227 17.664 338.733 17.664C339.299 17.664 339.813 17.7573 340.277 17.944C340.741 18.1307 341.128 18.376 341.437 18.68L340.989 19.392ZM348.301 20.952C348.301 20.696 348.263 20.456 348.189 20.232C348.119 20.0027 348.013 19.8027 347.869 19.632C347.725 19.4613 347.541 19.328 347.317 19.232C347.098 19.1307 346.842 19.08 346.549 19.08C345.978 19.08 345.527 19.2427 345.197 19.568C344.871 19.8933 344.663 20.3547 344.573 20.952H348.301ZM344.533 22.144C344.565 22.5653 344.639 22.9307 344.757 23.24C344.874 23.544 345.029 23.7973 345.221 24C345.413 24.1973 345.639 24.3467 345.901 24.448C346.167 24.544 346.461 24.592 346.781 24.592C347.101 24.592 347.375 24.5547 347.605 24.48C347.839 24.4053 348.042 24.3227 348.213 24.232C348.389 24.1413 348.541 24.0587 348.669 23.984C348.802 23.9093 348.93 23.872 349.053 23.872C349.218 23.872 349.341 23.9333 349.421 24.056L349.989 24.776C349.77 25.032 349.525 25.248 349.253 25.424C348.981 25.5947 348.695 25.7333 348.397 25.84C348.103 25.9413 347.802 26.0133 347.493 26.056C347.189 26.0987 346.893 26.12 346.605 26.12C346.034 26.12 345.503 26.0267 345.013 25.84C344.522 25.648 344.095 25.368 343.733 25C343.37 24.6267 343.085 24.168 342.877 23.624C342.669 23.0747 342.565 22.44 342.565 21.72C342.565 21.16 342.655 20.6347 342.837 20.144C343.018 19.648 343.277 19.2187 343.613 18.856C343.954 18.488 344.367 18.1973 344.853 17.984C345.343 17.7707 345.895 17.664 346.509 17.664C347.026 17.664 347.503 17.7467 347.941 17.912C348.378 18.0773 348.754 18.32 349.069 18.64C349.383 18.9547 349.629 19.344 349.805 19.808C349.986 20.2667 350.077 20.792 350.077 21.384C350.077 21.6827 350.045 21.8853 349.981 21.992C349.917 22.0933 349.794 22.144 349.613 22.144H344.533ZM356.568 19.392C356.514 19.4773 356.458 19.5387 356.4 19.576C356.341 19.608 356.266 19.624 356.176 19.624C356.08 19.624 355.976 19.5973 355.864 19.544C355.757 19.4907 355.632 19.432 355.488 19.368C355.344 19.2987 355.178 19.2373 354.992 19.184C354.81 19.1307 354.594 19.104 354.344 19.104C353.954 19.104 353.648 19.1867 353.424 19.352C353.205 19.5173 353.096 19.7333 353.096 20C353.096 20.176 353.152 20.3253 353.264 20.448C353.381 20.5653 353.533 20.6693 353.72 20.76C353.912 20.8507 354.128 20.9333 354.368 21.008C354.608 21.0773 354.85 21.1547 355.096 21.24C355.346 21.3253 355.592 21.424 355.832 21.536C356.072 21.6427 356.285 21.7813 356.472 21.952C356.664 22.1173 356.816 22.3173 356.928 22.552C357.045 22.7867 357.104 23.0693 357.104 23.4C357.104 23.7947 357.032 24.16 356.888 24.496C356.749 24.8267 356.541 25.1147 356.264 25.36C355.986 25.6 355.642 25.7893 355.232 25.928C354.826 26.0613 354.357 26.128 353.824 26.128C353.541 26.128 353.264 26.1013 352.992 26.048C352.725 26 352.466 25.9307 352.216 25.84C351.97 25.7493 351.741 25.6427 351.528 25.52C351.32 25.3973 351.136 25.264 350.976 25.12L351.432 24.368C351.49 24.2773 351.56 24.208 351.64 24.16C351.72 24.112 351.821 24.088 351.944 24.088C352.066 24.088 352.181 24.1227 352.288 24.192C352.4 24.2613 352.528 24.336 352.672 24.416C352.816 24.496 352.984 24.5707 353.176 24.64C353.373 24.7093 353.621 24.744 353.92 24.744C354.154 24.744 354.354 24.7173 354.52 24.664C354.69 24.6053 354.829 24.5307 354.936 24.44C355.048 24.3493 355.128 24.2453 355.176 24.128C355.229 24.0053 355.256 23.88 355.256 23.752C355.256 23.56 355.197 23.4027 355.08 23.28C354.968 23.1573 354.816 23.0507 354.624 22.96C354.437 22.8693 354.221 22.7893 353.976 22.72C353.736 22.6453 353.488 22.5653 353.232 22.48C352.981 22.3947 352.733 22.296 352.488 22.184C352.248 22.0667 352.032 21.92 351.84 21.744C351.653 21.568 351.501 21.352 351.384 21.096C351.272 20.84 351.216 20.5307 351.216 20.168C351.216 19.832 351.282 19.512 351.416 19.208C351.549 18.904 351.744 18.64 352 18.416C352.261 18.1867 352.584 18.0053 352.968 17.872C353.357 17.7333 353.805 17.664 354.312 17.664C354.877 17.664 355.392 17.7573 355.856 17.944C356.32 18.1307 356.706 18.376 357.016 18.68L356.568 19.392Z" fill="black"/>
<path d="M900.075 46.536C900.011 46.648 899.941 46.7307 899.867 46.784C899.797 46.832 899.709 46.856 899.603 46.856C899.491 46.856 899.368 46.816 899.235 46.736C899.107 46.6507 898.952 46.5573 898.771 46.456C898.589 46.3547 898.376 46.264 898.131 46.184C897.891 46.0987 897.605 46.056 897.275 46.056C896.976 46.056 896.715 46.0933 896.491 46.168C896.267 46.2373 896.077 46.336 895.923 46.464C895.773 46.592 895.661 46.7467 895.587 46.928C895.512 47.104 895.475 47.2987 895.475 47.512C895.475 47.784 895.549 48.0107 895.699 48.192C895.853 48.3733 896.056 48.528 896.307 48.656C896.557 48.784 896.843 48.8987 897.163 49C897.483 49.1013 897.811 49.2107 898.147 49.328C898.483 49.44 898.811 49.5733 899.131 49.728C899.451 49.8773 899.736 50.0693 899.987 50.304C900.237 50.5333 900.437 50.816 900.587 51.152C900.741 51.488 900.819 51.896 900.819 52.376C900.819 52.8987 900.728 53.3893 900.547 53.848C900.371 54.3013 900.109 54.6987 899.763 55.04C899.421 55.376 899.003 55.6427 898.507 55.84C898.011 56.032 897.443 56.128 896.803 56.128C896.435 56.128 896.072 56.0907 895.715 56.016C895.357 55.9467 895.013 55.8453 894.683 55.712C894.357 55.5787 894.051 55.4187 893.763 55.232C893.475 55.0453 893.219 54.8373 892.995 54.608L893.627 53.576C893.68 53.5013 893.749 53.44 893.835 53.392C893.92 53.3387 894.011 53.312 894.107 53.312C894.24 53.312 894.384 53.368 894.539 53.48C894.693 53.5867 894.877 53.7067 895.091 53.84C895.304 53.9733 895.552 54.096 895.835 54.208C896.123 54.3147 896.467 54.368 896.867 54.368C897.48 54.368 897.955 54.224 898.291 53.936C898.627 53.6427 898.795 53.224 898.795 52.68C898.795 52.376 898.717 52.128 898.563 51.936C898.413 51.744 898.213 51.584 897.963 51.456C897.712 51.3227 897.427 51.2107 897.107 51.12C896.787 51.0293 896.461 50.9307 896.131 50.824C895.8 50.7173 895.475 50.5893 895.155 50.44C894.835 50.2907 894.549 50.096 894.299 49.856C894.048 49.616 893.845 49.3173 893.691 48.96C893.541 48.5973 893.467 48.152 893.467 47.624C893.467 47.2027 893.549 46.792 893.715 46.392C893.885 45.992 894.131 45.6373 894.451 45.328C894.771 45.0187 895.165 44.7707 895.635 44.584C896.104 44.3973 896.643 44.304 897.251 44.304C897.933 44.304 898.563 44.4107 899.139 44.624C899.715 44.8373 900.205 45.136 900.611 45.52L900.075 46.536ZM913.854 47.792L911.246 56H909.662C909.481 56 909.355 55.8827 909.286 55.648L907.814 50.904C907.766 50.744 907.721 50.5867 907.678 50.432C907.641 50.272 907.609 50.112 907.582 49.952C907.55 50.112 907.513 50.2747 907.47 50.44C907.433 50.6 907.39 50.76 907.342 50.92L905.846 55.648C905.782 55.8827 905.641 56 905.422 56H903.902L901.302 47.792H902.878C903.022 47.792 903.145 47.8267 903.246 47.896C903.347 47.9653 903.414 48.0533 903.446 48.16L904.622 52.544C904.681 52.784 904.731 53.0187 904.774 53.248C904.822 53.4773 904.862 53.7067 904.894 53.936C904.953 53.7067 905.014 53.4773 905.078 53.248C905.147 53.0187 905.219 52.784 905.294 52.544L906.654 48.144C906.686 48.0373 906.747 47.9493 906.838 47.88C906.934 47.8107 907.049 47.776 907.182 47.776H908.054C908.193 47.776 908.31 47.8107 908.406 47.88C908.507 47.9493 908.574 48.0373 908.606 48.144L909.926 52.544C909.995 52.784 910.059 53.0213 910.118 53.256C910.182 53.4853 910.243 53.7147 910.302 53.944C910.371 53.4907 910.47 53.024 910.598 52.544L911.806 48.16C911.843 48.0533 911.91 47.9653 912.006 47.896C912.102 47.8267 912.217 47.792 912.35 47.792H913.854ZM917.026 47.792V56H915.042V47.792H917.026ZM917.298 45.4C917.298 45.5707 917.263 45.7307 917.194 45.88C917.124 46.0293 917.031 46.16 916.914 46.272C916.802 46.384 916.668 46.4747 916.514 46.544C916.359 46.608 916.194 46.64 916.018 46.64C915.847 46.64 915.684 46.608 915.53 46.544C915.38 46.4747 915.25 46.384 915.138 46.272C915.026 46.16 914.935 46.0293 914.866 45.88C914.802 45.7307 914.77 45.5707 914.77 45.4C914.77 45.224 914.802 45.0587 914.866 44.904C914.935 44.7493 915.026 44.616 915.138 44.504C915.25 44.392 915.38 44.304 915.53 44.24C915.684 44.1707 915.847 44.136 916.018 44.136C916.194 44.136 916.359 44.1707 916.514 44.24C916.668 44.304 916.802 44.392 916.914 44.504C917.031 44.616 917.124 44.7493 917.194 44.904C917.263 45.0587 917.298 45.224 917.298 45.4ZM921.776 56.128C921.062 56.128 920.512 55.928 920.128 55.528C919.75 55.1227 919.56 54.5653 919.56 53.856V49.272H918.72C918.614 49.272 918.523 49.2373 918.448 49.168C918.374 49.0987 918.336 48.9947 918.336 48.856V48.072L919.656 47.856L920.072 45.616C920.099 45.5093 920.15 45.4267 920.224 45.368C920.299 45.3093 920.395 45.28 920.512 45.28H921.536V47.864H923.728V49.272H921.536V53.72C921.536 53.976 921.598 54.176 921.72 54.32C921.848 54.464 922.022 54.536 922.24 54.536C922.363 54.536 922.464 54.5227 922.544 54.496C922.63 54.464 922.702 54.432 922.76 54.4C922.824 54.368 922.88 54.3387 922.928 54.312C922.976 54.28 923.024 54.264 923.072 54.264C923.131 54.264 923.179 54.28 923.216 54.312C923.254 54.3387 923.294 54.3813 923.336 54.44L923.928 55.4C923.64 55.64 923.31 55.8213 922.936 55.944C922.563 56.0667 922.176 56.128 921.776 56.128ZM930.811 49.528C930.752 49.6027 930.694 49.6613 930.635 49.704C930.582 49.7467 930.502 49.768 930.395 49.768C930.294 49.768 930.195 49.7387 930.099 49.68C930.003 49.616 929.888 49.5467 929.755 49.472C929.622 49.392 929.462 49.3227 929.275 49.264C929.094 49.2 928.867 49.168 928.595 49.168C928.248 49.168 927.944 49.232 927.683 49.36C927.422 49.4827 927.203 49.6613 927.027 49.896C926.856 50.1307 926.728 50.416 926.643 50.752C926.558 51.0827 926.515 51.4587 926.515 51.88C926.515 52.3173 926.56 52.7067 926.651 53.048C926.747 53.3893 926.883 53.6773 927.059 53.912C927.235 54.1413 927.448 54.3173 927.699 54.44C927.95 54.5573 928.232 54.616 928.547 54.616C928.862 54.616 929.115 54.5787 929.307 54.504C929.504 54.424 929.67 54.3387 929.803 54.248C929.936 54.152 930.051 54.0667 930.147 53.992C930.248 53.912 930.36 53.872 930.483 53.872C930.643 53.872 930.763 53.9333 930.843 54.056L931.411 54.776C931.192 55.032 930.955 55.248 930.699 55.424C930.443 55.5947 930.176 55.7333 929.899 55.84C929.627 55.9413 929.344 56.0133 929.051 56.056C928.763 56.0987 928.475 56.12 928.187 56.12C927.68 56.12 927.203 56.0267 926.755 55.84C926.307 55.648 925.915 55.3707 925.579 55.008C925.243 54.6453 924.976 54.2027 924.779 53.68C924.587 53.152 924.491 52.552 924.491 51.88C924.491 51.2773 924.576 50.72 924.747 50.208C924.923 49.6907 925.179 49.2453 925.515 48.872C925.851 48.4933 926.267 48.1973 926.763 47.984C927.259 47.7707 927.83 47.664 928.475 47.664C929.088 47.664 929.624 47.7627 930.083 47.96C930.547 48.1573 930.963 48.44 931.331 48.808L930.811 49.528ZM934.626 48.672C934.946 48.3733 935.298 48.1307 935.682 47.944C936.066 47.7573 936.516 47.664 937.034 47.664C937.482 47.664 937.879 47.7413 938.226 47.896C938.572 48.0453 938.86 48.2587 939.09 48.536C939.324 48.808 939.5 49.136 939.618 49.52C939.74 49.8987 939.802 50.3173 939.802 50.776V56H937.826V50.776C937.826 50.2747 937.711 49.888 937.482 49.616C937.252 49.3387 936.903 49.2 936.434 49.2C936.092 49.2 935.772 49.2773 935.474 49.432C935.175 49.5867 934.892 49.7973 934.626 50.064V56H932.65V44.112H934.626V48.672Z" fill="black"/>
<path d="M5.26172 78.3977C184.127 125.096 284.643 123.969 463.575 78.3977C629.486 18.5356 728.081 11.9516 921.888 78.3977C1027.7 101.519 1105.87 110.767 1189.03 106.535" stroke="url(#paint0_linear_974_2841)" stroke-width="3"/>
<path d="M1.00157 77.6888C199.598 23.6437 298.136 28.6202 459.296 77.6888C638.451 116.449 738.385 117.091 917.591 77.6888C1031.09 38.5371 1111.93 24.5857 1192.76 31.843" stroke="url(#paint1_linear_974_2841)" stroke-width="3"/>
<ellipse cx="8.52015" cy="8" rx="8.52015" ry="8" transform="matrix(1 0 0 -1 93 109)" fill="black"/>
<ellipse cx="8.52015" cy="8" rx="8.52015" ry="8" transform="matrix(1 0 0 -1 908 84)" fill="black"/>
<ellipse cx="8.52015" cy="8" rx="8.52015" ry="8" transform="matrix(1 0 0 -1 1175.71 40)" fill="black"/>
<ellipse cx="8.52015" cy="8" rx="8.52015" ry="8" transform="matrix(1 0 0 -1 542 104)" fill="black"/>
<ellipse cx="8.52015" cy="8" rx="8.52015" ry="8" transform="matrix(1 0 0 -1 296 51)" fill="black"/>
<ellipse cx="8.52015" cy="8" rx="8.52015" ry="8" transform="matrix(1 0 0 -1 717 40)" fill="black"/>
<defs>
<linearGradient id="paint0_linear_974_2841" x1="5.26172" y1="112.544" x2="1838.32" y2="134.374" gradientUnits="userSpaceOnUse">
<stop/>
<stop offset="0.430045" stop-opacity="0.19"/>
<stop offset="0.630208" stop-opacity="0"/>
</linearGradient>
<linearGradient id="paint1_linear_974_2841" x1="1834.18" y1="112.503" x2="1.00159" y2="112.503" gradientUnits="userSpaceOnUse">
<stop stop-color="#C29351"/>
<stop offset="0.489205" stop-color="#C29351"/>
<stop offset="0.515625"/>
<stop offset="1" stop-color="#040404" stop-opacity="0.03"/>
</linearGradient>
</defs>
</svg>
