<svg width="34" height="28" viewBox="0 0 34 28" fill="none" xmlns="http://www.w3.org/2000/svg">
<path d="M3.66537 27.3332C2.7487 27.3332 1.9637 27.0065 1.31037 26.3532C0.657034 25.6998 0.330923 24.9154 0.332034 23.9998V3.99984C0.332034 3.08317 0.658701 2.29817 1.31203 1.64484C1.96537 0.991507 2.74981 0.665396 3.66537 0.666507H30.332C31.2487 0.666507 32.0337 0.993173 32.687 1.64651C33.3404 2.29984 33.6665 3.08428 33.6654 3.99984V23.9998C33.6654 24.9165 33.3387 25.7015 32.6854 26.3548C32.032 27.0082 31.2476 27.3343 30.332 27.3332H3.66537ZM30.332 7.33317L17.8737 15.1248C17.7348 15.2082 17.5887 15.271 17.4354 15.3132C17.282 15.3554 17.1365 15.376 16.9987 15.3748C16.8598 15.3748 16.7137 15.3543 16.5604 15.3132C16.407 15.2721 16.2615 15.2093 16.1237 15.1248L3.66537 7.33317V23.9998H30.332V7.33317ZM16.9987 12.3332L30.332 3.99984H3.66537L16.9987 12.3332ZM3.66537 7.74984V5.29151V5.33317V5.31317V7.74984Z" fill="black"/>
</svg>
