<svg width="683" height="341" viewBox="0 0 683 341" fill="none" xmlns="http://www.w3.org/2000/svg">
<rect x="3.88514" y="170.413" width="236" height="236" transform="rotate(-45 3.88514 170.413)" stroke="#C4C4C4" stroke-width="5"/>
<path d="M109.882 170.88C110.922 170.88 111.835 170.747 112.622 170.48C113.422 170.213 114.082 169.84 114.602 169.36C115.135 168.867 115.535 168.273 115.802 167.58C116.069 166.887 116.202 166.113 116.202 165.26C116.202 164.42 116.069 163.667 115.802 163C115.549 162.333 115.162 161.767 114.642 161.3C114.122 160.833 113.462 160.48 112.662 160.24C111.875 159.987 110.949 159.86 109.882 159.86H105.602V170.88H109.882ZM109.882 156.2C111.762 156.2 113.389 156.42 114.762 156.86C116.149 157.3 117.289 157.92 118.182 158.72C119.089 159.507 119.762 160.46 120.202 161.58C120.642 162.687 120.862 163.913 120.862 165.26C120.862 166.633 120.629 167.893 120.162 169.04C119.695 170.173 119.002 171.153 118.082 171.98C117.162 172.793 116.015 173.433 114.642 173.9C113.282 174.353 111.695 174.58 109.882 174.58H105.602V185H100.922V156.2H109.882ZM128.244 168.38C128.884 167.087 129.658 166.073 130.564 165.34C131.471 164.593 132.558 164.22 133.824 164.22C134.264 164.22 134.678 164.273 135.064 164.38C135.451 164.473 135.798 164.62 136.104 164.82L135.804 168.06C135.751 168.287 135.664 168.447 135.544 168.54C135.438 168.62 135.291 168.66 135.104 168.66C134.904 168.66 134.618 168.627 134.244 168.56C133.871 168.48 133.478 168.44 133.064 168.44C132.464 168.44 131.931 168.527 131.464 168.7C131.011 168.873 130.598 169.127 130.224 169.46C129.864 169.793 129.544 170.2 129.264 170.68C128.984 171.16 128.724 171.707 128.484 172.32V185H124.184V164.6H126.684C127.138 164.6 127.451 164.687 127.624 164.86C127.798 165.02 127.918 165.307 127.984 165.72L128.244 168.38ZM147.067 164.28C148.574 164.28 149.934 164.527 151.147 165.02C152.374 165.513 153.414 166.213 154.267 167.12C155.134 168.027 155.8 169.127 156.267 170.42C156.734 171.713 156.967 173.167 156.967 174.78C156.967 176.393 156.734 177.847 156.267 179.14C155.8 180.433 155.134 181.54 154.267 182.46C153.414 183.367 152.374 184.067 151.147 184.56C149.934 185.053 148.574 185.3 147.067 185.3C145.547 185.3 144.174 185.053 142.947 184.56C141.734 184.067 140.694 183.367 139.827 182.46C138.96 181.54 138.294 180.433 137.827 179.14C137.36 177.847 137.127 176.393 137.127 174.78C137.127 173.167 137.36 171.713 137.827 170.42C138.294 169.127 138.96 168.027 139.827 167.12C140.694 166.213 141.734 165.513 142.947 165.02C144.174 164.527 145.547 164.28 147.067 164.28ZM147.067 181.94C148.907 181.94 150.274 181.327 151.167 180.1C152.074 178.86 152.527 177.093 152.527 174.8C152.527 172.507 152.074 170.74 151.167 169.5C150.274 168.247 148.907 167.62 147.067 167.62C145.2 167.62 143.814 168.247 142.907 169.5C142 170.74 141.547 172.507 141.547 174.8C141.547 177.093 142 178.86 142.907 180.1C143.814 181.327 145.2 181.94 147.067 181.94ZM165.399 179.88C165.999 180.653 166.652 181.2 167.359 181.52C168.079 181.827 168.859 181.98 169.699 181.98C171.392 181.98 172.712 181.367 173.659 180.14C174.605 178.913 175.079 177.013 175.079 174.44C175.079 172.093 174.665 170.38 173.839 169.3C173.025 168.22 171.859 167.68 170.339 167.68C169.285 167.68 168.365 167.92 167.579 168.4C166.805 168.867 166.079 169.54 165.399 170.42V179.88ZM165.399 167.3C166.239 166.38 167.179 165.647 168.219 165.1C169.259 164.553 170.445 164.28 171.779 164.28C172.965 164.28 174.032 164.513 174.979 164.98C175.939 165.433 176.752 166.093 177.419 166.96C178.085 167.827 178.599 168.88 178.959 170.12C179.319 171.347 179.499 172.733 179.499 174.28C179.499 175.933 179.292 177.44 178.879 178.8C178.479 180.147 177.899 181.307 177.139 182.28C176.379 183.24 175.459 183.987 174.379 184.52C173.299 185.04 172.092 185.3 170.759 185.3C170.105 185.3 169.512 185.233 168.979 185.1C168.445 184.98 167.952 184.8 167.499 184.56C167.045 184.32 166.625 184.033 166.239 183.7C165.865 183.367 165.505 182.987 165.159 182.56L164.979 184.14C164.912 184.447 164.792 184.667 164.619 184.8C164.445 184.933 164.205 185 163.899 185H161.099V155.4H165.399V167.3ZM188.057 155.4V185H183.757V155.4H188.057ZM206.744 172.5C206.744 171.78 206.637 171.113 206.424 170.5C206.224 169.873 205.924 169.333 205.524 168.88C205.124 168.413 204.624 168.053 204.024 167.8C203.437 167.533 202.757 167.4 201.984 167.4C200.424 167.4 199.197 167.847 198.304 168.74C197.411 169.633 196.844 170.887 196.604 172.5H206.744ZM196.484 175.14C196.537 176.3 196.717 177.307 197.024 178.16C197.331 179 197.737 179.7 198.244 180.26C198.764 180.82 199.377 181.24 200.084 181.52C200.804 181.787 201.604 181.92 202.484 181.92C203.324 181.92 204.051 181.827 204.664 181.64C205.277 181.44 205.811 181.227 206.264 181C206.717 180.76 207.104 180.547 207.424 180.36C207.744 180.16 208.037 180.06 208.304 180.06C208.651 180.06 208.917 180.193 209.104 180.46L210.324 182.04C209.817 182.64 209.244 183.147 208.604 183.56C207.964 183.973 207.284 184.313 206.564 184.58C205.844 184.833 205.104 185.013 204.344 185.12C203.584 185.24 202.844 185.3 202.124 185.3C200.711 185.3 199.397 185.067 198.184 184.6C196.984 184.12 195.937 183.42 195.044 182.5C194.164 181.58 193.471 180.44 192.964 179.08C192.471 177.72 192.224 176.153 192.224 174.38C192.224 172.967 192.444 171.647 192.884 170.42C193.337 169.193 193.977 168.127 194.804 167.22C195.644 166.313 196.657 165.6 197.844 165.08C199.044 164.547 200.397 164.28 201.904 164.28C203.157 164.28 204.317 164.487 205.384 164.9C206.451 165.3 207.371 165.893 208.144 166.68C208.917 167.467 209.517 168.433 209.944 169.58C210.384 170.713 210.604 172.007 210.604 173.46C210.604 174.127 210.531 174.573 210.384 174.8C210.237 175.027 209.971 175.14 209.584 175.14H196.484ZM214.614 185V164.6H217.214C217.801 164.6 218.174 164.873 218.334 165.42L218.614 167.2C218.987 166.773 219.374 166.387 219.774 166.04C220.174 165.68 220.601 165.373 221.054 165.12C221.521 164.853 222.014 164.647 222.534 164.5C223.067 164.353 223.641 164.28 224.254 164.28C224.907 164.28 225.507 164.373 226.054 164.56C226.601 164.747 227.081 165.013 227.494 165.36C227.921 165.707 228.287 166.127 228.594 166.62C228.901 167.113 229.154 167.667 229.354 168.28C229.661 167.573 230.047 166.967 230.514 166.46C230.981 165.953 231.501 165.54 232.074 165.22C232.647 164.9 233.254 164.667 233.894 164.52C234.547 164.36 235.207 164.28 235.874 164.28C236.967 164.28 237.941 164.453 238.794 164.8C239.661 165.147 240.387 165.653 240.974 166.32C241.574 166.973 242.027 167.78 242.334 168.74C242.641 169.7 242.794 170.793 242.794 172.02V185H238.494V172.02C238.494 170.58 238.181 169.5 237.554 168.78C236.941 168.047 236.027 167.68 234.814 167.68C234.267 167.68 233.754 167.773 233.274 167.96C232.794 168.147 232.374 168.42 232.014 168.78C231.654 169.14 231.367 169.593 231.154 170.14C230.954 170.673 230.854 171.3 230.854 172.02V185H226.554V172.02C226.554 170.527 226.254 169.433 225.654 168.74C225.054 168.033 224.174 167.68 223.014 167.68C222.214 167.68 221.474 167.887 220.794 168.3C220.114 168.7 219.487 169.253 218.914 169.96V185H214.614Z" fill="#717171"/>
<rect x="341.176" y="170.413" width="241" height="241" transform="rotate(-45 341.176 170.413)" fill="#C29351"/>
<path d="M456.043 161.12C455.896 161.36 455.743 161.54 455.583 161.66C455.423 161.766 455.223 161.82 454.983 161.82C454.729 161.82 454.443 161.713 454.123 161.5C453.816 161.286 453.429 161.053 452.963 160.8C452.509 160.533 451.969 160.293 451.343 160.08C450.716 159.853 449.969 159.74 449.103 159.74C448.303 159.74 447.596 159.84 446.983 160.04C446.383 160.24 445.876 160.52 445.463 160.88C445.049 161.24 444.736 161.666 444.523 162.16C444.323 162.64 444.223 163.166 444.223 163.74C444.223 164.473 444.416 165.086 444.803 165.58C445.189 166.06 445.696 166.473 446.323 166.82C446.963 167.166 447.689 167.473 448.503 167.74C449.316 167.993 450.143 168.266 450.983 168.56C451.836 168.853 452.669 169.186 453.483 169.56C454.296 169.933 455.016 170.406 455.643 170.98C456.283 171.553 456.796 172.253 457.183 173.08C457.569 173.906 457.762 174.913 457.762 176.1C457.762 177.38 457.543 178.58 457.103 179.7C456.663 180.82 456.023 181.8 455.183 182.64C454.356 183.466 453.329 184.12 452.103 184.6C450.889 185.08 449.503 185.32 447.943 185.32C447.023 185.32 446.123 185.226 445.243 185.04C444.376 184.866 443.543 184.62 442.743 184.3C441.956 183.966 441.216 183.566 440.523 183.1C439.829 182.633 439.209 182.113 438.663 181.54L440.023 179.3C440.143 179.113 440.296 178.966 440.483 178.86C440.669 178.753 440.876 178.7 441.103 178.7C441.409 178.7 441.749 178.846 442.123 179.14C442.496 179.42 442.943 179.733 443.463 180.08C443.996 180.413 444.636 180.726 445.383 181.02C446.129 181.3 447.023 181.44 448.063 181.44C449.756 181.44 451.063 181.026 451.983 180.2C452.916 179.373 453.383 178.233 453.383 176.78C453.383 175.966 453.189 175.306 452.803 174.8C452.416 174.28 451.903 173.846 451.263 173.5C450.636 173.153 449.916 172.86 449.103 172.62C448.289 172.38 447.463 172.126 446.623 171.86C445.783 171.58 444.956 171.26 444.143 170.9C443.329 170.526 442.603 170.046 441.963 169.46C441.336 168.86 440.829 168.126 440.443 167.26C440.056 166.38 439.863 165.286 439.863 163.98C439.863 162.94 440.063 161.933 440.463 160.96C440.876 159.986 441.469 159.126 442.243 158.38C443.029 157.62 443.996 157.013 445.143 156.56C446.289 156.106 447.596 155.88 449.063 155.88C450.716 155.88 452.229 156.14 453.603 156.66C454.989 157.18 456.183 157.92 457.183 158.88L456.043 161.12ZM470.76 164.28C472.267 164.28 473.627 164.526 474.84 165.02C476.067 165.513 477.107 166.213 477.96 167.12C478.827 168.026 479.494 169.126 479.96 170.42C480.427 171.713 480.66 173.166 480.66 174.78C480.66 176.393 480.427 177.846 479.96 179.14C479.494 180.433 478.827 181.54 477.96 182.46C477.107 183.366 476.067 184.066 474.84 184.56C473.627 185.053 472.267 185.3 470.76 185.3C469.24 185.3 467.867 185.053 466.64 184.56C465.427 184.066 464.387 183.366 463.52 182.46C462.654 181.54 461.987 180.433 461.52 179.14C461.054 177.846 460.82 176.393 460.82 174.78C460.82 173.166 461.054 171.713 461.52 170.42C461.987 169.126 462.654 168.026 463.52 167.12C464.387 166.213 465.427 165.513 466.64 165.02C467.867 164.526 469.24 164.28 470.76 164.28ZM470.76 181.94C472.6 181.94 473.967 181.326 474.86 180.1C475.767 178.86 476.22 177.093 476.22 174.8C476.22 172.506 475.767 170.74 474.86 169.5C473.967 168.246 472.6 167.62 470.76 167.62C468.894 167.62 467.507 168.246 466.6 169.5C465.694 170.74 465.24 172.506 465.24 174.8C465.24 177.093 465.694 178.86 466.6 180.1C467.507 181.326 468.894 181.94 470.76 181.94ZM489.172 155.4V185H484.872V155.4H489.172ZM511.679 164.6V185H509.079C508.506 185 508.139 184.726 507.979 184.18L507.659 182.28C507.233 182.733 506.779 183.146 506.299 183.52C505.833 183.893 505.333 184.213 504.799 184.48C504.266 184.746 503.693 184.953 503.079 185.1C502.479 185.246 501.833 185.32 501.139 185.32C500.019 185.32 499.033 185.133 498.179 184.76C497.326 184.386 496.606 183.86 496.019 183.18C495.446 182.5 495.013 181.686 494.719 180.74C494.426 179.78 494.279 178.726 494.279 177.58V164.6H498.579V177.58C498.579 178.953 498.893 180.02 499.519 180.78C500.159 181.54 501.126 181.92 502.419 181.92C503.366 181.92 504.246 181.706 505.059 181.28C505.886 180.84 506.659 180.24 507.379 179.48V164.6H511.679ZM536.701 185H532.401V167.98H522.461V179.56C522.461 180.293 522.641 180.853 523.001 181.24C523.361 181.626 523.841 181.82 524.441 181.82C524.775 181.82 525.061 181.78 525.301 181.7C525.541 181.606 525.748 181.513 525.921 181.42C526.095 181.313 526.241 181.22 526.361 181.14C526.495 181.046 526.621 181 526.741 181C526.981 181 527.175 181.133 527.321 181.4L528.601 183.5C527.935 184.086 527.148 184.54 526.241 184.86C525.335 185.166 524.401 185.32 523.441 185.32C521.748 185.32 520.441 184.846 519.521 183.9C518.615 182.94 518.161 181.593 518.161 179.86V167.98H515.921C515.681 167.98 515.475 167.906 515.301 167.76C515.128 167.6 515.041 167.366 515.041 167.06V165.32L518.341 164.84L519.281 158.94C519.348 158.713 519.461 158.533 519.621 158.4C519.781 158.253 519.995 158.18 520.261 158.18H522.461V164.88H536.701V185ZM537.581 158.34C537.581 158.726 537.501 159.093 537.341 159.44C537.195 159.773 536.988 160.073 536.721 160.34C536.455 160.593 536.141 160.8 535.781 160.96C535.435 161.106 535.068 161.18 534.681 161.18C534.295 161.18 533.928 161.106 533.581 160.96C533.248 160.8 532.948 160.593 532.681 160.34C532.428 160.073 532.221 159.773 532.061 159.44C531.915 159.093 531.841 158.726 531.841 158.34C531.841 157.94 531.915 157.566 532.061 157.22C532.221 156.86 532.428 156.553 532.681 156.3C532.948 156.033 533.248 155.826 533.581 155.68C533.928 155.52 534.295 155.44 534.681 155.44C535.068 155.44 535.435 155.52 535.781 155.68C536.141 155.826 536.455 156.033 536.721 156.3C536.988 156.553 537.195 156.86 537.341 157.22C537.501 157.566 537.581 157.94 537.581 158.34ZM550.956 164.28C552.462 164.28 553.822 164.526 555.036 165.02C556.262 165.513 557.302 166.213 558.156 167.12C559.022 168.026 559.689 169.126 560.156 170.42C560.622 171.713 560.856 173.166 560.856 174.78C560.856 176.393 560.622 177.846 560.156 179.14C559.689 180.433 559.022 181.54 558.156 182.46C557.302 183.366 556.262 184.066 555.036 184.56C553.822 185.053 552.462 185.3 550.956 185.3C549.436 185.3 548.062 185.053 546.836 184.56C545.622 184.066 544.582 183.366 543.716 182.46C542.849 181.54 542.182 180.433 541.716 179.14C541.249 177.846 541.016 176.393 541.016 174.78C541.016 173.166 541.249 171.713 541.716 170.42C542.182 169.126 542.849 168.026 543.716 167.12C544.582 166.213 545.622 165.513 546.836 165.02C548.062 164.526 549.436 164.28 550.956 164.28ZM550.956 181.94C552.796 181.94 554.162 181.326 555.056 180.1C555.962 178.86 556.416 177.093 556.416 174.8C556.416 172.506 555.962 170.74 555.056 169.5C554.162 168.246 552.796 167.62 550.956 167.62C549.089 167.62 547.702 168.246 546.796 169.5C545.889 170.74 545.436 172.506 545.436 174.8C545.436 177.093 545.889 178.86 546.796 180.1C547.702 181.326 549.089 181.94 550.956 181.94ZM569.007 167.3C569.447 166.846 569.901 166.44 570.367 166.08C570.847 165.706 571.354 165.386 571.887 165.12C572.421 164.853 572.987 164.646 573.587 164.5C574.187 164.353 574.841 164.28 575.547 164.28C576.667 164.28 577.647 164.466 578.487 164.84C579.341 165.213 580.054 165.74 580.627 166.42C581.214 167.1 581.654 167.92 581.947 168.88C582.241 169.826 582.387 170.873 582.387 172.02V185H578.107V172.02C578.107 170.646 577.787 169.58 577.147 168.82C576.521 168.06 575.561 167.68 574.267 167.68C573.307 167.68 572.414 167.9 571.587 168.34C570.774 168.78 570.007 169.38 569.287 170.14V185H564.987V164.6H567.587C568.174 164.6 568.547 164.873 568.707 165.42L569.007 167.3Z" fill="black"/>
</svg>
