<svg width="1583" height="344" viewBox="0 0 1583 344" fill="none" xmlns="http://www.w3.org/2000/svg">
<rect width="435" height="103" transform="translate(32 32)" fill="#AACFD0"/>
<path d="M185.261 95V71.7273H201.148V76.2955H190.886V81.0682H200.136V85.6477H190.886V95H185.261ZM208.619 95.2955C207.506 95.2955 206.517 95.1098 205.653 94.7386C204.797 94.3598 204.119 93.7917 203.619 93.0341C203.127 92.2689 202.881 91.3106 202.881 90.1591C202.881 89.1894 203.051 88.3712 203.392 87.7045C203.733 87.0379 204.203 86.4962 204.801 86.0795C205.4 85.6629 206.089 85.3485 206.869 85.1364C207.65 84.9167 208.483 84.7689 209.369 84.6932C210.362 84.6023 211.161 84.5076 211.767 84.4091C212.373 84.303 212.813 84.1553 213.085 83.9659C213.366 83.7689 213.506 83.4924 213.506 83.1364V83.0795C213.506 82.4962 213.305 82.0455 212.903 81.7273C212.502 81.4091 211.96 81.25 211.278 81.25C210.544 81.25 209.953 81.4091 209.506 81.7273C209.059 82.0455 208.775 82.4848 208.653 83.0455L203.528 82.8636C203.68 81.803 204.07 80.8561 204.699 80.0227C205.335 79.1818 206.206 78.5227 207.312 78.0455C208.426 77.5606 209.763 77.3182 211.324 77.3182C212.438 77.3182 213.464 77.4508 214.403 77.7159C215.343 77.9735 216.161 78.3523 216.858 78.8523C217.555 79.3447 218.093 79.9508 218.472 80.6705C218.858 81.3902 219.051 82.2121 219.051 83.1364V95H213.824V92.5682H213.688C213.377 93.1591 212.979 93.6591 212.494 94.0682C212.017 94.4773 211.453 94.7841 210.801 94.9886C210.157 95.1932 209.43 95.2955 208.619 95.2955ZM210.335 91.6591C210.934 91.6591 211.472 91.5379 211.949 91.2955C212.434 91.053 212.82 90.7197 213.108 90.2955C213.396 89.8636 213.54 89.3636 213.54 88.7955V87.1364C213.381 87.2197 213.188 87.2955 212.96 87.3636C212.741 87.4318 212.498 87.4962 212.233 87.5568C211.968 87.6174 211.695 87.6705 211.415 87.7159C211.134 87.7614 210.866 87.803 210.608 87.8409C210.085 87.9242 209.638 88.053 209.267 88.2273C208.903 88.4015 208.623 88.6288 208.426 88.9091C208.237 89.1818 208.142 89.5076 208.142 89.8864C208.142 90.4621 208.347 90.9015 208.756 91.2045C209.172 91.5076 209.699 91.6591 210.335 91.6591ZM222.449 95V77.5455H227.733V80.75H227.926C228.29 79.6894 228.903 78.8523 229.767 78.2386C230.631 77.625 231.661 77.3182 232.858 77.3182C234.07 77.3182 235.108 77.6288 235.972 78.25C236.835 78.8712 237.384 79.7045 237.619 80.75H237.801C238.127 79.7121 238.763 78.8826 239.71 78.2614C240.657 77.6326 241.775 77.3182 243.062 77.3182C244.714 77.3182 246.055 77.8485 247.085 78.9091C248.116 79.9621 248.631 81.4091 248.631 83.25V95H243.074V84.5227C243.074 83.6515 242.85 82.9886 242.403 82.5341C241.956 82.072 241.377 81.8409 240.665 81.8409C239.9 81.8409 239.297 82.0909 238.858 82.5909C238.426 83.0833 238.21 83.7462 238.21 84.5795V95H232.869V84.4659C232.869 83.6553 232.65 83.0152 232.21 82.5455C231.771 82.0758 231.191 81.8409 230.472 81.8409C229.987 81.8409 229.559 81.9583 229.188 82.1932C228.816 82.4205 228.525 82.7462 228.312 83.1705C228.108 83.5947 228.006 84.0947 228.006 84.6705V95H222.449ZM252.074 95V77.5455H257.631V95H252.074ZM254.858 75.5114C254.078 75.5114 253.407 75.2538 252.847 74.7386C252.286 74.2159 252.006 73.5871 252.006 72.8523C252.006 72.125 252.286 71.5038 252.847 70.9886C253.407 70.4659 254.078 70.2045 254.858 70.2045C255.646 70.2045 256.316 70.4659 256.869 70.9886C257.43 71.5038 257.71 72.125 257.71 72.8523C257.71 73.5871 257.43 74.2159 256.869 74.7386C256.316 75.2538 255.646 75.5114 254.858 75.5114ZM266.724 71.7273V95H261.168V71.7273H266.724ZM270.261 95V77.5455H275.818V95H270.261ZM273.045 75.5114C272.265 75.5114 271.595 75.2538 271.034 74.7386C270.473 74.2159 270.193 73.5871 270.193 72.8523C270.193 72.125 270.473 71.5038 271.034 70.9886C271.595 70.4659 272.265 70.2045 273.045 70.2045C273.833 70.2045 274.504 70.4659 275.057 70.9886C275.617 71.5038 275.898 72.125 275.898 72.8523C275.898 73.5871 275.617 74.2159 275.057 74.7386C274.504 75.2538 273.833 75.5114 273.045 75.5114ZM287.514 95.3295C285.688 95.3295 284.113 94.9697 282.787 94.25C281.469 93.5227 280.454 92.4886 279.741 91.1477C279.037 89.7992 278.685 88.197 278.685 86.3409C278.685 84.5379 279.041 82.9621 279.753 81.6136C280.465 80.2576 281.469 79.2045 282.764 78.4545C284.06 77.697 285.586 77.3182 287.344 77.3182C288.586 77.3182 289.723 77.5114 290.753 77.8977C291.783 78.2841 292.673 78.8561 293.423 79.6136C294.173 80.3712 294.757 81.3068 295.173 82.4205C295.59 83.5265 295.798 84.7955 295.798 86.2273V87.6136H280.628V84.3864H290.628C290.62 83.7955 290.48 83.2689 290.207 82.8068C289.935 82.3447 289.56 81.9848 289.082 81.7273C288.613 81.4621 288.071 81.3295 287.457 81.3295C286.836 81.3295 286.279 81.4697 285.787 81.75C285.295 82.0227 284.904 82.3977 284.616 82.875C284.329 83.3447 284.177 83.8788 284.162 84.4773V87.7614C284.162 88.4735 284.302 89.0985 284.582 89.6364C284.863 90.1667 285.26 90.5795 285.776 90.875C286.291 91.1705 286.904 91.3182 287.616 91.3182C288.109 91.3182 288.556 91.25 288.957 91.1136C289.359 90.9773 289.704 90.7765 289.991 90.5114C290.279 90.2462 290.495 89.9205 290.639 89.5341L295.741 89.6818C295.529 90.8258 295.063 91.822 294.344 92.6705C293.632 93.5114 292.696 94.1667 291.537 94.6364C290.378 95.0985 289.037 95.3295 287.514 95.3295ZM313.875 82.875L308.773 83.0114C308.72 82.6477 308.576 82.3258 308.341 82.0455C308.106 81.7576 307.799 81.5341 307.42 81.375C307.049 81.2083 306.617 81.125 306.125 81.125C305.481 81.125 304.932 81.2538 304.477 81.5114C304.03 81.7689 303.811 82.1174 303.818 82.5568C303.811 82.8977 303.947 83.1932 304.227 83.4432C304.515 83.6932 305.027 83.8939 305.761 84.0455L309.125 84.6818C310.867 85.0152 312.163 85.5682 313.011 86.3409C313.867 87.1136 314.299 88.1364 314.307 89.4091C314.299 90.6061 313.943 91.6477 313.239 92.5341C312.542 93.4205 311.587 94.1098 310.375 94.6023C309.163 95.0871 307.777 95.3295 306.216 95.3295C303.723 95.3295 301.758 94.8182 300.318 93.7955C298.886 92.7652 298.068 91.3864 297.864 89.6591L303.352 89.5227C303.473 90.1591 303.788 90.6439 304.295 90.9773C304.803 91.3106 305.451 91.4773 306.239 91.4773C306.951 91.4773 307.53 91.3447 307.977 91.0795C308.424 90.8144 308.652 90.4621 308.659 90.0227C308.652 89.6288 308.477 89.3144 308.136 89.0795C307.795 88.8371 307.261 88.6477 306.534 88.5114L303.489 87.9318C301.739 87.6136 300.436 87.0265 299.58 86.1705C298.723 85.3068 298.299 84.2083 298.307 82.875C298.299 81.7083 298.61 80.7121 299.239 79.8864C299.867 79.053 300.761 78.4167 301.92 77.9773C303.08 77.5379 304.447 77.3182 306.023 77.3182C308.386 77.3182 310.25 77.8144 311.614 78.8068C312.977 79.7917 313.731 81.1477 313.875 82.875Z" fill="black"/>
<rect width="435" height="177" transform="translate(32 135)" fill="#AACFD0" fill-opacity="0.5"/>
<path d="M50.8182 182V158.727H64.7727V161.227H53.6364V169.091H63.7273V171.591H53.6364V182H50.8182ZM74.3722 182.409C73.2661 182.409 72.2623 182.201 71.3608 181.784C70.4593 181.36 69.7434 180.75 69.2131 179.955C68.6828 179.152 68.4176 178.182 68.4176 177.045C68.4176 176.045 68.6146 175.235 69.0085 174.614C69.4025 173.985 69.929 173.492 70.5881 173.136C71.2472 172.78 71.9744 172.515 72.7699 172.341C73.5729 172.159 74.3797 172.015 75.1903 171.909C76.2509 171.773 77.1108 171.67 77.7699 171.602C78.4366 171.527 78.9214 171.402 79.2244 171.227C79.535 171.053 79.6903 170.75 79.6903 170.318V170.227C79.6903 169.106 79.3835 168.235 78.7699 167.614C78.1638 166.992 77.2434 166.682 76.0085 166.682C74.7282 166.682 73.7244 166.962 72.9972 167.523C72.2699 168.083 71.7585 168.682 71.4631 169.318L68.9176 168.409C69.3722 167.348 69.9782 166.523 70.7358 165.932C71.5009 165.333 72.3343 164.917 73.2358 164.682C74.1449 164.439 75.0388 164.318 75.9176 164.318C76.4782 164.318 77.1222 164.386 77.8494 164.523C78.5843 164.652 79.2926 164.92 79.9744 165.33C80.6638 165.739 81.2358 166.356 81.6903 167.182C82.1449 168.008 82.3722 169.114 82.3722 170.5V182H79.6903V179.636H79.554C79.3722 180.015 79.0691 180.42 78.6449 180.852C78.2206 181.284 77.6563 181.652 76.9517 181.955C76.2472 182.258 75.3873 182.409 74.3722 182.409ZM74.7812 180C75.8419 180 76.7358 179.792 77.4631 179.375C78.1979 178.958 78.7509 178.42 79.1222 177.761C79.5009 177.102 79.6903 176.409 79.6903 175.682V173.227C79.5767 173.364 79.3267 173.489 78.9403 173.602C78.5616 173.708 78.1222 173.803 77.6222 173.886C77.1297 173.962 76.6487 174.03 76.179 174.091C75.7169 174.144 75.3419 174.189 75.054 174.227C74.357 174.318 73.7055 174.466 73.0994 174.67C72.5009 174.867 72.0161 175.167 71.6449 175.568C71.2813 175.962 71.0994 176.5 71.0994 177.182C71.0994 178.114 71.4441 178.818 72.1335 179.295C72.8305 179.765 73.7131 180 74.7812 180ZM94.358 182.364C92.7216 182.364 91.3125 181.977 90.1307 181.205C88.9489 180.432 88.0398 179.367 87.4034 178.011C86.767 176.655 86.4489 175.106 86.4489 173.364C86.4489 171.591 86.7746 170.027 87.4261 168.67C88.0852 167.307 89.0019 166.242 90.1761 165.477C91.358 164.705 92.7367 164.318 94.3125 164.318C95.5398 164.318 96.6458 164.545 97.6307 165C98.6155 165.455 99.4223 166.091 100.051 166.909C100.68 167.727 101.07 168.682 101.222 169.773H98.5398C98.3352 168.977 97.8807 168.273 97.1761 167.659C96.4792 167.038 95.5398 166.727 94.358 166.727C93.3125 166.727 92.3958 167 91.608 167.545C90.8277 168.083 90.2178 168.845 89.7784 169.83C89.3466 170.807 89.1307 171.955 89.1307 173.273C89.1307 174.621 89.3428 175.795 89.767 176.795C90.1989 177.795 90.8049 178.572 91.5852 179.125C92.3731 179.678 93.2973 179.955 94.358 179.955C95.0549 179.955 95.6875 179.833 96.2557 179.591C96.8239 179.348 97.3049 179 97.6989 178.545C98.0928 178.091 98.3731 177.545 98.5398 176.909H101.222C101.07 177.939 100.695 178.867 100.097 179.693C99.5057 180.511 98.7216 181.163 97.7443 181.648C96.7746 182.125 95.6458 182.364 94.358 182.364ZM105.142 182V164.545H107.824V182H105.142ZM106.506 161.636C105.983 161.636 105.532 161.458 105.153 161.102C104.782 160.746 104.597 160.318 104.597 159.818C104.597 159.318 104.782 158.89 105.153 158.534C105.532 158.178 105.983 158 106.506 158C107.028 158 107.475 158.178 107.847 158.534C108.225 158.89 108.415 159.318 108.415 159.818C108.415 160.318 108.225 160.746 107.847 161.102C107.475 161.458 107.028 161.636 106.506 161.636ZM115.418 158.727V182H112.736V158.727H115.418ZM120.33 182V164.545H123.011V182H120.33ZM121.693 161.636C121.17 161.636 120.72 161.458 120.341 161.102C119.97 160.746 119.784 160.318 119.784 159.818C119.784 159.318 119.97 158.89 120.341 158.534C120.72 158.178 121.17 158 121.693 158C122.216 158 122.663 158.178 123.034 158.534C123.413 158.89 123.602 159.318 123.602 159.818C123.602 160.318 123.413 160.746 123.034 161.102C122.663 161.458 122.216 161.636 121.693 161.636ZM135.514 164.545V166.818H126.469V164.545H135.514ZM129.105 160.364H131.787V177C131.787 177.758 131.897 178.326 132.116 178.705C132.344 179.076 132.632 179.326 132.98 179.455C133.336 179.576 133.711 179.636 134.105 179.636C134.401 179.636 134.643 179.621 134.832 179.591C135.022 179.553 135.173 179.523 135.287 179.5L135.832 181.909C135.651 181.977 135.397 182.045 135.071 182.114C134.745 182.189 134.332 182.227 133.832 182.227C133.075 182.227 132.332 182.064 131.605 181.739C130.885 181.413 130.287 180.917 129.81 180.25C129.34 179.583 129.105 178.742 129.105 177.727V160.364ZM144.685 182.409C143.579 182.409 142.575 182.201 141.673 181.784C140.772 181.36 140.056 180.75 139.526 179.955C138.995 179.152 138.73 178.182 138.73 177.045C138.73 176.045 138.927 175.235 139.321 174.614C139.715 173.985 140.241 173.492 140.901 173.136C141.56 172.78 142.287 172.515 143.082 172.341C143.885 172.159 144.692 172.015 145.503 171.909C146.563 171.773 147.423 171.67 148.082 171.602C148.749 171.527 149.234 171.402 149.537 171.227C149.848 171.053 150.003 170.75 150.003 170.318V170.227C150.003 169.106 149.696 168.235 149.082 167.614C148.476 166.992 147.556 166.682 146.321 166.682C145.041 166.682 144.037 166.962 143.31 167.523C142.582 168.083 142.071 168.682 141.776 169.318L139.23 168.409C139.685 167.348 140.291 166.523 141.048 165.932C141.813 165.333 142.647 164.917 143.548 164.682C144.457 164.439 145.351 164.318 146.23 164.318C146.791 164.318 147.435 164.386 148.162 164.523C148.897 164.652 149.605 164.92 150.287 165.33C150.976 165.739 151.548 166.356 152.003 167.182C152.457 168.008 152.685 169.114 152.685 170.5V182H150.003V179.636H149.866C149.685 180.015 149.382 180.42 148.957 180.852C148.533 181.284 147.969 181.652 147.264 181.955C146.56 182.258 145.7 182.409 144.685 182.409ZM145.094 180C146.154 180 147.048 179.792 147.776 179.375C148.51 178.958 149.063 178.42 149.435 177.761C149.813 177.102 150.003 176.409 150.003 175.682V173.227C149.889 173.364 149.639 173.489 149.253 173.602C148.874 173.708 148.435 173.803 147.935 173.886C147.442 173.962 146.961 174.03 146.491 174.091C146.029 174.144 145.654 174.189 145.366 174.227C144.67 174.318 144.018 174.466 143.412 174.67C142.813 174.867 142.329 175.167 141.957 175.568C141.594 175.962 141.412 176.5 141.412 177.182C141.412 178.114 141.757 178.818 142.446 179.295C143.143 179.765 144.026 180 145.094 180ZM165.17 164.545V166.818H156.125V164.545H165.17ZM158.761 160.364H161.443V177C161.443 177.758 161.553 178.326 161.773 178.705C162 179.076 162.288 179.326 162.636 179.455C162.992 179.576 163.367 179.636 163.761 179.636C164.057 179.636 164.299 179.621 164.489 179.591C164.678 179.553 164.83 179.523 164.943 179.5L165.489 181.909C165.307 181.977 165.053 182.045 164.727 182.114C164.402 182.189 163.989 182.227 163.489 182.227C162.731 182.227 161.989 182.064 161.261 181.739C160.542 181.413 159.943 180.917 159.466 180.25C158.996 179.583 158.761 178.742 158.761 177.727V160.364ZM176.335 182.364C174.653 182.364 173.203 181.992 171.983 181.25C170.771 180.5 169.835 179.455 169.176 178.114C168.525 176.765 168.199 175.197 168.199 173.409C168.199 171.621 168.525 170.045 169.176 168.682C169.835 167.311 170.752 166.242 171.926 165.477C173.108 164.705 174.487 164.318 176.062 164.318C176.972 164.318 177.869 164.47 178.756 164.773C179.642 165.076 180.449 165.568 181.176 166.25C181.903 166.924 182.483 167.818 182.915 168.932C183.347 170.045 183.562 171.417 183.562 173.045V174.182H170.108V171.864H180.835C180.835 170.879 180.638 170 180.244 169.227C179.858 168.455 179.305 167.845 178.585 167.398C177.873 166.951 177.032 166.727 176.062 166.727C174.994 166.727 174.07 166.992 173.29 167.523C172.517 168.045 171.922 168.727 171.506 169.568C171.089 170.409 170.881 171.311 170.881 172.273V173.818C170.881 175.136 171.108 176.254 171.562 177.17C172.025 178.08 172.665 178.773 173.483 179.25C174.301 179.72 175.252 179.955 176.335 179.955C177.04 179.955 177.676 179.856 178.244 179.659C178.82 179.455 179.316 179.152 179.733 178.75C180.15 178.341 180.472 177.833 180.699 177.227L183.29 177.955C183.017 178.833 182.559 179.606 181.915 180.273C181.271 180.932 180.475 181.447 179.528 181.818C178.581 182.182 177.517 182.364 176.335 182.364ZM204.233 164.545V166.818H195.188V164.545H204.233ZM197.824 160.364H200.506V177C200.506 177.758 200.616 178.326 200.835 178.705C201.063 179.076 201.35 179.326 201.699 179.455C202.055 179.576 202.43 179.636 202.824 179.636C203.119 179.636 203.362 179.621 203.551 179.591C203.741 179.553 203.892 179.523 204.006 179.5L204.551 181.909C204.369 181.977 204.116 182.045 203.79 182.114C203.464 182.189 203.051 182.227 202.551 182.227C201.794 182.227 201.051 182.064 200.324 181.739C199.604 181.413 199.006 180.917 198.528 180.25C198.059 179.583 197.824 178.742 197.824 177.727V160.364ZM211.324 171.5V182H208.642V158.727H211.324V167.273H211.551C211.96 166.371 212.574 165.655 213.392 165.125C214.218 164.587 215.316 164.318 216.688 164.318C217.877 164.318 218.919 164.557 219.812 165.034C220.706 165.504 221.4 166.227 221.892 167.205C222.392 168.174 222.642 169.409 222.642 170.909V182H219.96V171.091C219.96 169.705 219.6 168.633 218.881 167.875C218.169 167.11 217.18 166.727 215.915 166.727C215.036 166.727 214.248 166.913 213.551 167.284C212.862 167.655 212.316 168.197 211.915 168.909C211.521 169.621 211.324 170.485 211.324 171.5ZM234.866 182.364C233.185 182.364 231.734 181.992 230.514 181.25C229.302 180.5 228.366 179.455 227.707 178.114C227.056 176.765 226.73 175.197 226.73 173.409C226.73 171.621 227.056 170.045 227.707 168.682C228.366 167.311 229.283 166.242 230.457 165.477C231.639 164.705 233.018 164.318 234.594 164.318C235.503 164.318 236.401 164.47 237.287 164.773C238.173 165.076 238.98 165.568 239.707 166.25C240.435 166.924 241.014 167.818 241.446 168.932C241.878 170.045 242.094 171.417 242.094 173.045V174.182H228.639V171.864H239.366C239.366 170.879 239.17 170 238.776 169.227C238.389 168.455 237.836 167.845 237.116 167.398C236.404 166.951 235.563 166.727 234.594 166.727C233.526 166.727 232.601 166.992 231.821 167.523C231.048 168.045 230.454 168.727 230.037 169.568C229.62 170.409 229.412 171.311 229.412 172.273V173.818C229.412 175.136 229.639 176.254 230.094 177.17C230.556 178.08 231.196 178.773 232.014 179.25C232.832 179.72 233.783 179.955 234.866 179.955C235.571 179.955 236.207 179.856 236.776 179.659C237.351 179.455 237.848 179.152 238.264 178.75C238.681 178.341 239.003 177.833 239.23 177.227L241.821 177.955C241.548 178.833 241.09 179.606 240.446 180.273C239.802 180.932 239.007 181.447 238.06 181.818C237.113 182.182 236.048 182.364 234.866 182.364ZM246.173 182V164.545H248.855V182H246.173ZM247.537 161.636C247.014 161.636 246.563 161.458 246.185 161.102C245.813 160.746 245.628 160.318 245.628 159.818C245.628 159.318 245.813 158.89 246.185 158.534C246.563 158.178 247.014 158 247.537 158C248.06 158 248.507 158.178 248.878 158.534C249.257 158.89 249.446 159.318 249.446 159.818C249.446 160.318 249.257 160.746 248.878 161.102C248.507 161.458 248.06 161.636 247.537 161.636ZM253.767 182V164.545H256.358V167.182H256.54C256.858 166.318 257.434 165.617 258.267 165.08C259.1 164.542 260.04 164.273 261.085 164.273C261.282 164.273 261.528 164.277 261.824 164.284C262.119 164.292 262.343 164.303 262.494 164.318V167.045C262.403 167.023 262.195 166.989 261.869 166.943C261.551 166.89 261.214 166.864 260.858 166.864C260.009 166.864 259.252 167.042 258.585 167.398C257.926 167.746 257.403 168.231 257.017 168.852C256.638 169.466 256.449 170.167 256.449 170.955V182H253.767ZM281.719 188.909C280.423 188.909 279.31 188.742 278.378 188.409C277.446 188.083 276.67 187.652 276.048 187.114C275.435 186.583 274.946 186.015 274.582 185.409L276.719 183.909C276.961 184.227 277.268 184.591 277.639 185C278.01 185.417 278.518 185.777 279.162 186.08C279.813 186.39 280.666 186.545 281.719 186.545C283.128 186.545 284.291 186.205 285.207 185.523C286.124 184.841 286.582 183.773 286.582 182.318V178.773H286.355C286.158 179.091 285.878 179.485 285.514 179.955C285.158 180.417 284.643 180.83 283.969 181.193C283.302 181.549 282.401 181.727 281.264 181.727C279.855 181.727 278.59 181.394 277.469 180.727C276.355 180.061 275.473 179.091 274.821 177.818C274.177 176.545 273.855 175 273.855 173.182C273.855 171.394 274.17 169.837 274.798 168.511C275.427 167.178 276.302 166.148 277.423 165.42C278.545 164.686 279.84 164.318 281.31 164.318C282.446 164.318 283.348 164.508 284.014 164.886C284.688 165.258 285.204 165.682 285.56 166.159C285.923 166.629 286.204 167.015 286.401 167.318H286.673V164.545H289.264V182.5C289.264 184 288.923 185.22 288.241 186.159C287.567 187.106 286.658 187.799 285.514 188.239C284.378 188.686 283.113 188.909 281.719 188.909ZM281.628 179.318C282.704 179.318 283.613 179.072 284.355 178.58C285.098 178.087 285.662 177.379 286.048 176.455C286.435 175.53 286.628 174.424 286.628 173.136C286.628 171.879 286.438 170.769 286.06 169.807C285.681 168.845 285.12 168.091 284.378 167.545C283.635 167 282.719 166.727 281.628 166.727C280.491 166.727 279.545 167.015 278.787 167.591C278.037 168.167 277.473 168.939 277.094 169.909C276.723 170.879 276.537 171.955 276.537 173.136C276.537 174.348 276.726 175.42 277.105 176.352C277.491 177.277 278.06 178.004 278.81 178.534C279.567 179.057 280.507 179.318 281.628 179.318ZM294.173 182V164.545H296.764V167.182H296.946C297.264 166.318 297.84 165.617 298.673 165.08C299.507 164.542 300.446 164.273 301.491 164.273C301.688 164.273 301.935 164.277 302.23 164.284C302.526 164.292 302.749 164.303 302.901 164.318V167.045C302.81 167.023 302.601 166.989 302.276 166.943C301.957 166.89 301.62 166.864 301.264 166.864C300.416 166.864 299.658 167.042 298.991 167.398C298.332 167.746 297.81 168.231 297.423 168.852C297.045 169.466 296.855 170.167 296.855 170.955V182H294.173ZM306.08 182V164.545H308.761V182H306.08ZM307.443 161.636C306.92 161.636 306.47 161.458 306.091 161.102C305.72 160.746 305.534 160.318 305.534 159.818C305.534 159.318 305.72 158.89 306.091 158.534C306.47 158.178 306.92 158 307.443 158C307.966 158 308.413 158.178 308.784 158.534C309.163 158.89 309.352 159.318 309.352 159.818C309.352 160.318 309.163 160.746 308.784 161.102C308.413 161.458 307.966 161.636 307.443 161.636ZM320.991 182.364C319.31 182.364 317.859 181.992 316.639 181.25C315.427 180.5 314.491 179.455 313.832 178.114C313.181 176.765 312.855 175.197 312.855 173.409C312.855 171.621 313.181 170.045 313.832 168.682C314.491 167.311 315.408 166.242 316.582 165.477C317.764 164.705 319.143 164.318 320.719 164.318C321.628 164.318 322.526 164.47 323.412 164.773C324.298 165.076 325.105 165.568 325.832 166.25C326.56 166.924 327.139 167.818 327.571 168.932C328.003 170.045 328.219 171.417 328.219 173.045V174.182H314.764V171.864H325.491C325.491 170.879 325.295 170 324.901 169.227C324.514 168.455 323.961 167.845 323.241 167.398C322.529 166.951 321.688 166.727 320.719 166.727C319.651 166.727 318.726 166.992 317.946 167.523C317.173 168.045 316.579 168.727 316.162 169.568C315.745 170.409 315.537 171.311 315.537 172.273V173.818C315.537 175.136 315.764 176.254 316.219 177.17C316.681 178.08 317.321 178.773 318.139 179.25C318.957 179.72 319.908 179.955 320.991 179.955C321.696 179.955 322.332 179.856 322.901 179.659C323.476 179.455 323.973 179.152 324.389 178.75C324.806 178.341 325.128 177.833 325.355 177.227L327.946 177.955C327.673 178.833 327.215 179.606 326.571 180.273C325.927 180.932 325.132 181.447 324.185 181.818C323.238 182.182 322.173 182.364 320.991 182.364ZM340.071 164.545V166.818H330.662V164.545H340.071ZM333.48 182V162.136C333.48 161.136 333.715 160.303 334.185 159.636C334.654 158.97 335.264 158.47 336.014 158.136C336.764 157.803 337.556 157.636 338.389 157.636C339.048 157.636 339.586 157.689 340.003 157.795C340.42 157.902 340.73 158 340.935 158.091L340.162 160.409C340.026 160.364 339.836 160.307 339.594 160.239C339.359 160.17 339.048 160.136 338.662 160.136C337.776 160.136 337.135 160.36 336.741 160.807C336.355 161.254 336.162 161.909 336.162 162.773V182H333.48ZM355.474 168.455L353.065 169.136C352.914 168.735 352.69 168.345 352.395 167.966C352.107 167.58 351.713 167.261 351.213 167.011C350.713 166.761 350.073 166.636 349.293 166.636C348.224 166.636 347.334 166.883 346.622 167.375C345.918 167.86 345.565 168.477 345.565 169.227C345.565 169.894 345.808 170.42 346.293 170.807C346.777 171.193 347.535 171.515 348.565 171.773L351.156 172.409C352.717 172.788 353.88 173.367 354.645 174.148C355.41 174.92 355.793 175.917 355.793 177.136C355.793 178.136 355.505 179.03 354.929 179.818C354.361 180.606 353.565 181.227 352.543 181.682C351.52 182.136 350.33 182.364 348.974 182.364C347.194 182.364 345.721 181.977 344.554 181.205C343.387 180.432 342.649 179.303 342.338 177.818L344.884 177.182C345.126 178.121 345.584 178.826 346.259 179.295C346.94 179.765 347.83 180 348.929 180C350.179 180 351.171 179.735 351.906 179.205C352.649 178.667 353.02 178.023 353.02 177.273C353.02 176.667 352.808 176.159 352.384 175.75C351.959 175.333 351.308 175.023 350.429 174.818L347.52 174.136C345.921 173.758 344.747 173.17 343.997 172.375C343.255 171.572 342.884 170.568 342.884 169.364C342.884 168.379 343.16 167.508 343.713 166.75C344.274 165.992 345.035 165.398 345.997 164.966C346.967 164.534 348.065 164.318 349.293 164.318C351.02 164.318 352.376 164.697 353.361 165.455C354.353 166.212 355.058 167.212 355.474 168.455Z" fill="black"/>
<rect width="435" height="103" transform="translate(574 32)" fill="#AACFD0"/>
<path d="M643.261 95V71.7273H659.148V76.2955H648.886V81.0682H658.136V85.6477H648.886V95H643.261ZM672.148 87.4659V77.5455H677.693V95H672.398V91.75H672.216C671.83 92.8182 671.17 93.6667 670.239 94.2955C669.314 94.9167 668.197 95.2273 666.886 95.2273C665.697 95.2273 664.652 94.9545 663.75 94.4091C662.848 93.8636 662.148 93.1023 661.648 92.125C661.148 91.1402 660.894 89.9886 660.886 88.6705V77.5455H666.443V87.5795C666.451 88.5265 666.701 89.2727 667.193 89.8182C667.686 90.3636 668.356 90.6364 669.205 90.6364C669.758 90.6364 670.254 90.5152 670.693 90.2727C671.14 90.0227 671.492 89.6629 671.75 89.1932C672.015 88.7159 672.148 88.1402 672.148 87.4659ZM686.787 85.0455V95H681.23V77.5455H686.514V80.75H686.707C687.094 79.6818 687.753 78.8447 688.685 78.2386C689.616 77.625 690.726 77.3182 692.014 77.3182C693.241 77.3182 694.306 77.5947 695.207 78.1477C696.116 78.6932 696.821 79.4583 697.321 80.4432C697.829 81.4205 698.079 82.5644 698.071 83.875V95H692.514V84.9659C692.522 83.9962 692.276 83.2386 691.776 82.6932C691.283 82.1477 690.598 81.875 689.719 81.875C689.135 81.875 688.62 82.0038 688.173 82.2614C687.734 82.5114 687.393 82.8712 687.151 83.3409C686.916 83.8106 686.795 84.3788 686.787 85.0455ZM709.67 95.3295C707.845 95.3295 706.269 94.9697 704.943 94.25C703.625 93.5227 702.61 92.4886 701.898 91.1477C701.193 89.7992 700.841 88.197 700.841 86.3409C700.841 84.5379 701.197 82.9621 701.909 81.6136C702.621 80.2576 703.625 79.2045 704.92 78.4545C706.216 77.697 707.742 77.3182 709.5 77.3182C710.742 77.3182 711.879 77.5114 712.909 77.8977C713.939 78.2841 714.83 78.8561 715.58 79.6136C716.33 80.3712 716.913 81.3068 717.33 82.4205C717.746 83.5265 717.955 84.7955 717.955 86.2273V87.6136H702.784V84.3864H712.784C712.777 83.7955 712.636 83.2689 712.364 82.8068C712.091 82.3447 711.716 81.9848 711.239 81.7273C710.769 81.4621 710.227 81.3295 709.614 81.3295C708.992 81.3295 708.436 81.4697 707.943 81.75C707.451 82.0227 707.061 82.3977 706.773 82.875C706.485 83.3447 706.333 83.8788 706.318 84.4773V87.7614C706.318 88.4735 706.458 89.0985 706.739 89.6364C707.019 90.1667 707.417 90.5795 707.932 90.875C708.447 91.1705 709.061 91.3182 709.773 91.3182C710.265 91.3182 710.712 91.25 711.114 91.1136C711.515 90.9773 711.86 90.7765 712.148 90.5114C712.436 90.2462 712.652 89.9205 712.795 89.5341L717.898 89.6818C717.686 90.8258 717.22 91.822 716.5 92.6705C715.788 93.5114 714.852 94.1667 713.693 94.6364C712.534 95.0985 711.193 95.3295 709.67 95.3295ZM720.793 95V77.5455H726.19V80.7273H726.372C726.69 79.5758 727.209 78.7197 727.929 78.1591C728.649 77.5909 729.486 77.3068 730.44 77.3068C730.698 77.3068 730.963 77.3258 731.236 77.3636C731.509 77.3939 731.762 77.4432 731.997 77.5114V82.3409C731.732 82.25 731.384 82.178 730.952 82.125C730.527 82.072 730.149 82.0455 729.815 82.0455C729.156 82.0455 728.562 82.1932 728.031 82.4886C727.509 82.7765 727.096 83.1818 726.793 83.7045C726.497 84.2197 726.349 84.8258 726.349 85.5227V95H720.793ZM738.526 95.2955C737.412 95.2955 736.423 95.1098 735.56 94.7386C734.704 94.3598 734.026 93.7917 733.526 93.0341C733.033 92.2689 732.787 91.3106 732.787 90.1591C732.787 89.1894 732.957 88.3712 733.298 87.7045C733.639 87.0379 734.109 86.4962 734.707 86.0795C735.306 85.6629 735.995 85.3485 736.776 85.1364C737.556 84.9167 738.389 84.7689 739.276 84.6932C740.268 84.6023 741.067 84.5076 741.673 84.4091C742.279 84.303 742.719 84.1553 742.991 83.9659C743.272 83.7689 743.412 83.4924 743.412 83.1364V83.0795C743.412 82.4962 743.211 82.0455 742.81 81.7273C742.408 81.4091 741.866 81.25 741.185 81.25C740.45 81.25 739.859 81.4091 739.412 81.7273C738.965 82.0455 738.681 82.4848 738.56 83.0455L733.435 82.8636C733.586 81.803 733.976 80.8561 734.605 80.0227C735.241 79.1818 736.113 78.5227 737.219 78.0455C738.332 77.5606 739.67 77.3182 741.23 77.3182C742.344 77.3182 743.37 77.4508 744.31 77.7159C745.249 77.9735 746.067 78.3523 746.764 78.8523C747.461 79.3447 747.999 79.9508 748.378 80.6705C748.764 81.3902 748.957 82.2121 748.957 83.1364V95H743.73V92.5682H743.594C743.283 93.1591 742.885 93.6591 742.401 94.0682C741.923 94.4773 741.359 94.7841 740.707 94.9886C740.063 95.1932 739.336 95.2955 738.526 95.2955ZM740.241 91.6591C740.84 91.6591 741.378 91.5379 741.855 91.2955C742.34 91.053 742.726 90.7197 743.014 90.2955C743.302 89.8636 743.446 89.3636 743.446 88.7955V87.1364C743.287 87.2197 743.094 87.2955 742.866 87.3636C742.647 87.4318 742.404 87.4962 742.139 87.5568C741.874 87.6174 741.601 87.6705 741.321 87.7159C741.041 87.7614 740.772 87.803 740.514 87.8409C739.991 87.9242 739.545 88.053 739.173 88.2273C738.81 88.4015 738.529 88.6288 738.332 88.9091C738.143 89.1818 738.048 89.5076 738.048 89.8864C738.048 90.4621 738.253 90.9015 738.662 91.2045C739.079 91.5076 739.605 91.6591 740.241 91.6591ZM757.912 71.7273V95H752.355V71.7273H757.912ZM776.472 95.3295C774.631 95.3295 773.051 94.9508 771.733 94.1932C770.422 93.4356 769.415 92.3826 768.71 91.0341C768.006 89.678 767.653 88.1098 767.653 86.3295C767.653 84.5417 768.006 82.9735 768.71 81.625C769.422 80.2689 770.434 79.2121 771.744 78.4545C773.063 77.697 774.634 77.3182 776.46 77.3182C778.074 77.3182 779.479 77.6098 780.676 78.1932C781.881 78.7765 782.82 79.6023 783.494 80.6705C784.176 81.7311 784.536 82.9773 784.574 84.4091H779.381C779.275 83.5152 778.972 82.8144 778.472 82.3068C777.979 81.7992 777.335 81.5455 776.54 81.5455C775.896 81.5455 775.331 81.7273 774.847 82.0909C774.362 82.447 773.983 82.9773 773.71 83.6818C773.445 84.3788 773.312 85.2424 773.312 86.2727C773.312 87.303 773.445 88.1742 773.71 88.8864C773.983 89.5909 774.362 90.125 774.847 90.4886C775.331 90.8447 775.896 91.0227 776.54 91.0227C777.055 91.0227 777.509 90.9129 777.903 90.6932C778.305 90.4735 778.634 90.1515 778.892 89.7273C779.15 89.2955 779.312 88.7727 779.381 88.1591H784.574C784.521 89.5985 784.161 90.8561 783.494 91.9318C782.835 93.0076 781.907 93.8447 780.71 94.4432C779.521 95.0341 778.108 95.3295 776.472 95.3295ZM795.565 95.3295C793.732 95.3295 792.156 94.9545 790.838 94.2045C789.527 93.447 788.516 92.3939 787.804 91.0455C787.099 89.6894 786.747 88.1174 786.747 86.3295C786.747 84.5341 787.099 82.9621 787.804 81.6136C788.516 80.2576 789.527 79.2045 790.838 78.4545C792.156 77.697 793.732 77.3182 795.565 77.3182C797.399 77.3182 798.971 77.697 800.281 78.4545C801.599 79.2045 802.611 80.2576 803.315 81.6136C804.027 82.9621 804.384 84.5341 804.384 86.3295C804.384 88.1174 804.027 89.6894 803.315 91.0455C802.611 92.3939 801.599 93.447 800.281 94.2045C798.971 94.9545 797.399 95.3295 795.565 95.3295ZM795.599 91.1364C796.266 91.1364 796.83 90.9318 797.293 90.5227C797.755 90.1136 798.107 89.5455 798.349 88.8182C798.599 88.0909 798.724 87.25 798.724 86.2955C798.724 85.3258 798.599 84.4773 798.349 83.75C798.107 83.0227 797.755 82.4545 797.293 82.0455C796.83 81.6364 796.266 81.4318 795.599 81.4318C794.91 81.4318 794.327 81.6364 793.849 82.0455C793.38 82.4545 793.02 83.0227 792.77 83.75C792.527 84.4773 792.406 85.3258 792.406 86.2955C792.406 87.25 792.527 88.0909 792.77 88.8182C793.02 89.5455 793.38 90.1136 793.849 90.5227C794.327 90.9318 794.91 91.1364 795.599 91.1364ZM807.23 95V77.5455H812.514V80.75H812.707C813.071 79.6894 813.685 78.8523 814.548 78.2386C815.412 77.625 816.442 77.3182 817.639 77.3182C818.851 77.3182 819.889 77.6288 820.753 78.25C821.616 78.8712 822.166 79.7045 822.401 80.75H822.582C822.908 79.7121 823.545 78.8826 824.491 78.2614C825.438 77.6326 826.556 77.3182 827.844 77.3182C829.495 77.3182 830.836 77.8485 831.866 78.9091C832.897 79.9621 833.412 81.4091 833.412 83.25V95H827.855V84.5227C827.855 83.6515 827.632 82.9886 827.185 82.5341C826.738 82.072 826.158 81.8409 825.446 81.8409C824.681 81.8409 824.079 82.0909 823.639 82.5909C823.207 83.0833 822.991 83.7462 822.991 84.5795V95H817.651V84.4659C817.651 83.6553 817.431 83.0152 816.991 82.5455C816.552 82.0758 815.973 81.8409 815.253 81.8409C814.768 81.8409 814.34 81.9583 813.969 82.1932C813.598 82.4205 813.306 82.7462 813.094 83.1705C812.889 83.5947 812.787 84.0947 812.787 84.6705V95H807.23ZM836.855 101.545V77.5455H842.355V80.5341H842.526C842.753 80.0038 843.075 79.4924 843.491 79C843.916 78.5076 844.454 78.1061 845.105 77.7955C845.764 77.4773 846.552 77.3182 847.469 77.3182C848.681 77.3182 849.813 77.6364 850.866 78.2727C851.927 78.9091 852.783 79.8902 853.435 81.2159C854.086 82.5417 854.412 84.2311 854.412 86.2841C854.412 88.2614 854.098 89.9167 853.469 91.25C852.848 92.5833 852.007 93.5833 850.946 94.25C849.893 94.9167 848.723 95.25 847.435 95.25C846.556 95.25 845.795 95.1061 845.151 94.8182C844.507 94.5303 843.965 94.1515 843.526 93.6818C843.094 93.2121 842.76 92.7083 842.526 92.1705H842.412V101.545H836.855ZM842.298 86.2727C842.298 87.2121 842.423 88.0303 842.673 88.7273C842.931 89.4242 843.298 89.9659 843.776 90.3523C844.26 90.7311 844.84 90.9205 845.514 90.9205C846.196 90.9205 846.776 90.7311 847.253 90.3523C847.73 89.9659 848.09 89.4242 848.332 88.7273C848.582 88.0303 848.707 87.2121 848.707 86.2727C848.707 85.3333 848.582 84.5189 848.332 83.8295C848.09 83.1402 847.73 82.6061 847.253 82.2273C846.783 81.8485 846.204 81.6591 845.514 81.6591C844.832 81.6591 844.253 81.8447 843.776 82.2159C843.298 82.5871 842.931 83.1174 842.673 83.8068C842.423 84.4962 842.298 85.3182 842.298 86.2727ZM862.244 95.2955C861.131 95.2955 860.142 95.1098 859.278 94.7386C858.422 94.3598 857.744 93.7917 857.244 93.0341C856.752 92.2689 856.506 91.3106 856.506 90.1591C856.506 89.1894 856.676 88.3712 857.017 87.7045C857.358 87.0379 857.828 86.4962 858.426 86.0795C859.025 85.6629 859.714 85.3485 860.494 85.1364C861.275 84.9167 862.108 84.7689 862.994 84.6932C863.987 84.6023 864.786 84.5076 865.392 84.4091C865.998 84.303 866.438 84.1553 866.71 83.9659C866.991 83.7689 867.131 83.4924 867.131 83.1364V83.0795C867.131 82.4962 866.93 82.0455 866.528 81.7273C866.127 81.4091 865.585 81.25 864.903 81.25C864.169 81.25 863.578 81.4091 863.131 81.7273C862.684 82.0455 862.4 82.4848 862.278 83.0455L857.153 82.8636C857.305 81.803 857.695 80.8561 858.324 80.0227C858.96 79.1818 859.831 78.5227 860.938 78.0455C862.051 77.5606 863.388 77.3182 864.949 77.3182C866.063 77.3182 867.089 77.4508 868.028 77.7159C868.968 77.9735 869.786 78.3523 870.483 78.8523C871.18 79.3447 871.718 79.9508 872.097 80.6705C872.483 81.3902 872.676 82.2121 872.676 83.1364V95H867.449V92.5682H867.312C867.002 93.1591 866.604 93.6591 866.119 94.0682C865.642 94.4773 865.078 94.7841 864.426 94.9886C863.782 95.1932 863.055 95.2955 862.244 95.2955ZM863.96 91.6591C864.559 91.6591 865.097 91.5379 865.574 91.2955C866.059 91.053 866.445 90.7197 866.733 90.2955C867.021 89.8636 867.165 89.3636 867.165 88.7955V87.1364C867.006 87.2197 866.813 87.2955 866.585 87.3636C866.366 87.4318 866.123 87.4962 865.858 87.5568C865.593 87.6174 865.32 87.6705 865.04 87.7159C864.759 87.7614 864.491 87.803 864.233 87.8409C863.71 87.9242 863.263 88.053 862.892 88.2273C862.528 88.4015 862.248 88.6288 862.051 88.9091C861.862 89.1818 861.767 89.5076 861.767 89.8864C861.767 90.4621 861.972 90.9015 862.381 91.2045C862.797 91.5076 863.324 91.6591 863.96 91.6591ZM881.631 85.0455V95H876.074V77.5455H881.358V80.75H881.551C881.938 79.6818 882.597 78.8447 883.528 78.2386C884.46 77.625 885.57 77.3182 886.858 77.3182C888.085 77.3182 889.15 77.5947 890.051 78.1477C890.96 78.6932 891.665 79.4583 892.165 80.4432C892.672 81.4205 892.922 82.5644 892.915 83.875V95H887.358V84.9659C887.366 83.9962 887.119 83.2386 886.619 82.6932C886.127 82.1477 885.441 81.875 884.562 81.875C883.979 81.875 883.464 82.0038 883.017 82.2614C882.578 82.5114 882.237 82.8712 881.994 83.3409C881.759 83.8106 881.638 84.3788 881.631 85.0455ZM896.355 95V77.5455H901.912V95H896.355ZM899.139 75.5114C898.359 75.5114 897.688 75.2538 897.128 74.7386C896.567 74.2159 896.287 73.5871 896.287 72.8523C896.287 72.125 896.567 71.5038 897.128 70.9886C897.688 70.4659 898.359 70.2045 899.139 70.2045C899.927 70.2045 900.598 70.4659 901.151 70.9886C901.711 71.5038 901.991 72.125 901.991 72.8523C901.991 73.5871 901.711 74.2159 901.151 74.7386C900.598 75.2538 899.927 75.5114 899.139 75.5114ZM913.608 95.3295C911.782 95.3295 910.206 94.9697 908.881 94.25C907.563 93.5227 906.547 92.4886 905.835 91.1477C905.131 89.7992 904.778 88.197 904.778 86.3409C904.778 84.5379 905.134 82.9621 905.847 81.6136C906.559 80.2576 907.562 79.2045 908.858 78.4545C910.153 77.697 911.68 77.3182 913.438 77.3182C914.68 77.3182 915.816 77.5114 916.847 77.8977C917.877 78.2841 918.767 78.8561 919.517 79.6136C920.267 80.3712 920.85 81.3068 921.267 82.4205C921.684 83.5265 921.892 84.7955 921.892 86.2273V87.6136H906.722V84.3864H916.722C916.714 83.7955 916.574 83.2689 916.301 82.8068C916.028 82.3447 915.653 81.9848 915.176 81.7273C914.706 81.4621 914.165 81.3295 913.551 81.3295C912.93 81.3295 912.373 81.4697 911.881 81.75C911.388 82.0227 910.998 82.3977 910.71 82.875C910.422 83.3447 910.271 83.8788 910.256 84.4773V87.7614C910.256 88.4735 910.396 89.0985 910.676 89.6364C910.956 90.1667 911.354 90.5795 911.869 90.875C912.384 91.1705 912.998 91.3182 913.71 91.3182C914.203 91.3182 914.65 91.25 915.051 91.1136C915.453 90.9773 915.797 90.7765 916.085 90.5114C916.373 90.2462 916.589 89.9205 916.733 89.5341L921.835 89.6818C921.623 90.8258 921.157 91.822 920.438 92.6705C919.725 93.5114 918.79 94.1667 917.631 94.6364C916.472 95.0985 915.131 95.3295 913.608 95.3295ZM939.969 82.875L934.866 83.0114C934.813 82.6477 934.67 82.3258 934.435 82.0455C934.2 81.7576 933.893 81.5341 933.514 81.375C933.143 81.2083 932.711 81.125 932.219 81.125C931.575 81.125 931.026 81.2538 930.571 81.5114C930.124 81.7689 929.904 82.1174 929.912 82.5568C929.904 82.8977 930.041 83.1932 930.321 83.4432C930.609 83.6932 931.12 83.8939 931.855 84.0455L935.219 84.6818C936.961 85.0152 938.257 85.5682 939.105 86.3409C939.961 87.1136 940.393 88.1364 940.401 89.4091C940.393 90.6061 940.037 91.6477 939.332 92.5341C938.635 93.4205 937.681 94.1098 936.469 94.6023C935.257 95.0871 933.87 95.3295 932.31 95.3295C929.817 95.3295 927.851 94.8182 926.412 93.7955C924.98 92.7652 924.162 91.3864 923.957 89.6591L929.446 89.5227C929.567 90.1591 929.882 90.6439 930.389 90.9773C930.897 91.3106 931.545 91.4773 932.332 91.4773C933.045 91.4773 933.624 91.3447 934.071 91.0795C934.518 90.8144 934.745 90.4621 934.753 90.0227C934.745 89.6288 934.571 89.3144 934.23 89.0795C933.889 88.8371 933.355 88.6477 932.628 88.5114L929.582 87.9318C927.832 87.6136 926.529 87.0265 925.673 86.1705C924.817 85.3068 924.393 84.2083 924.401 82.875C924.393 81.7083 924.704 80.7121 925.332 79.8864C925.961 79.053 926.855 78.4167 928.014 77.9773C929.173 77.5379 930.541 77.3182 932.116 77.3182C934.48 77.3182 936.344 77.8144 937.707 78.8068C939.071 79.7917 939.825 81.1477 939.969 82.875Z" fill="black"/>
<rect width="435" height="177" transform="translate(574 135)" fill="#AACFD0" fill-opacity="0.5"/>
<path d="M611.545 166H608.727C608.561 165.189 608.269 164.477 607.852 163.864C607.443 163.25 606.943 162.735 606.352 162.318C605.769 161.894 605.121 161.576 604.409 161.364C603.697 161.152 602.955 161.045 602.182 161.045C600.773 161.045 599.496 161.402 598.352 162.114C597.216 162.826 596.311 163.875 595.636 165.261C594.97 166.648 594.636 168.348 594.636 170.364C594.636 172.379 594.97 174.08 595.636 175.466C596.311 176.852 597.216 177.902 598.352 178.614C599.496 179.326 600.773 179.682 602.182 179.682C602.955 179.682 603.697 179.576 604.409 179.364C605.121 179.152 605.769 178.837 606.352 178.42C606.943 177.996 607.443 177.477 607.852 176.864C608.269 176.242 608.561 175.53 608.727 174.727H611.545C611.333 175.917 610.947 176.981 610.386 177.92C609.826 178.86 609.129 179.659 608.295 180.318C607.462 180.97 606.527 181.466 605.489 181.807C604.458 182.148 603.356 182.318 602.182 182.318C600.197 182.318 598.432 181.833 596.886 180.864C595.341 179.894 594.125 178.515 593.239 176.727C592.352 174.939 591.909 172.818 591.909 170.364C591.909 167.909 592.352 165.788 593.239 164C594.125 162.212 595.341 160.833 596.886 159.864C598.432 158.894 600.197 158.409 602.182 158.409C603.356 158.409 604.458 158.58 605.489 158.92C606.527 159.261 607.462 159.761 608.295 160.42C609.129 161.072 609.826 161.867 610.386 162.807C610.947 163.739 611.333 164.803 611.545 166ZM622.827 182.364C621.251 182.364 619.868 181.989 618.679 181.239C617.497 180.489 616.573 179.439 615.906 178.091C615.247 176.742 614.918 175.167 614.918 173.364C614.918 171.545 615.247 169.958 615.906 168.602C616.573 167.246 617.497 166.193 618.679 165.443C619.868 164.693 621.251 164.318 622.827 164.318C624.402 164.318 625.781 164.693 626.963 165.443C628.152 166.193 629.077 167.246 629.736 168.602C630.402 169.958 630.736 171.545 630.736 173.364C630.736 175.167 630.402 176.742 629.736 178.091C629.077 179.439 628.152 180.489 626.963 181.239C625.781 181.989 624.402 182.364 622.827 182.364ZM622.827 179.955C624.024 179.955 625.009 179.648 625.781 179.034C626.554 178.42 627.126 177.614 627.497 176.614C627.868 175.614 628.054 174.53 628.054 173.364C628.054 172.197 627.868 171.11 627.497 170.102C627.126 169.095 626.554 168.28 625.781 167.659C625.009 167.038 624.024 166.727 622.827 166.727C621.63 166.727 620.645 167.038 619.872 167.659C619.099 168.28 618.527 169.095 618.156 170.102C617.785 171.11 617.599 172.197 617.599 173.364C617.599 174.53 617.785 175.614 618.156 176.614C618.527 177.614 619.099 178.42 619.872 179.034C620.645 179.648 621.63 179.955 622.827 179.955ZM634.83 182V164.545H637.42V167.273H637.648C638.011 166.341 638.598 165.617 639.409 165.102C640.22 164.58 641.193 164.318 642.33 164.318C643.481 164.318 644.439 164.58 645.205 165.102C645.977 165.617 646.58 166.341 647.011 167.273H647.193C647.64 166.371 648.311 165.655 649.205 165.125C650.098 164.587 651.17 164.318 652.42 164.318C653.981 164.318 655.258 164.807 656.25 165.784C657.242 166.754 657.739 168.265 657.739 170.318V182H655.057V170.318C655.057 169.03 654.705 168.11 654 167.557C653.295 167.004 652.466 166.727 651.511 166.727C650.284 166.727 649.333 167.098 648.659 167.841C647.985 168.576 647.648 169.508 647.648 170.636V182H644.92V170.045C644.92 169.053 644.598 168.254 643.955 167.648C643.311 167.034 642.481 166.727 641.466 166.727C640.769 166.727 640.117 166.913 639.511 167.284C638.913 167.655 638.428 168.17 638.057 168.83C637.693 169.481 637.511 170.235 637.511 171.091V182H634.83ZM662.642 188.545V164.545H665.233V167.318H665.551C665.748 167.015 666.021 166.629 666.369 166.159C666.725 165.682 667.233 165.258 667.892 164.886C668.559 164.508 669.46 164.318 670.597 164.318C672.066 164.318 673.362 164.686 674.483 165.42C675.604 166.155 676.479 167.197 677.108 168.545C677.737 169.894 678.051 171.485 678.051 173.318C678.051 175.167 677.737 176.769 677.108 178.125C676.479 179.473 675.608 180.519 674.494 181.261C673.381 181.996 672.097 182.364 670.642 182.364C669.521 182.364 668.623 182.178 667.949 181.807C667.275 181.428 666.756 181 666.392 180.523C666.028 180.038 665.748 179.636 665.551 179.318H665.324V188.545H662.642ZM665.278 173.273C665.278 174.591 665.472 175.754 665.858 176.761C666.244 177.761 666.809 178.545 667.551 179.114C668.294 179.674 669.203 179.955 670.278 179.955C671.4 179.955 672.335 179.659 673.085 179.068C673.843 178.47 674.411 177.667 674.79 176.659C675.176 175.644 675.369 174.515 675.369 173.273C675.369 172.045 675.18 170.939 674.801 169.955C674.43 168.962 673.866 168.178 673.108 167.602C672.358 167.019 671.415 166.727 670.278 166.727C669.188 166.727 668.271 167.004 667.528 167.557C666.786 168.102 666.225 168.867 665.847 169.852C665.468 170.83 665.278 171.97 665.278 173.273ZM684.824 158.727V182H682.142V158.727H684.824ZM697.054 182.364C695.372 182.364 693.921 181.992 692.702 181.25C691.49 180.5 690.554 179.455 689.895 178.114C689.243 176.765 688.918 175.197 688.918 173.409C688.918 171.621 689.243 170.045 689.895 168.682C690.554 167.311 691.471 166.242 692.645 165.477C693.827 164.705 695.205 164.318 696.781 164.318C697.69 164.318 698.588 164.47 699.474 164.773C700.361 165.076 701.168 165.568 701.895 166.25C702.622 166.924 703.202 167.818 703.634 168.932C704.065 170.045 704.281 171.417 704.281 173.045V174.182H690.827V171.864H701.554C701.554 170.879 701.357 170 700.963 169.227C700.577 168.455 700.024 167.845 699.304 167.398C698.592 166.951 697.751 166.727 696.781 166.727C695.713 166.727 694.789 166.992 694.009 167.523C693.236 168.045 692.641 168.727 692.224 169.568C691.808 170.409 691.599 171.311 691.599 172.273V173.818C691.599 175.136 691.827 176.254 692.281 177.17C692.743 178.08 693.384 178.773 694.202 179.25C695.02 179.72 695.971 179.955 697.054 179.955C697.759 179.955 698.395 179.856 698.963 179.659C699.539 179.455 700.035 179.152 700.452 178.75C700.868 178.341 701.19 177.833 701.418 177.227L704.009 177.955C703.736 178.833 703.277 179.606 702.634 180.273C701.99 180.932 701.194 181.447 700.247 181.818C699.3 182.182 698.236 182.364 697.054 182.364ZM715.952 164.545V166.818H706.906V164.545H715.952ZM709.543 160.364H712.224V177C712.224 177.758 712.334 178.326 712.554 178.705C712.781 179.076 713.069 179.326 713.418 179.455C713.774 179.576 714.149 179.636 714.543 179.636C714.838 179.636 715.08 179.621 715.27 179.591C715.459 179.553 715.611 179.523 715.724 179.5L716.27 181.909C716.088 181.977 715.834 182.045 715.509 182.114C715.183 182.189 714.77 182.227 714.27 182.227C713.512 182.227 712.77 182.064 712.043 181.739C711.323 181.413 710.724 180.917 710.247 180.25C709.777 179.583 709.543 178.742 709.543 177.727V160.364ZM727.116 182.364C725.435 182.364 723.984 181.992 722.764 181.25C721.552 180.5 720.616 179.455 719.957 178.114C719.306 176.765 718.98 175.197 718.98 173.409C718.98 171.621 719.306 170.045 719.957 168.682C720.616 167.311 721.533 166.242 722.707 165.477C723.889 164.705 725.268 164.318 726.844 164.318C727.753 164.318 728.651 164.47 729.537 164.773C730.423 165.076 731.23 165.568 731.957 166.25C732.685 166.924 733.264 167.818 733.696 168.932C734.128 170.045 734.344 171.417 734.344 173.045V174.182H720.889V171.864H731.616C731.616 170.879 731.42 170 731.026 169.227C730.639 168.455 730.086 167.845 729.366 167.398C728.654 166.951 727.813 166.727 726.844 166.727C725.776 166.727 724.851 166.992 724.071 167.523C723.298 168.045 722.704 168.727 722.287 169.568C721.87 170.409 721.662 171.311 721.662 172.273V173.818C721.662 175.136 721.889 176.254 722.344 177.17C722.806 178.08 723.446 178.773 724.264 179.25C725.082 179.72 726.033 179.955 727.116 179.955C727.821 179.955 728.457 179.856 729.026 179.659C729.601 179.455 730.098 179.152 730.514 178.75C730.931 178.341 731.253 177.833 731.48 177.227L734.071 177.955C733.798 178.833 733.34 179.606 732.696 180.273C732.052 180.932 731.257 181.447 730.31 181.818C729.363 182.182 728.298 182.364 727.116 182.364ZM755.014 164.545V166.818H745.969V164.545H755.014ZM748.605 160.364H751.287V177C751.287 177.758 751.397 178.326 751.616 178.705C751.844 179.076 752.132 179.326 752.48 179.455C752.836 179.576 753.211 179.636 753.605 179.636C753.901 179.636 754.143 179.621 754.332 179.591C754.522 179.553 754.673 179.523 754.787 179.5L755.332 181.909C755.151 181.977 754.897 182.045 754.571 182.114C754.245 182.189 753.832 182.227 753.332 182.227C752.575 182.227 751.832 182.064 751.105 181.739C750.385 181.413 749.787 180.917 749.31 180.25C748.84 179.583 748.605 178.742 748.605 177.727V160.364ZM762.105 171.5V182H759.423V158.727H762.105V167.273H762.332C762.741 166.371 763.355 165.655 764.173 165.125C764.999 164.587 766.098 164.318 767.469 164.318C768.658 164.318 769.7 164.557 770.594 165.034C771.488 165.504 772.181 166.227 772.673 167.205C773.173 168.174 773.423 169.409 773.423 170.909V182H770.741V171.091C770.741 169.705 770.382 168.633 769.662 167.875C768.95 167.11 767.961 166.727 766.696 166.727C765.817 166.727 765.029 166.913 764.332 167.284C763.643 167.655 763.098 168.197 762.696 168.909C762.302 169.621 762.105 170.485 762.105 171.5ZM785.648 182.364C783.966 182.364 782.515 181.992 781.295 181.25C780.083 180.5 779.148 179.455 778.489 178.114C777.837 176.765 777.511 175.197 777.511 173.409C777.511 171.621 777.837 170.045 778.489 168.682C779.148 167.311 780.064 166.242 781.239 165.477C782.42 164.705 783.799 164.318 785.375 164.318C786.284 164.318 787.182 164.47 788.068 164.773C788.955 165.076 789.761 165.568 790.489 166.25C791.216 166.924 791.795 167.818 792.227 168.932C792.659 170.045 792.875 171.417 792.875 173.045V174.182H779.42V171.864H790.148C790.148 170.879 789.951 170 789.557 169.227C789.17 168.455 788.617 167.845 787.898 167.398C787.186 166.951 786.345 166.727 785.375 166.727C784.307 166.727 783.383 166.992 782.602 167.523C781.83 168.045 781.235 168.727 780.818 169.568C780.402 170.409 780.193 171.311 780.193 172.273V173.818C780.193 175.136 780.42 176.254 780.875 177.17C781.337 178.08 781.977 178.773 782.795 179.25C783.614 179.72 784.564 179.955 785.648 179.955C786.352 179.955 786.989 179.856 787.557 179.659C788.133 179.455 788.629 179.152 789.045 178.75C789.462 178.341 789.784 177.833 790.011 177.227L792.602 177.955C792.33 178.833 791.871 179.606 791.227 180.273C790.583 180.932 789.788 181.447 788.841 181.818C787.894 182.182 786.83 182.364 785.648 182.364ZM796.955 182V164.545H799.636V182H796.955ZM798.318 161.636C797.795 161.636 797.345 161.458 796.966 161.102C796.595 160.746 796.409 160.318 796.409 159.818C796.409 159.318 796.595 158.89 796.966 158.534C797.345 158.178 797.795 158 798.318 158C798.841 158 799.288 158.178 799.659 158.534C800.038 158.89 800.227 159.318 800.227 159.818C800.227 160.318 800.038 160.746 799.659 161.102C799.288 161.458 798.841 161.636 798.318 161.636ZM804.548 182V164.545H807.139V167.182H807.321C807.639 166.318 808.215 165.617 809.048 165.08C809.882 164.542 810.821 164.273 811.866 164.273C812.063 164.273 812.31 164.277 812.605 164.284C812.901 164.292 813.124 164.303 813.276 164.318V167.045C813.185 167.023 812.976 166.989 812.651 166.943C812.332 166.89 811.995 166.864 811.639 166.864C810.791 166.864 810.033 167.042 809.366 167.398C808.707 167.746 808.185 168.231 807.798 168.852C807.42 169.466 807.23 170.167 807.23 170.955V182H804.548ZM825.455 188.545V164.545H828.045V167.318H828.364C828.561 167.015 828.833 166.629 829.182 166.159C829.538 165.682 830.045 165.258 830.705 164.886C831.371 164.508 832.273 164.318 833.409 164.318C834.879 164.318 836.174 164.686 837.295 165.42C838.417 166.155 839.292 167.197 839.92 168.545C840.549 169.894 840.864 171.485 840.864 173.318C840.864 175.167 840.549 176.769 839.92 178.125C839.292 179.473 838.42 180.519 837.307 181.261C836.193 181.996 834.909 182.364 833.455 182.364C832.333 182.364 831.436 182.178 830.761 181.807C830.087 181.428 829.568 181 829.205 180.523C828.841 180.038 828.561 179.636 828.364 179.318H828.136V188.545H825.455ZM828.091 173.273C828.091 174.591 828.284 175.754 828.67 176.761C829.057 177.761 829.621 178.545 830.364 179.114C831.106 179.674 832.015 179.955 833.091 179.955C834.212 179.955 835.148 179.659 835.898 179.068C836.655 178.47 837.223 177.667 837.602 176.659C837.989 175.644 838.182 174.515 838.182 173.273C838.182 172.045 837.992 170.939 837.614 169.955C837.242 168.962 836.678 168.178 835.92 167.602C835.17 167.019 834.227 166.727 833.091 166.727C832 166.727 831.083 167.004 830.341 167.557C829.598 168.102 829.038 168.867 828.659 169.852C828.28 170.83 828.091 171.97 828.091 173.273ZM844.955 182V164.545H847.545V167.182H847.727C848.045 166.318 848.621 165.617 849.455 165.08C850.288 164.542 851.227 164.273 852.273 164.273C852.47 164.273 852.716 164.277 853.011 164.284C853.307 164.292 853.53 164.303 853.682 164.318V167.045C853.591 167.023 853.383 166.989 853.057 166.943C852.739 166.89 852.402 166.864 852.045 166.864C851.197 166.864 850.439 167.042 849.773 167.398C849.114 167.746 848.591 168.231 848.205 168.852C847.826 169.466 847.636 170.167 847.636 170.955V182H844.955ZM863.648 182.364C861.966 182.364 860.515 181.992 859.295 181.25C858.083 180.5 857.148 179.455 856.489 178.114C855.837 176.765 855.511 175.197 855.511 173.409C855.511 171.621 855.837 170.045 856.489 168.682C857.148 167.311 858.064 166.242 859.239 165.477C860.42 164.705 861.799 164.318 863.375 164.318C864.284 164.318 865.182 164.47 866.068 164.773C866.955 165.076 867.761 165.568 868.489 166.25C869.216 166.924 869.795 167.818 870.227 168.932C870.659 170.045 870.875 171.417 870.875 173.045V174.182H857.42V171.864H868.148C868.148 170.879 867.951 170 867.557 169.227C867.17 168.455 866.617 167.845 865.898 167.398C865.186 166.951 864.345 166.727 863.375 166.727C862.307 166.727 861.383 166.992 860.602 167.523C859.83 168.045 859.235 168.727 858.818 169.568C858.402 170.409 858.193 171.311 858.193 172.273V173.818C858.193 175.136 858.42 176.254 858.875 177.17C859.337 178.08 859.977 178.773 860.795 179.25C861.614 179.72 862.564 179.955 863.648 179.955C864.352 179.955 864.989 179.856 865.557 179.659C866.133 179.455 866.629 179.152 867.045 178.75C867.462 178.341 867.784 177.833 868.011 177.227L870.602 177.955C870.33 178.833 869.871 179.606 869.227 180.273C868.583 180.932 867.788 181.447 866.841 181.818C865.894 182.182 864.83 182.364 863.648 182.364ZM887.318 168.455L884.909 169.136C884.758 168.735 884.534 168.345 884.239 167.966C883.951 167.58 883.557 167.261 883.057 167.011C882.557 166.761 881.917 166.636 881.136 166.636C880.068 166.636 879.178 166.883 878.466 167.375C877.761 167.86 877.409 168.477 877.409 169.227C877.409 169.894 877.652 170.42 878.136 170.807C878.621 171.193 879.379 171.515 880.409 171.773L883 172.409C884.561 172.788 885.723 173.367 886.489 174.148C887.254 174.92 887.636 175.917 887.636 177.136C887.636 178.136 887.348 179.03 886.773 179.818C886.205 180.606 885.409 181.227 884.386 181.682C883.364 182.136 882.174 182.364 880.818 182.364C879.038 182.364 877.564 181.977 876.398 181.205C875.231 180.432 874.492 179.303 874.182 177.818L876.727 177.182C876.97 178.121 877.428 178.826 878.102 179.295C878.784 179.765 879.674 180 880.773 180C882.023 180 883.015 179.735 883.75 179.205C884.492 178.667 884.864 178.023 884.864 177.273C884.864 176.667 884.652 176.159 884.227 175.75C883.803 175.333 883.152 175.023 882.273 174.818L879.364 174.136C877.765 173.758 876.591 173.17 875.841 172.375C875.098 171.572 874.727 170.568 874.727 169.364C874.727 168.379 875.004 167.508 875.557 166.75C876.117 165.992 876.879 165.398 877.841 164.966C878.811 164.534 879.909 164.318 881.136 164.318C882.864 164.318 884.22 164.697 885.205 165.455C886.197 166.212 886.902 167.212 887.318 168.455ZM899.264 164.545V166.818H890.219V164.545H899.264ZM892.855 160.364H895.537V177C895.537 177.758 895.647 178.326 895.866 178.705C896.094 179.076 896.382 179.326 896.73 179.455C897.086 179.576 897.461 179.636 897.855 179.636C898.151 179.636 898.393 179.621 898.582 179.591C898.772 179.553 898.923 179.523 899.037 179.5L899.582 181.909C899.401 181.977 899.147 182.045 898.821 182.114C898.495 182.189 898.082 182.227 897.582 182.227C896.825 182.227 896.082 182.064 895.355 181.739C894.635 181.413 894.037 180.917 893.56 180.25C893.09 179.583 892.855 178.742 892.855 177.727V160.364ZM908.435 182.409C907.329 182.409 906.325 182.201 905.423 181.784C904.522 181.36 903.806 180.75 903.276 179.955C902.745 179.152 902.48 178.182 902.48 177.045C902.48 176.045 902.677 175.235 903.071 174.614C903.465 173.985 903.991 173.492 904.651 173.136C905.31 172.78 906.037 172.515 906.832 172.341C907.635 172.159 908.442 172.015 909.253 171.909C910.313 171.773 911.173 171.67 911.832 171.602C912.499 171.527 912.984 171.402 913.287 171.227C913.598 171.053 913.753 170.75 913.753 170.318V170.227C913.753 169.106 913.446 168.235 912.832 167.614C912.226 166.992 911.306 166.682 910.071 166.682C908.791 166.682 907.787 166.962 907.06 167.523C906.332 168.083 905.821 168.682 905.526 169.318L902.98 168.409C903.435 167.348 904.041 166.523 904.798 165.932C905.563 165.333 906.397 164.917 907.298 164.682C908.207 164.439 909.101 164.318 909.98 164.318C910.541 164.318 911.185 164.386 911.912 164.523C912.647 164.652 913.355 164.92 914.037 165.33C914.726 165.739 915.298 166.356 915.753 167.182C916.207 168.008 916.435 169.114 916.435 170.5V182H913.753V179.636H913.616C913.435 180.015 913.132 180.42 912.707 180.852C912.283 181.284 911.719 181.652 911.014 181.955C910.31 182.258 909.45 182.409 908.435 182.409ZM908.844 180C909.904 180 910.798 179.792 911.526 179.375C912.26 178.958 912.813 178.42 913.185 177.761C913.563 177.102 913.753 176.409 913.753 175.682V173.227C913.639 173.364 913.389 173.489 913.003 173.602C912.624 173.708 912.185 173.803 911.685 173.886C911.192 173.962 910.711 174.03 910.241 174.091C909.779 174.144 909.404 174.189 909.116 174.227C908.42 174.318 907.768 174.466 907.162 174.67C906.563 174.867 906.079 175.167 905.707 175.568C905.344 175.962 905.162 176.5 905.162 177.182C905.162 178.114 905.507 178.818 906.196 179.295C906.893 179.765 907.776 180 908.844 180ZM928.92 164.545V166.818H919.875V164.545H928.92ZM922.511 160.364H925.193V177C925.193 177.758 925.303 178.326 925.523 178.705C925.75 179.076 926.038 179.326 926.386 179.455C926.742 179.576 927.117 179.636 927.511 179.636C927.807 179.636 928.049 179.621 928.239 179.591C928.428 179.553 928.58 179.523 928.693 179.5L929.239 181.909C929.057 181.977 928.803 182.045 928.477 182.114C928.152 182.189 927.739 182.227 927.239 182.227C926.481 182.227 925.739 182.064 925.011 181.739C924.292 181.413 923.693 180.917 923.216 180.25C922.746 179.583 922.511 178.742 922.511 177.727V160.364ZM932.955 182V164.545H935.636V182H932.955ZM934.318 161.636C933.795 161.636 933.345 161.458 932.966 161.102C932.595 160.746 932.409 160.318 932.409 159.818C932.409 159.318 932.595 158.89 932.966 158.534C933.345 158.178 933.795 158 934.318 158C934.841 158 935.288 158.178 935.659 158.534C936.038 158.89 936.227 159.318 936.227 159.818C936.227 160.318 936.038 160.746 935.659 161.102C935.288 161.458 934.841 161.636 934.318 161.636ZM947.639 182.364C946.063 182.364 944.681 181.989 943.491 181.239C942.31 180.489 941.385 179.439 940.719 178.091C940.06 176.742 939.73 175.167 939.73 173.364C939.73 171.545 940.06 169.958 940.719 168.602C941.385 167.246 942.31 166.193 943.491 165.443C944.681 164.693 946.063 164.318 947.639 164.318C949.215 164.318 950.594 164.693 951.776 165.443C952.965 166.193 953.889 167.246 954.548 168.602C955.215 169.958 955.548 171.545 955.548 173.364C955.548 175.167 955.215 176.742 954.548 178.091C953.889 179.439 952.965 180.489 951.776 181.239C950.594 181.989 949.215 182.364 947.639 182.364ZM947.639 179.955C948.836 179.955 949.821 179.648 950.594 179.034C951.366 178.42 951.938 177.614 952.31 176.614C952.681 175.614 952.866 174.53 952.866 173.364C952.866 172.197 952.681 171.11 952.31 170.102C951.938 169.095 951.366 168.28 950.594 167.659C949.821 167.038 948.836 166.727 947.639 166.727C946.442 166.727 945.457 167.038 944.685 167.659C943.912 168.28 943.34 169.095 942.969 170.102C942.598 171.11 942.412 172.197 942.412 173.364C942.412 174.53 942.598 175.614 942.969 176.614C943.34 177.614 943.912 178.42 944.685 179.034C945.457 179.648 946.442 179.955 947.639 179.955ZM962.324 171.5V182H959.642V164.545H962.233V167.273H962.46C962.869 166.386 963.491 165.674 964.324 165.136C965.157 164.591 966.233 164.318 967.551 164.318C968.733 164.318 969.767 164.561 970.653 165.045C971.54 165.523 972.229 166.25 972.722 167.227C973.214 168.197 973.46 169.424 973.46 170.909V182H970.778V171.091C970.778 169.72 970.422 168.652 969.71 167.886C968.998 167.114 968.021 166.727 966.778 166.727C965.922 166.727 965.157 166.913 964.483 167.284C963.816 167.655 963.29 168.197 962.903 168.909C962.517 169.621 962.324 170.485 962.324 171.5ZM990.724 168.455L988.315 169.136C988.164 168.735 987.94 168.345 987.645 167.966C987.357 167.58 986.963 167.261 986.463 167.011C985.963 166.761 985.323 166.636 984.543 166.636C983.474 166.636 982.584 166.883 981.872 167.375C981.168 167.86 980.815 168.477 980.815 169.227C980.815 169.894 981.058 170.42 981.543 170.807C982.027 171.193 982.785 171.515 983.815 171.773L986.406 172.409C987.967 172.788 989.13 173.367 989.895 174.148C990.66 174.92 991.043 175.917 991.043 177.136C991.043 178.136 990.755 179.03 990.179 179.818C989.611 180.606 988.815 181.227 987.793 181.682C986.77 182.136 985.58 182.364 984.224 182.364C982.444 182.364 980.971 181.977 979.804 181.205C978.637 180.432 977.899 179.303 977.588 177.818L980.134 177.182C980.376 178.121 980.834 178.826 981.509 179.295C982.19 179.765 983.08 180 984.179 180C985.429 180 986.421 179.735 987.156 179.205C987.899 178.667 988.27 178.023 988.27 177.273C988.27 176.667 988.058 176.159 987.634 175.75C987.209 175.333 986.558 175.023 985.679 174.818L982.77 174.136C981.171 173.758 979.997 173.17 979.247 172.375C978.505 171.572 978.134 170.568 978.134 169.364C978.134 168.379 978.41 167.508 978.963 166.75C979.524 165.992 980.285 165.398 981.247 164.966C982.217 164.534 983.315 164.318 984.543 164.318C986.27 164.318 987.626 164.697 988.611 165.455C989.603 166.212 990.308 167.212 990.724 168.455Z" fill="black"/>
<rect width="435" height="103" transform="translate(1116 32)" fill="#AACFD0"/>
<path d="M1205.36 95H1196.76V71.7273H1205.35C1207.72 71.7273 1209.77 72.1932 1211.48 73.125C1213.2 74.0492 1214.52 75.3826 1215.45 77.125C1216.39 78.8598 1216.85 80.9356 1216.85 83.3523C1216.85 85.7765 1216.39 87.8598 1215.45 89.6023C1214.53 91.3447 1213.21 92.6818 1211.49 93.6136C1209.77 94.5379 1207.73 95 1205.36 95ZM1202.39 90.2045H1205.15C1206.45 90.2045 1207.55 89.9848 1208.45 89.5455C1209.36 89.0985 1210.05 88.375 1210.51 87.375C1210.98 86.3674 1211.22 85.0265 1211.22 83.3523C1211.22 81.678 1210.98 80.3447 1210.51 79.3523C1210.04 78.3523 1209.35 77.6326 1208.43 77.1932C1207.52 76.7462 1206.4 76.5227 1205.07 76.5227H1202.39V90.2045ZM1228.3 95.3295C1226.47 95.3295 1224.89 94.9697 1223.57 94.25C1222.25 93.5227 1221.23 92.4886 1220.52 91.1477C1219.82 89.7992 1219.47 88.197 1219.47 86.3409C1219.47 84.5379 1219.82 82.9621 1220.53 81.6136C1221.25 80.2576 1222.25 79.2045 1223.55 78.4545C1224.84 77.697 1226.37 77.3182 1228.12 77.3182C1229.37 77.3182 1230.5 77.5114 1231.53 77.8977C1232.56 78.2841 1233.45 78.8561 1234.2 79.6136C1234.95 80.3712 1235.54 81.3068 1235.95 82.4205C1236.37 83.5265 1236.58 84.7955 1236.58 86.2273V87.6136H1221.41V84.3864H1231.41C1231.4 83.7955 1231.26 83.2689 1230.99 82.8068C1230.72 82.3447 1230.34 81.9848 1229.86 81.7273C1229.39 81.4621 1228.85 81.3295 1228.24 81.3295C1227.62 81.3295 1227.06 81.4697 1226.57 81.75C1226.08 82.0227 1225.69 82.3977 1225.4 82.875C1225.11 83.3447 1224.96 83.8788 1224.94 84.4773V87.7614C1224.94 88.4735 1225.08 89.0985 1225.36 89.6364C1225.64 90.1667 1226.04 90.5795 1226.56 90.875C1227.07 91.1705 1227.69 91.3182 1228.4 91.3182C1228.89 91.3182 1229.34 91.25 1229.74 91.1136C1230.14 90.9773 1230.48 90.7765 1230.77 90.5114C1231.06 90.2462 1231.28 89.9205 1231.42 89.5341L1236.52 89.6818C1236.31 90.8258 1235.84 91.822 1235.12 92.6705C1234.41 93.5114 1233.48 94.1667 1232.32 94.6364C1231.16 95.0985 1229.82 95.3295 1228.3 95.3295ZM1247.57 95.3295C1245.72 95.3295 1244.14 94.9508 1242.83 94.1932C1241.52 93.4356 1240.51 92.3826 1239.8 91.0341C1239.1 89.678 1238.75 88.1098 1238.75 86.3295C1238.75 84.5417 1239.1 82.9735 1239.8 81.625C1240.52 80.2689 1241.53 79.2121 1242.84 78.4545C1244.16 77.697 1245.73 77.3182 1247.55 77.3182C1249.17 77.3182 1250.57 77.6098 1251.77 78.1932C1252.97 78.7765 1253.91 79.6023 1254.59 80.6705C1255.27 81.7311 1255.63 82.9773 1255.67 84.4091H1250.47C1250.37 83.5152 1250.07 82.8144 1249.57 82.3068C1249.07 81.7992 1248.43 81.5455 1247.63 81.5455C1246.99 81.5455 1246.43 81.7273 1245.94 82.0909C1245.46 82.447 1245.08 82.9773 1244.8 83.6818C1244.54 84.3788 1244.41 85.2424 1244.41 86.2727C1244.41 87.303 1244.54 88.1742 1244.8 88.8864C1245.08 89.5909 1245.46 90.125 1245.94 90.4886C1246.43 90.8447 1246.99 91.0227 1247.63 91.0227C1248.15 91.0227 1248.6 90.9129 1249 90.6932C1249.4 90.4735 1249.73 90.1515 1249.99 89.7273C1250.24 89.2955 1250.41 88.7727 1250.47 88.1591H1255.67C1255.61 89.5985 1255.25 90.8561 1254.59 91.9318C1253.93 93.0076 1253 93.8447 1251.8 94.4432C1250.61 95.0341 1249.2 95.3295 1247.57 95.3295ZM1266.67 95.3295C1264.84 95.3295 1263.27 94.9697 1261.94 94.25C1260.63 93.5227 1259.61 92.4886 1258.9 91.1477C1258.19 89.7992 1257.84 88.197 1257.84 86.3409C1257.84 84.5379 1258.2 82.9621 1258.91 81.6136C1259.62 80.2576 1260.62 79.2045 1261.92 78.4545C1263.22 77.697 1264.74 77.3182 1266.5 77.3182C1267.74 77.3182 1268.88 77.5114 1269.91 77.8977C1270.94 78.2841 1271.83 78.8561 1272.58 79.6136C1273.33 80.3712 1273.91 81.3068 1274.33 82.4205C1274.75 83.5265 1274.95 84.7955 1274.95 86.2273V87.6136H1259.78V84.3864H1269.78C1269.78 83.7955 1269.64 83.2689 1269.36 82.8068C1269.09 82.3447 1268.72 81.9848 1268.24 81.7273C1267.77 81.4621 1267.23 81.3295 1266.61 81.3295C1265.99 81.3295 1265.44 81.4697 1264.94 81.75C1264.45 82.0227 1264.06 82.3977 1263.77 82.875C1263.48 83.3447 1263.33 83.8788 1263.32 84.4773V87.7614C1263.32 88.4735 1263.46 89.0985 1263.74 89.6364C1264.02 90.1667 1264.42 90.5795 1264.93 90.875C1265.45 91.1705 1266.06 91.3182 1266.77 91.3182C1267.27 91.3182 1267.71 91.25 1268.11 91.1136C1268.52 90.9773 1268.86 90.7765 1269.15 90.5114C1269.44 90.2462 1269.65 89.9205 1269.8 89.5341L1274.9 89.6818C1274.69 90.8258 1274.22 91.822 1273.5 92.6705C1272.79 93.5114 1271.85 94.1667 1270.69 94.6364C1269.53 95.0985 1268.19 95.3295 1266.67 95.3295ZM1282.71 95.2955C1281.6 95.2955 1280.61 95.1098 1279.75 94.7386C1278.89 94.3598 1278.21 93.7917 1277.71 93.0341C1277.22 92.2689 1276.97 91.3106 1276.97 90.1591C1276.97 89.1894 1277.14 88.3712 1277.49 87.7045C1277.83 87.0379 1278.3 86.4962 1278.89 86.0795C1279.49 85.6629 1280.18 85.3485 1280.96 85.1364C1281.74 84.9167 1282.58 84.7689 1283.46 84.6932C1284.46 84.6023 1285.25 84.5076 1285.86 84.4091C1286.47 84.303 1286.91 84.1553 1287.18 83.9659C1287.46 83.7689 1287.6 83.4924 1287.6 83.1364V83.0795C1287.6 82.4962 1287.4 82.0455 1287 81.7273C1286.6 81.4091 1286.05 81.25 1285.37 81.25C1284.64 81.25 1284.05 81.4091 1283.6 81.7273C1283.15 82.0455 1282.87 82.4848 1282.75 83.0455L1277.62 82.8636C1277.77 81.803 1278.16 80.8561 1278.79 80.0227C1279.43 79.1818 1280.3 78.5227 1281.41 78.0455C1282.52 77.5606 1283.86 77.3182 1285.42 77.3182C1286.53 77.3182 1287.56 77.4508 1288.5 77.7159C1289.44 77.9735 1290.25 78.3523 1290.95 78.8523C1291.65 79.3447 1292.19 79.9508 1292.57 80.6705C1292.95 81.3902 1293.14 82.2121 1293.14 83.1364V95H1287.92V92.5682H1287.78C1287.47 93.1591 1287.07 93.6591 1286.59 94.0682C1286.11 94.4773 1285.55 94.7841 1284.89 94.9886C1284.25 95.1932 1283.52 95.2955 1282.71 95.2955ZM1284.43 91.6591C1285.03 91.6591 1285.57 91.5379 1286.04 91.2955C1286.53 91.053 1286.91 90.7197 1287.2 90.2955C1287.49 89.8636 1287.63 89.3636 1287.63 88.7955V87.1364C1287.47 87.2197 1287.28 87.2955 1287.05 87.3636C1286.83 87.4318 1286.59 87.4962 1286.33 87.5568C1286.06 87.6174 1285.79 87.6705 1285.51 87.7159C1285.23 87.7614 1284.96 87.803 1284.7 87.8409C1284.18 87.9242 1283.73 88.053 1283.36 88.2273C1283 88.4015 1282.72 88.6288 1282.52 88.9091C1282.33 89.1818 1282.24 89.5076 1282.24 89.8864C1282.24 90.4621 1282.44 90.9015 1282.85 91.2045C1283.27 91.5076 1283.79 91.6591 1284.43 91.6591ZM1311.78 82.875L1306.68 83.0114C1306.63 82.6477 1306.48 82.3258 1306.25 82.0455C1306.01 81.7576 1305.71 81.5341 1305.33 81.375C1304.96 81.2083 1304.52 81.125 1304.03 81.125C1303.39 81.125 1302.84 81.2538 1302.38 81.5114C1301.94 81.7689 1301.72 82.1174 1301.72 82.5568C1301.72 82.8977 1301.85 83.1932 1302.13 83.4432C1302.42 83.6932 1302.93 83.8939 1303.67 84.0455L1307.03 84.6818C1308.77 85.0152 1310.07 85.5682 1310.92 86.3409C1311.77 87.1136 1312.21 88.1364 1312.21 89.4091C1312.21 90.6061 1311.85 91.6477 1311.14 92.5341C1310.45 93.4205 1309.49 94.1098 1308.28 94.6023C1307.07 95.0871 1305.68 95.3295 1304.12 95.3295C1301.63 95.3295 1299.66 94.8182 1298.22 93.7955C1296.79 92.7652 1295.97 91.3864 1295.77 89.6591L1301.26 89.5227C1301.38 90.1591 1301.69 90.6439 1302.2 90.9773C1302.71 91.3106 1303.36 91.4773 1304.14 91.4773C1304.86 91.4773 1305.44 91.3447 1305.88 91.0795C1306.33 90.8144 1306.56 90.4621 1306.57 90.0227C1306.56 89.6288 1306.38 89.3144 1306.04 89.0795C1305.7 88.8371 1305.17 88.6477 1304.44 88.5114L1301.39 87.9318C1299.64 87.6136 1298.34 87.0265 1297.49 86.1705C1296.63 85.3068 1296.21 84.2083 1296.21 82.875C1296.21 81.7083 1296.52 80.7121 1297.14 79.8864C1297.77 79.053 1298.67 78.4167 1299.83 77.9773C1300.99 77.5379 1302.35 77.3182 1303.93 77.3182C1306.29 77.3182 1308.16 77.8144 1309.52 78.8068C1310.88 79.7917 1311.64 81.1477 1311.78 82.875ZM1323.11 95.3295C1321.28 95.3295 1319.71 94.9697 1318.38 94.25C1317.06 93.5227 1316.05 92.4886 1315.34 91.1477C1314.63 89.7992 1314.28 88.197 1314.28 86.3409C1314.28 84.5379 1314.63 82.9621 1315.35 81.6136C1316.06 80.2576 1317.06 79.2045 1318.36 78.4545C1319.65 77.697 1321.18 77.3182 1322.94 77.3182C1324.18 77.3182 1325.32 77.5114 1326.35 77.8977C1327.38 78.2841 1328.27 78.8561 1329.02 79.6136C1329.77 80.3712 1330.35 81.3068 1330.77 82.4205C1331.18 83.5265 1331.39 84.7955 1331.39 86.2273V87.6136H1316.22V84.3864H1326.22C1326.21 83.7955 1326.07 83.2689 1325.8 82.8068C1325.53 82.3447 1325.15 81.9848 1324.68 81.7273C1324.21 81.4621 1323.66 81.3295 1323.05 81.3295C1322.43 81.3295 1321.87 81.4697 1321.38 81.75C1320.89 82.0227 1320.5 82.3977 1320.21 82.875C1319.92 83.3447 1319.77 83.8788 1319.76 84.4773V87.7614C1319.76 88.4735 1319.9 89.0985 1320.18 89.6364C1320.46 90.1667 1320.85 90.5795 1321.37 90.875C1321.88 91.1705 1322.5 91.3182 1323.21 91.3182C1323.7 91.3182 1324.15 91.25 1324.55 91.1136C1324.95 90.9773 1325.3 90.7765 1325.59 90.5114C1325.87 90.2462 1326.09 89.9205 1326.23 89.5341L1331.34 89.6818C1331.12 90.8258 1330.66 91.822 1329.94 92.6705C1329.23 93.5114 1328.29 94.1667 1327.13 94.6364C1325.97 95.0985 1324.63 95.3295 1323.11 95.3295ZM1340.61 95.25C1339.32 95.25 1338.15 94.9167 1337.09 94.25C1336.04 93.5833 1335.2 92.5833 1334.57 91.25C1333.94 89.9167 1333.63 88.2614 1333.63 86.2841C1333.63 84.2311 1333.95 82.5417 1334.61 81.2159C1335.26 79.8902 1336.11 78.9091 1337.16 78.2727C1338.22 77.6364 1339.36 77.3182 1340.58 77.3182C1341.5 77.3182 1342.28 77.4773 1342.93 77.7955C1343.59 78.1061 1344.12 78.5076 1344.55 79C1344.97 79.4924 1345.29 80.0038 1345.51 80.5341H1345.63V71.7273H1351.18V95H1345.68V92.1705H1345.51C1345.28 92.7083 1344.95 93.2121 1344.51 93.6818C1344.08 94.1515 1343.54 94.5303 1342.89 94.8182C1342.25 95.1061 1341.48 95.25 1340.61 95.25ZM1342.54 90.9205C1343.21 90.9205 1343.79 90.7311 1344.26 90.3523C1344.74 89.9659 1345.11 89.4242 1345.37 88.7273C1345.62 88.0303 1345.75 87.2121 1345.75 86.2727C1345.75 85.3182 1345.62 84.4962 1345.37 83.8068C1345.12 83.1174 1344.75 82.5871 1344.26 82.2159C1343.79 81.8447 1343.21 81.6591 1342.54 81.6591C1341.85 81.6591 1341.26 81.8485 1340.79 82.2273C1340.31 82.6061 1339.95 83.1402 1339.7 83.8295C1339.45 84.5189 1339.33 85.3333 1339.33 86.2727C1339.33 87.2121 1339.46 88.0303 1339.71 88.7273C1339.96 89.4242 1340.32 89.9659 1340.79 90.3523C1341.26 90.7311 1341.85 90.9205 1342.54 90.9205ZM1361.57 101.545V77.5455H1367.07V80.5341H1367.24C1367.47 80.0038 1367.79 79.4924 1368.21 79C1368.63 78.5076 1369.17 78.1061 1369.82 77.7955C1370.48 77.4773 1371.27 77.3182 1372.19 77.3182C1373.4 77.3182 1374.53 77.6364 1375.59 78.2727C1376.65 78.9091 1377.5 79.8902 1378.15 81.2159C1378.8 82.5417 1379.13 84.2311 1379.13 86.2841C1379.13 88.2614 1378.82 89.9167 1378.19 91.25C1377.57 92.5833 1376.73 93.5833 1375.66 94.25C1374.61 94.9167 1373.44 95.25 1372.15 95.25C1371.27 95.25 1370.51 95.1061 1369.87 94.8182C1369.23 94.5303 1368.68 94.1515 1368.24 93.6818C1367.81 93.2121 1367.48 92.7083 1367.24 92.1705H1367.13V101.545H1361.57ZM1367.02 86.2727C1367.02 87.2121 1367.14 88.0303 1367.39 88.7273C1367.65 89.4242 1368.02 89.9659 1368.49 90.3523C1368.98 90.7311 1369.56 90.9205 1370.23 90.9205C1370.91 90.9205 1371.49 90.7311 1371.97 90.3523C1372.45 89.9659 1372.81 89.4242 1373.05 88.7273C1373.3 88.0303 1373.43 87.2121 1373.43 86.2727C1373.43 85.3333 1373.3 84.5189 1373.05 83.8295C1372.81 83.1402 1372.45 82.6061 1371.97 82.2273C1371.5 81.8485 1370.92 81.6591 1370.23 81.6591C1369.55 81.6591 1368.97 81.8447 1368.49 82.2159C1368.02 82.5871 1367.65 83.1174 1367.39 83.8068C1367.14 84.4962 1367.02 85.3182 1367.02 86.2727ZM1390.2 95.3295C1388.38 95.3295 1386.8 94.9697 1385.47 94.25C1384.16 93.5227 1383.14 92.4886 1382.43 91.1477C1381.72 89.7992 1381.37 88.197 1381.37 86.3409C1381.37 84.5379 1381.73 82.9621 1382.44 81.6136C1383.15 80.2576 1384.16 79.2045 1385.45 78.4545C1386.75 77.697 1388.27 77.3182 1390.03 77.3182C1391.27 77.3182 1392.41 77.5114 1393.44 77.8977C1394.47 78.2841 1395.36 78.8561 1396.11 79.6136C1396.86 80.3712 1397.44 81.3068 1397.86 82.4205C1398.28 83.5265 1398.49 84.7955 1398.49 86.2273V87.6136H1383.32V84.3864H1393.32C1393.31 83.7955 1393.17 83.2689 1392.89 82.8068C1392.62 82.3447 1392.25 81.9848 1391.77 81.7273C1391.3 81.4621 1390.76 81.3295 1390.14 81.3295C1389.52 81.3295 1388.97 81.4697 1388.47 81.75C1387.98 82.0227 1387.59 82.3977 1387.3 82.875C1387.02 83.3447 1386.86 83.8788 1386.85 84.4773V87.7614C1386.85 88.4735 1386.99 89.0985 1387.27 89.6364C1387.55 90.1667 1387.95 90.5795 1388.46 90.875C1388.98 91.1705 1389.59 91.3182 1390.3 91.3182C1390.8 91.3182 1391.24 91.25 1391.64 91.1136C1392.05 90.9773 1392.39 90.7765 1392.68 90.5114C1392.97 90.2462 1393.18 89.9205 1393.33 89.5341L1398.43 89.6818C1398.22 90.8258 1397.75 91.822 1397.03 92.6705C1396.32 93.5114 1395.38 94.1667 1394.22 94.6364C1393.07 95.0985 1391.72 95.3295 1390.2 95.3295ZM1401.32 95V77.5455H1406.72V80.7273H1406.9C1407.22 79.5758 1407.74 78.7197 1408.46 78.1591C1409.18 77.5909 1410.02 77.3068 1410.97 77.3068C1411.23 77.3068 1411.49 77.3258 1411.77 77.3636C1412.04 77.3939 1412.29 77.4432 1412.53 77.5114V82.3409C1412.26 82.25 1411.91 82.178 1411.48 82.125C1411.06 82.072 1410.68 82.0455 1410.35 82.0455C1409.69 82.0455 1409.09 82.1932 1408.56 82.4886C1408.04 82.7765 1407.63 83.1818 1407.32 83.7045C1407.03 84.2197 1406.88 84.8258 1406.88 85.5227V95H1401.32ZM1430.03 82.875L1424.93 83.0114C1424.88 82.6477 1424.73 82.3258 1424.5 82.0455C1424.26 81.7576 1423.96 81.5341 1423.58 81.375C1423.21 81.2083 1422.77 81.125 1422.28 81.125C1421.64 81.125 1421.09 81.2538 1420.63 81.5114C1420.19 81.7689 1419.97 82.1174 1419.97 82.5568C1419.97 82.8977 1420.1 83.1932 1420.38 83.4432C1420.67 83.6932 1421.18 83.8939 1421.92 84.0455L1425.28 84.6818C1427.02 85.0152 1428.32 85.5682 1429.17 86.3409C1430.02 87.1136 1430.46 88.1364 1430.46 89.4091C1430.46 90.6061 1430.1 91.6477 1429.39 92.5341C1428.7 93.4205 1427.74 94.1098 1426.53 94.6023C1425.32 95.0871 1423.93 95.3295 1422.37 95.3295C1419.88 95.3295 1417.91 94.8182 1416.47 93.7955C1415.04 92.7652 1414.22 91.3864 1414.02 89.6591L1419.51 89.5227C1419.63 90.1591 1419.94 90.6439 1420.45 90.9773C1420.96 91.3106 1421.61 91.4773 1422.39 91.4773C1423.11 91.4773 1423.69 91.3447 1424.13 91.0795C1424.58 90.8144 1424.81 90.4621 1424.82 90.0227C1424.81 89.6288 1424.63 89.3144 1424.29 89.0795C1423.95 88.8371 1423.42 88.6477 1422.69 88.5114L1419.64 87.9318C1417.89 87.6136 1416.59 87.0265 1415.74 86.1705C1414.88 85.3068 1414.46 84.2083 1414.46 82.875C1414.46 81.7083 1414.77 80.7121 1415.39 79.8864C1416.02 79.053 1416.92 78.4167 1418.08 77.9773C1419.24 77.5379 1420.6 77.3182 1422.18 77.3182C1424.54 77.3182 1426.41 77.8144 1427.77 78.8068C1429.13 79.7917 1429.89 81.1477 1430.03 82.875ZM1441.35 95.3295C1439.51 95.3295 1437.94 94.9545 1436.62 94.2045C1435.31 93.447 1434.3 92.3939 1433.59 91.0455C1432.88 89.6894 1432.53 88.1174 1432.53 86.3295C1432.53 84.5341 1432.88 82.9621 1433.59 81.6136C1434.3 80.2576 1435.31 79.2045 1436.62 78.4545C1437.94 77.697 1439.51 77.3182 1441.35 77.3182C1443.18 77.3182 1444.75 77.697 1446.06 78.4545C1447.38 79.2045 1448.39 80.2576 1449.1 81.6136C1449.81 82.9621 1450.16 84.5341 1450.16 86.3295C1450.16 88.1174 1449.81 89.6894 1449.1 91.0455C1448.39 92.3939 1447.38 93.447 1446.06 94.2045C1444.75 94.9545 1443.18 95.3295 1441.35 95.3295ZM1441.38 91.1364C1442.05 91.1364 1442.61 90.9318 1443.07 90.5227C1443.54 90.1136 1443.89 89.5455 1444.13 88.8182C1444.38 88.0909 1444.51 87.25 1444.51 86.2955C1444.51 85.3258 1444.38 84.4773 1444.13 83.75C1443.89 83.0227 1443.54 82.4545 1443.07 82.0455C1442.61 81.6364 1442.05 81.4318 1441.38 81.4318C1440.69 81.4318 1440.11 81.6364 1439.63 82.0455C1439.16 82.4545 1438.8 83.0227 1438.55 83.75C1438.31 84.4773 1438.19 85.3258 1438.19 86.2955C1438.19 87.25 1438.31 88.0909 1438.55 88.8182C1438.8 89.5455 1439.16 90.1136 1439.63 90.5227C1440.11 90.9318 1440.69 91.1364 1441.38 91.1364ZM1458.57 85.0455V95H1453.01V77.5455H1458.3V80.75H1458.49C1458.88 79.6818 1459.53 78.8447 1460.47 78.2386C1461.4 77.625 1462.51 77.3182 1463.8 77.3182C1465.02 77.3182 1466.09 77.5947 1466.99 78.1477C1467.9 78.6932 1468.6 79.4583 1469.1 80.4432C1469.61 81.4205 1469.86 82.5644 1469.85 83.875V95H1464.3V84.9659C1464.3 83.9962 1464.06 83.2386 1463.56 82.6932C1463.06 82.1477 1462.38 81.875 1461.5 81.875C1460.92 81.875 1460.4 82.0038 1459.95 82.2614C1459.52 82.5114 1459.17 82.8712 1458.93 83.3409C1458.7 83.8106 1458.58 84.3788 1458.57 85.0455Z" fill="black"/>
<rect width="435" height="177" transform="translate(1116 135)" fill="#AACFD0" fill-opacity="0.5"/>
<path d="M1147.55 164.545C1147.41 163.394 1146.86 162.5 1145.89 161.864C1144.92 161.227 1143.73 160.909 1142.32 160.909C1141.29 160.909 1140.39 161.076 1139.61 161.409C1138.85 161.742 1138.25 162.201 1137.82 162.784C1137.39 163.367 1137.18 164.03 1137.18 164.773C1137.18 165.394 1137.33 165.928 1137.62 166.375C1137.93 166.814 1138.31 167.182 1138.78 167.477C1139.25 167.765 1139.75 168.004 1140.26 168.193C1140.78 168.375 1141.25 168.523 1141.68 168.636L1144.05 169.273C1144.65 169.432 1145.33 169.652 1146.07 169.932C1146.82 170.212 1147.53 170.595 1148.22 171.08C1148.91 171.557 1149.47 172.17 1149.92 172.92C1150.37 173.67 1150.59 174.591 1150.59 175.682C1150.59 176.939 1150.26 178.076 1149.6 179.091C1148.95 180.106 1148 180.913 1146.74 181.511C1145.49 182.11 1143.97 182.409 1142.18 182.409C1140.52 182.409 1139.07 182.14 1137.85 181.602C1136.64 181.064 1135.69 180.314 1134.99 179.352C1134.3 178.39 1133.91 177.273 1133.82 176H1136.73C1136.8 176.879 1137.1 177.606 1137.61 178.182C1138.14 178.75 1138.8 179.174 1139.59 179.455C1140.39 179.727 1141.26 179.864 1142.18 179.864C1143.26 179.864 1144.22 179.689 1145.08 179.341C1145.94 178.985 1146.61 178.492 1147.11 177.864C1147.61 177.227 1147.86 176.485 1147.86 175.636C1147.86 174.864 1147.65 174.235 1147.22 173.75C1146.78 173.265 1146.22 172.871 1145.51 172.568C1144.81 172.265 1144.05 172 1143.23 171.773L1140.36 170.955C1138.55 170.432 1137.11 169.686 1136.05 168.716C1134.98 167.746 1134.45 166.477 1134.45 164.909C1134.45 163.606 1134.81 162.47 1135.51 161.5C1136.22 160.523 1137.18 159.765 1138.38 159.227C1139.58 158.682 1140.92 158.409 1142.41 158.409C1143.91 158.409 1145.24 158.678 1146.41 159.216C1147.58 159.746 1148.5 160.473 1149.18 161.398C1149.87 162.322 1150.23 163.371 1150.27 164.545H1147.55ZM1162.18 182.364C1160.5 182.364 1159.05 181.992 1157.83 181.25C1156.61 180.5 1155.68 179.455 1155.02 178.114C1154.37 176.765 1154.04 175.197 1154.04 173.409C1154.04 171.621 1154.37 170.045 1155.02 168.682C1155.68 167.311 1156.6 166.242 1157.77 165.477C1158.95 164.705 1160.33 164.318 1161.91 164.318C1162.82 164.318 1163.71 164.47 1164.6 164.773C1165.49 165.076 1166.29 165.568 1167.02 166.25C1167.75 166.924 1168.33 167.818 1168.76 168.932C1169.19 170.045 1169.41 171.417 1169.41 173.045V174.182H1155.95V171.864H1166.68C1166.68 170.879 1166.48 170 1166.09 169.227C1165.7 168.455 1165.15 167.845 1164.43 167.398C1163.72 166.951 1162.88 166.727 1161.91 166.727C1160.84 166.727 1159.91 166.992 1159.13 167.523C1158.36 168.045 1157.77 168.727 1157.35 169.568C1156.93 170.409 1156.72 171.311 1156.72 172.273V173.818C1156.72 175.136 1156.95 176.254 1157.41 177.17C1157.87 178.08 1158.51 178.773 1159.33 179.25C1160.14 179.72 1161.1 179.955 1162.18 179.955C1162.88 179.955 1163.52 179.856 1164.09 179.659C1164.66 179.455 1165.16 179.152 1165.58 178.75C1165.99 178.341 1166.32 177.833 1166.54 177.227L1169.13 177.955C1168.86 178.833 1168.4 179.606 1167.76 180.273C1167.11 180.932 1166.32 181.447 1165.37 181.818C1164.43 182.182 1163.36 182.364 1162.18 182.364ZM1180.58 182.364C1178.94 182.364 1177.53 181.977 1176.35 181.205C1175.17 180.432 1174.26 179.367 1173.62 178.011C1172.99 176.655 1172.67 175.106 1172.67 173.364C1172.67 171.591 1172.99 170.027 1173.64 168.67C1174.3 167.307 1175.22 166.242 1176.39 165.477C1177.58 164.705 1178.96 164.318 1180.53 164.318C1181.76 164.318 1182.86 164.545 1183.85 165C1184.83 165.455 1185.64 166.091 1186.27 166.909C1186.9 167.727 1187.29 168.682 1187.44 169.773H1184.76C1184.55 168.977 1184.1 168.273 1183.39 167.659C1182.7 167.038 1181.76 166.727 1180.58 166.727C1179.53 166.727 1178.61 167 1177.83 167.545C1177.05 168.083 1176.44 168.845 1176 169.83C1175.57 170.807 1175.35 171.955 1175.35 173.273C1175.35 174.621 1175.56 175.795 1175.99 176.795C1176.42 177.795 1177.02 178.572 1177.8 179.125C1178.59 179.678 1179.52 179.955 1180.58 179.955C1181.27 179.955 1181.91 179.833 1182.47 179.591C1183.04 179.348 1183.52 179 1183.92 178.545C1184.31 178.091 1184.59 177.545 1184.76 176.909H1187.44C1187.29 177.939 1186.91 178.867 1186.32 179.693C1185.72 180.511 1184.94 181.163 1183.96 181.648C1182.99 182.125 1181.86 182.364 1180.58 182.364ZM1202.36 174.864V164.545H1205.04V182H1202.36V179.045H1202.18C1201.77 179.932 1201.13 180.686 1200.27 181.307C1199.41 181.92 1198.32 182.227 1197 182.227C1195.91 182.227 1194.94 181.989 1194.09 181.511C1193.24 181.027 1192.57 180.299 1192.09 179.33C1191.6 178.352 1191.36 177.121 1191.36 175.636V164.545H1194.04V175.455C1194.04 176.727 1194.4 177.742 1195.11 178.5C1195.83 179.258 1196.75 179.636 1197.86 179.636C1198.53 179.636 1199.21 179.466 1199.89 179.125C1200.59 178.784 1201.18 178.261 1201.64 177.557C1202.12 176.852 1202.36 175.955 1202.36 174.864ZM1209.95 182V164.545H1212.55V167.182H1212.73C1213.05 166.318 1213.62 165.617 1214.45 165.08C1215.29 164.542 1216.23 164.273 1217.27 164.273C1217.47 164.273 1217.72 164.277 1218.01 164.284C1218.31 164.292 1218.53 164.303 1218.68 164.318V167.045C1218.59 167.023 1218.38 166.989 1218.06 166.943C1217.74 166.89 1217.4 166.864 1217.05 166.864C1216.2 166.864 1215.44 167.042 1214.77 167.398C1214.11 167.746 1213.59 168.231 1213.2 168.852C1212.83 169.466 1212.64 170.167 1212.64 170.955V182H1209.95ZM1228.65 182.364C1226.97 182.364 1225.52 181.992 1224.3 181.25C1223.08 180.5 1222.15 179.455 1221.49 178.114C1220.84 176.765 1220.51 175.197 1220.51 173.409C1220.51 171.621 1220.84 170.045 1221.49 168.682C1222.15 167.311 1223.06 166.242 1224.24 165.477C1225.42 164.705 1226.8 164.318 1228.38 164.318C1229.28 164.318 1230.18 164.47 1231.07 164.773C1231.95 165.076 1232.76 165.568 1233.49 166.25C1234.22 166.924 1234.8 167.818 1235.23 168.932C1235.66 170.045 1235.88 171.417 1235.88 173.045V174.182H1222.42V171.864H1233.15C1233.15 170.879 1232.95 170 1232.56 169.227C1232.17 168.455 1231.62 167.845 1230.9 167.398C1230.19 166.951 1229.34 166.727 1228.38 166.727C1227.31 166.727 1226.38 166.992 1225.6 167.523C1224.83 168.045 1224.23 168.727 1223.82 169.568C1223.4 170.409 1223.19 171.311 1223.19 172.273V173.818C1223.19 175.136 1223.42 176.254 1223.88 177.17C1224.34 178.08 1224.98 178.773 1225.8 179.25C1226.61 179.72 1227.56 179.955 1228.65 179.955C1229.35 179.955 1229.99 179.856 1230.56 179.659C1231.13 179.455 1231.63 179.152 1232.05 178.75C1232.46 178.341 1232.78 177.833 1233.01 177.227L1235.6 177.955C1235.33 178.833 1234.87 179.606 1234.23 180.273C1233.58 180.932 1232.79 181.447 1231.84 181.818C1230.89 182.182 1229.83 182.364 1228.65 182.364ZM1255.55 182.364C1254.09 182.364 1252.81 181.996 1251.69 181.261C1250.58 180.519 1249.71 179.473 1249.08 178.125C1248.45 176.769 1248.14 175.167 1248.14 173.318C1248.14 171.485 1248.45 169.894 1249.08 168.545C1249.71 167.197 1250.58 166.155 1251.7 165.42C1252.83 164.686 1254.12 164.318 1255.59 164.318C1256.73 164.318 1257.63 164.508 1258.28 164.886C1258.95 165.258 1259.46 165.682 1259.81 166.159C1260.16 166.629 1260.44 167.015 1260.64 167.318H1260.86V158.727H1263.55V182H1260.95V179.318H1260.64C1260.44 179.636 1260.16 180.038 1259.8 180.523C1259.43 181 1258.91 181.428 1258.24 181.807C1257.56 182.178 1256.67 182.364 1255.55 182.364ZM1255.91 179.955C1256.98 179.955 1257.89 179.674 1258.64 179.114C1259.38 178.545 1259.94 177.761 1260.33 176.761C1260.72 175.754 1260.91 174.591 1260.91 173.273C1260.91 171.97 1260.72 170.83 1260.34 169.852C1259.96 168.867 1259.4 168.102 1258.66 167.557C1257.92 167.004 1257 166.727 1255.91 166.727C1254.77 166.727 1253.83 167.019 1253.07 167.602C1252.32 168.178 1251.75 168.962 1251.38 169.955C1251 170.939 1250.82 172.045 1250.82 173.273C1250.82 174.515 1251.01 175.644 1251.39 176.659C1251.77 177.667 1252.34 178.47 1253.09 179.068C1253.85 179.659 1254.79 179.955 1255.91 179.955ZM1268.83 182V164.545H1271.51V182H1268.83ZM1270.19 161.636C1269.67 161.636 1269.22 161.458 1268.84 161.102C1268.47 160.746 1268.28 160.318 1268.28 159.818C1268.28 159.318 1268.47 158.89 1268.84 158.534C1269.22 158.178 1269.67 158 1270.19 158C1270.72 158 1271.16 158.178 1271.53 158.534C1271.91 158.89 1272.1 159.318 1272.1 159.818C1272.1 160.318 1271.91 160.746 1271.53 161.102C1271.16 161.458 1270.72 161.636 1270.19 161.636ZM1283.47 188.909C1282.17 188.909 1281.06 188.742 1280.13 188.409C1279.2 188.083 1278.42 187.652 1277.8 187.114C1277.18 186.583 1276.7 186.015 1276.33 185.409L1278.47 183.909C1278.71 184.227 1279.02 184.591 1279.39 185C1279.76 185.417 1280.27 185.777 1280.91 186.08C1281.56 186.39 1282.42 186.545 1283.47 186.545C1284.88 186.545 1286.04 186.205 1286.96 185.523C1287.87 184.841 1288.33 183.773 1288.33 182.318V178.773H1288.11C1287.91 179.091 1287.63 179.485 1287.26 179.955C1286.91 180.417 1286.39 180.83 1285.72 181.193C1285.05 181.549 1284.15 181.727 1283.01 181.727C1281.61 181.727 1280.34 181.394 1279.22 180.727C1278.11 180.061 1277.22 179.091 1276.57 177.818C1275.93 176.545 1275.61 175 1275.61 173.182C1275.61 171.394 1275.92 169.837 1276.55 168.511C1277.18 167.178 1278.05 166.148 1279.17 165.42C1280.29 164.686 1281.59 164.318 1283.06 164.318C1284.2 164.318 1285.1 164.508 1285.76 164.886C1286.44 165.258 1286.95 165.682 1287.31 166.159C1287.67 166.629 1287.95 167.015 1288.15 167.318H1288.42V164.545H1291.01V182.5C1291.01 184 1290.67 185.22 1289.99 186.159C1289.32 187.106 1288.41 187.799 1287.26 188.239C1286.13 188.686 1284.86 188.909 1283.47 188.909ZM1283.38 179.318C1284.45 179.318 1285.36 179.072 1286.11 178.58C1286.85 178.087 1287.41 177.379 1287.8 176.455C1288.18 175.53 1288.38 174.424 1288.38 173.136C1288.38 171.879 1288.19 170.769 1287.81 169.807C1287.43 168.845 1286.87 168.091 1286.13 167.545C1285.39 167 1284.47 166.727 1283.38 166.727C1282.24 166.727 1281.29 167.015 1280.54 167.591C1279.79 168.167 1279.22 168.939 1278.84 169.909C1278.47 170.879 1278.29 171.955 1278.29 173.136C1278.29 174.348 1278.48 175.42 1278.86 176.352C1279.24 177.277 1279.81 178.004 1280.56 178.534C1281.32 179.057 1282.26 179.318 1283.38 179.318ZM1295.92 182V164.545H1298.61V182H1295.92ZM1297.29 161.636C1296.76 161.636 1296.31 161.458 1295.93 161.102C1295.56 160.746 1295.38 160.318 1295.38 159.818C1295.38 159.318 1295.56 158.89 1295.93 158.534C1296.31 158.178 1296.76 158 1297.29 158C1297.81 158 1298.26 158.178 1298.63 158.534C1299.01 158.89 1299.2 159.318 1299.2 159.818C1299.2 160.318 1299.01 160.746 1298.63 161.102C1298.26 161.458 1297.81 161.636 1297.29 161.636ZM1311.11 164.545V166.818H1302.06V164.545H1311.11ZM1304.7 160.364H1307.38V177C1307.38 177.758 1307.49 178.326 1307.71 178.705C1307.94 179.076 1308.23 179.326 1308.57 179.455C1308.93 179.576 1309.3 179.636 1309.7 179.636C1309.99 179.636 1310.24 179.621 1310.43 179.591C1310.62 179.553 1310.77 179.523 1310.88 179.5L1311.43 181.909C1311.24 181.977 1310.99 182.045 1310.66 182.114C1310.34 182.189 1309.93 182.227 1309.43 182.227C1308.67 182.227 1307.93 182.064 1307.2 181.739C1306.48 181.413 1305.88 180.917 1305.4 180.25C1304.93 179.583 1304.7 178.742 1304.7 177.727V160.364ZM1320.28 182.409C1319.17 182.409 1318.17 182.201 1317.27 181.784C1316.37 181.36 1315.65 180.75 1315.12 179.955C1314.59 179.152 1314.32 178.182 1314.32 177.045C1314.32 176.045 1314.52 175.235 1314.91 174.614C1315.31 173.985 1315.84 173.492 1316.49 173.136C1317.15 172.78 1317.88 172.515 1318.68 172.341C1319.48 172.159 1320.29 172.015 1321.1 171.909C1322.16 171.773 1323.02 171.67 1323.68 171.602C1324.34 171.527 1324.83 171.402 1325.13 171.227C1325.44 171.053 1325.6 170.75 1325.6 170.318V170.227C1325.6 169.106 1325.29 168.235 1324.68 167.614C1324.07 166.992 1323.15 166.682 1321.91 166.682C1320.63 166.682 1319.63 166.962 1318.9 167.523C1318.18 168.083 1317.66 168.682 1317.37 169.318L1314.82 168.409C1315.28 167.348 1315.88 166.523 1316.64 165.932C1317.41 165.333 1318.24 164.917 1319.14 164.682C1320.05 164.439 1320.95 164.318 1321.82 164.318C1322.38 164.318 1323.03 164.386 1323.76 164.523C1324.49 164.652 1325.2 164.92 1325.88 165.33C1326.57 165.739 1327.14 166.356 1327.6 167.182C1328.05 168.008 1328.28 169.114 1328.28 170.5V182H1325.6V179.636H1325.46C1325.28 180.015 1324.98 180.42 1324.55 180.852C1324.13 181.284 1323.56 181.652 1322.86 181.955C1322.15 182.258 1321.29 182.409 1320.28 182.409ZM1320.69 180C1321.75 180 1322.64 179.792 1323.37 179.375C1324.1 178.958 1324.66 178.42 1325.03 177.761C1325.41 177.102 1325.6 176.409 1325.6 175.682V173.227C1325.48 173.364 1325.23 173.489 1324.85 173.602C1324.47 173.708 1324.03 173.803 1323.53 173.886C1323.04 173.962 1322.55 174.03 1322.09 174.091C1321.62 174.144 1321.25 174.189 1320.96 174.227C1320.26 174.318 1319.61 174.466 1319.01 174.67C1318.41 174.867 1317.92 175.167 1317.55 175.568C1317.19 175.962 1317.01 176.5 1317.01 177.182C1317.01 178.114 1317.35 178.818 1318.04 179.295C1318.74 179.765 1319.62 180 1320.69 180ZM1335.86 158.727V182H1333.17V158.727H1335.86ZM1349.77 188.545V164.545H1352.36V167.318H1352.68C1352.87 167.015 1353.15 166.629 1353.49 166.159C1353.85 165.682 1354.36 165.258 1355.02 164.886C1355.68 164.508 1356.59 164.318 1357.72 164.318C1359.19 164.318 1360.49 164.686 1361.61 165.42C1362.73 166.155 1363.6 167.197 1364.23 168.545C1364.86 169.894 1365.18 171.485 1365.18 173.318C1365.18 175.167 1364.86 176.769 1364.23 178.125C1363.6 179.473 1362.73 180.519 1361.62 181.261C1360.51 181.996 1359.22 182.364 1357.77 182.364C1356.65 182.364 1355.75 182.178 1355.07 181.807C1354.4 181.428 1353.88 181 1353.52 180.523C1353.15 180.038 1352.87 179.636 1352.68 179.318H1352.45V188.545H1349.77ZM1352.4 173.273C1352.4 174.591 1352.6 175.754 1352.98 176.761C1353.37 177.761 1353.93 178.545 1354.68 179.114C1355.42 179.674 1356.33 179.955 1357.4 179.955C1358.52 179.955 1359.46 179.659 1360.21 179.068C1360.97 178.47 1361.54 177.667 1361.91 176.659C1362.3 175.644 1362.49 174.515 1362.49 173.273C1362.49 172.045 1362.3 170.939 1361.93 169.955C1361.55 168.962 1360.99 168.178 1360.23 167.602C1359.48 167.019 1358.54 166.727 1357.4 166.727C1356.31 166.727 1355.4 167.004 1354.65 167.557C1353.91 168.102 1353.35 168.867 1352.97 169.852C1352.59 170.83 1352.4 171.97 1352.4 173.273ZM1374.4 182.409C1373.3 182.409 1372.29 182.201 1371.39 181.784C1370.49 181.36 1369.77 180.75 1369.24 179.955C1368.71 179.152 1368.45 178.182 1368.45 177.045C1368.45 176.045 1368.65 175.235 1369.04 174.614C1369.43 173.985 1369.96 173.492 1370.62 173.136C1371.28 172.78 1372.01 172.515 1372.8 172.341C1373.6 172.159 1374.41 172.015 1375.22 171.909C1376.28 171.773 1377.14 171.67 1377.8 171.602C1378.47 171.527 1378.95 171.402 1379.26 171.227C1379.57 171.053 1379.72 170.75 1379.72 170.318V170.227C1379.72 169.106 1379.41 168.235 1378.8 167.614C1378.2 166.992 1377.27 166.682 1376.04 166.682C1374.76 166.682 1373.76 166.962 1373.03 167.523C1372.3 168.083 1371.79 168.682 1371.49 169.318L1368.95 168.409C1369.4 167.348 1370.01 166.523 1370.77 165.932C1371.53 165.333 1372.37 164.917 1373.27 164.682C1374.18 164.439 1375.07 164.318 1375.95 164.318C1376.51 164.318 1377.15 164.386 1377.88 164.523C1378.62 164.652 1379.32 164.92 1380.01 165.33C1380.7 165.739 1381.27 166.356 1381.72 167.182C1382.18 168.008 1382.4 169.114 1382.4 170.5V182H1379.72V179.636H1379.59C1379.4 180.015 1379.1 180.42 1378.68 180.852C1378.25 181.284 1377.69 181.652 1376.98 181.955C1376.28 182.258 1375.42 182.409 1374.4 182.409ZM1374.81 180C1375.87 180 1376.77 179.792 1377.49 179.375C1378.23 178.958 1378.78 178.42 1379.15 177.761C1379.53 177.102 1379.72 176.409 1379.72 175.682V173.227C1379.61 173.364 1379.36 173.489 1378.97 173.602C1378.59 173.708 1378.15 173.803 1377.65 173.886C1377.16 173.962 1376.68 174.03 1376.21 174.091C1375.75 174.144 1375.37 174.189 1375.09 174.227C1374.39 174.318 1373.74 174.466 1373.13 174.67C1372.53 174.867 1372.05 175.167 1371.68 175.568C1371.31 175.962 1371.13 176.5 1371.13 177.182C1371.13 178.114 1371.48 178.818 1372.16 179.295C1372.86 179.765 1373.74 180 1374.81 180ZM1394.89 164.545V166.818H1385.84V164.545H1394.89ZM1388.48 160.364H1391.16V177C1391.16 177.758 1391.27 178.326 1391.49 178.705C1391.72 179.076 1392.01 179.326 1392.36 179.455C1392.71 179.576 1393.09 179.636 1393.48 179.636C1393.78 179.636 1394.02 179.621 1394.21 179.591C1394.4 179.553 1394.55 179.523 1394.66 179.5L1395.21 181.909C1395.03 181.977 1394.77 182.045 1394.45 182.114C1394.12 182.189 1393.71 182.227 1393.21 182.227C1392.45 182.227 1391.71 182.064 1390.98 181.739C1390.26 181.413 1389.66 180.917 1389.18 180.25C1388.71 179.583 1388.48 178.742 1388.48 177.727V160.364ZM1398.92 182V164.545H1401.51V167.182H1401.7C1402.01 166.318 1402.59 165.617 1403.42 165.08C1404.26 164.542 1405.2 164.273 1406.24 164.273C1406.44 164.273 1406.68 164.277 1406.98 164.284C1407.28 164.292 1407.5 164.303 1407.65 164.318V167.045C1407.56 167.023 1407.35 166.989 1407.03 166.943C1406.71 166.89 1406.37 166.864 1406.01 166.864C1405.17 166.864 1404.41 167.042 1403.74 167.398C1403.08 167.746 1402.56 168.231 1402.17 168.852C1401.79 169.466 1401.61 170.167 1401.61 170.955V182H1398.92ZM1410.83 182V164.545H1413.51V182H1410.83ZM1412.19 161.636C1411.67 161.636 1411.22 161.458 1410.84 161.102C1410.47 160.746 1410.28 160.318 1410.28 159.818C1410.28 159.318 1410.47 158.89 1410.84 158.534C1411.22 158.178 1411.67 158 1412.19 158C1412.72 158 1413.16 158.178 1413.53 158.534C1413.91 158.89 1414.1 159.318 1414.1 159.818C1414.1 160.318 1413.91 160.746 1413.53 161.102C1413.16 161.458 1412.72 161.636 1412.19 161.636ZM1418.42 182V164.545H1421.01V167.273H1421.24C1421.61 166.341 1422.19 165.617 1423 165.102C1423.81 164.58 1424.79 164.318 1425.92 164.318C1427.07 164.318 1428.03 164.58 1428.8 165.102C1429.57 165.617 1430.17 166.341 1430.61 167.273H1430.79C1431.23 166.371 1431.9 165.655 1432.8 165.125C1433.69 164.587 1434.76 164.318 1436.01 164.318C1437.57 164.318 1438.85 164.807 1439.84 165.784C1440.84 166.754 1441.33 168.265 1441.33 170.318V182H1438.65V170.318C1438.65 169.03 1438.3 168.11 1437.59 167.557C1436.89 167.004 1436.06 166.727 1435.11 166.727C1433.88 166.727 1432.93 167.098 1432.25 167.841C1431.58 168.576 1431.24 169.508 1431.24 170.636V182H1428.51V170.045C1428.51 169.053 1428.19 168.254 1427.55 167.648C1426.9 167.034 1426.07 166.727 1425.06 166.727C1424.36 166.727 1423.71 166.913 1423.11 167.284C1422.51 167.655 1422.02 168.17 1421.65 168.83C1421.29 169.481 1421.11 170.235 1421.11 171.091V182H1418.42ZM1453.33 182.364C1451.75 182.364 1450.37 181.989 1449.18 181.239C1448 180.489 1447.07 179.439 1446.41 178.091C1445.75 176.742 1445.42 175.167 1445.42 173.364C1445.42 171.545 1445.75 169.958 1446.41 168.602C1447.07 167.246 1448 166.193 1449.18 165.443C1450.37 164.693 1451.75 164.318 1453.33 164.318C1454.9 164.318 1456.28 164.693 1457.46 165.443C1458.65 166.193 1459.58 167.246 1460.24 168.602C1460.9 169.958 1461.24 171.545 1461.24 173.364C1461.24 175.167 1460.9 176.742 1460.24 178.091C1459.58 179.439 1458.65 180.489 1457.46 181.239C1456.28 181.989 1454.9 182.364 1453.33 182.364ZM1453.33 179.955C1454.52 179.955 1455.51 179.648 1456.28 179.034C1457.05 178.42 1457.63 177.614 1458 176.614C1458.37 175.614 1458.55 174.53 1458.55 173.364C1458.55 172.197 1458.37 171.11 1458 170.102C1457.63 169.095 1457.05 168.28 1456.28 167.659C1455.51 167.038 1454.52 166.727 1453.33 166.727C1452.13 166.727 1451.14 167.038 1450.37 167.659C1449.6 168.28 1449.03 169.095 1448.66 170.102C1448.29 171.11 1448.1 172.197 1448.1 173.364C1448.1 174.53 1448.29 175.614 1448.66 176.614C1449.03 177.614 1449.6 178.42 1450.37 179.034C1451.14 179.648 1452.13 179.955 1453.33 179.955ZM1468.01 171.5V182H1465.33V164.545H1467.92V167.273H1468.15C1468.56 166.386 1469.18 165.674 1470.01 165.136C1470.84 164.591 1471.92 164.318 1473.24 164.318C1474.42 164.318 1475.45 164.561 1476.34 165.045C1477.23 165.523 1477.92 166.25 1478.41 167.227C1478.9 168.197 1479.15 169.424 1479.15 170.909V182H1476.47V171.091C1476.47 169.72 1476.11 168.652 1475.4 167.886C1474.69 167.114 1473.71 166.727 1472.47 166.727C1471.61 166.727 1470.84 166.913 1470.17 167.284C1469.5 167.655 1468.98 168.197 1468.59 168.909C1468.2 169.621 1468.01 170.485 1468.01 171.5ZM1485.15 188.545C1484.7 188.545 1484.29 188.508 1483.93 188.432C1483.58 188.364 1483.33 188.295 1483.2 188.227L1483.88 185.864C1484.53 186.03 1485.11 186.091 1485.61 186.045C1486.11 186 1486.55 185.777 1486.93 185.375C1487.33 184.981 1487.69 184.341 1488.01 183.455L1488.51 182.091L1482.06 164.545H1484.97L1489.79 178.455H1489.97L1494.79 164.545H1497.7L1490.29 184.545C1489.95 185.447 1489.54 186.193 1489.05 186.784C1488.56 187.383 1487.98 187.826 1487.33 188.114C1486.69 188.402 1485.96 188.545 1485.15 188.545Z" fill="black"/>
</svg>
