<svg width="34" height="33" viewBox="0 0 34 33" fill="none" xmlns="http://www.w3.org/2000/svg">
<path d="M16.9987 0.333496C14.81 0.333496 12.6427 0.764592 10.6206 1.60217C8.59855 2.43975 6.76123 3.66741 5.21358 5.21505C2.08798 8.34066 0.332031 12.5799 0.332031 17.0002C0.332031 24.3668 5.11536 30.6168 11.732 32.8335C12.5654 32.9668 12.832 32.4502 12.832 32.0002V29.1835C8.21536 30.1835 7.23203 26.9502 7.23203 26.9502C6.46536 25.0168 5.38203 24.5002 5.38203 24.5002C3.86536 23.4668 5.4987 23.5002 5.4987 23.5002C7.16536 23.6168 8.0487 25.2168 8.0487 25.2168C9.4987 27.7502 11.9487 27.0002 12.8987 26.6002C13.0487 25.5168 13.482 24.7835 13.9487 24.3668C10.2487 23.9502 6.36536 22.5168 6.36536 16.1668C6.36536 14.3168 6.9987 12.8335 8.08203 11.6502C7.91536 11.2335 7.33203 9.50016 8.2487 7.25016C8.2487 7.25016 9.6487 6.80016 12.832 8.95016C14.1487 8.5835 15.582 8.40016 16.9987 8.40016C18.4154 8.40016 19.8487 8.5835 21.1654 8.95016C24.3487 6.80016 25.7487 7.25016 25.7487 7.25016C26.6654 9.50016 26.082 11.2335 25.9154 11.6502C26.9987 12.8335 27.632 14.3168 27.632 16.1668C27.632 22.5335 23.732 23.9335 20.0154 24.3502C20.6154 24.8668 21.1654 25.8835 21.1654 27.4335V32.0002C21.1654 32.4502 21.432 32.9835 22.282 32.8335C28.8987 30.6002 33.6654 24.3668 33.6654 17.0002C33.6654 14.8115 33.2343 12.6442 32.3967 10.6221C31.5591 8.60001 30.3315 6.76269 28.7838 5.21505C27.2362 3.66741 25.3988 2.43975 23.3768 1.60217C21.3547 0.764592 19.1874 0.333496 16.9987 0.333496Z" fill="black"/>
</svg>
